<svg width="140" height="80" viewBox="0 0 140 80" fill="none" xmlns="http://www.w3.org/2000/svg">
<path d="M42.0545 58.9427H43.5828C44.4288 58.9427 45.0019 58.8335 45.2748 58.6425C45.5477 58.4241 45.6841 58.0421 45.6841 57.4963V56.4047C45.6841 55.8589 45.5477 55.4495 45.2748 55.2585C45.0019 55.0401 44.4288 54.9583 43.5828 54.9583H42.0545C41.2085 54.9583 40.6354 55.0674 40.3625 55.2858C40.0896 55.5041 39.9532 55.8861 39.9532 56.4592V57.5236C39.9532 58.0694 40.0896 58.4514 40.3898 58.6425C40.6355 58.8335 41.2085 58.9427 42.0545 58.9427ZM41.3996 60.8257C40.499 60.8257 39.8167 60.7984 39.3801 60.7165C38.9707 60.6346 38.616 60.4982 38.3431 60.3072C38.0429 60.0888 37.8245 59.7886 37.6881 59.4612C37.5516 59.1064 37.4971 58.6425 37.4971 58.0694V55.9953C37.4971 55.3676 37.5516 54.8491 37.6881 54.4943C37.8245 54.1123 38.0429 53.8121 38.3431 53.6211C38.616 53.43 38.9707 53.2936 39.4074 53.2117C39.844 53.1298 40.499 53.1025 41.3723 53.1025H44.1832C45.0838 53.1025 45.7387 53.1571 46.1754 53.2117C46.612 53.2936 46.9668 53.43 47.2124 53.6211C47.5126 53.8394 47.7036 54.1396 47.8401 54.4943C47.9765 54.8764 48.0584 55.3403 48.0584 55.9134V58.0421C48.0584 58.6425 47.9765 59.1064 47.8401 59.4612C47.7036 59.8432 47.4853 60.1161 47.2124 60.3345C46.9395 60.5255 46.612 60.6619 46.1754 60.7438C45.7387 60.8257 45.0838 60.853 44.1559 60.853H41.3996V60.8257Z" fill="#0089CF"/>
<path d="M106.378 57.6601H109.38L107.852 54.9583L106.378 57.6601ZM104.714 60.7439H102.094L106.378 53.1299H109.408L113.61 60.7439H110.99L110.226 59.4885H105.45L104.714 60.7439Z" fill="#0089CF"/>
<path d="M66.589 58.915H71.8015V60.7707H64.1875V53.1567H64.9789C65.9614 53.2113 66.5618 53.4842 66.5618 54.4667V58.915H66.589Z" fill="#0089CF"/>
<path d="M51.7434 55.9681H52.7531C53.5173 55.2585 54.2814 54.5763 55.0728 53.8667C55.7551 53.3209 56.41 53.1299 57.2014 53.1299H59.0572L54.8272 56.8959L59.6303 60.7439H57.6927C56.7102 60.7439 56.1644 60.6347 55.373 60.007L52.7531 57.8511H51.7434V60.7439H49.3691V53.1299H51.7434V55.9681Z" fill="#0089CF"/>
<path d="M28.8742 60.7439H26.4727V53.1299H27.6461C28.4103 53.2118 28.8196 53.6757 28.8742 54.4398V55.9135H33.7864V54.4125C33.7592 53.9213 34.1958 53.1845 35.151 53.1299H36.188V54.5217V60.7439H33.7864V57.7692H28.8742V60.7439Z" fill="#0089CF"/>
<path d="M81.5428 54.9852H75.3752V56.1314H81.5428V57.7415H75.3752V58.915H81.5701V60.7707H73.001V55.0125C73.1101 54.0573 73.4649 53.3205 74.9659 53.1567H81.5428V54.9852Z" fill="#0089CF"/>
<path d="M88.8843 60.7439H86.4828V58.0148L82.1709 53.1299H84.0266C84.5452 53.1572 85.2001 53.3482 85.7732 53.9213L87.6835 56.1591C88.3385 55.4223 88.9935 54.6854 89.6484 53.9486C90.0032 53.5392 90.5217 53.2118 91.586 53.1299H93.1962L88.8843 58.0148V60.7439V60.7439Z" fill="#0089CF"/>
<path d="M96.2532 58.915H101.466V60.7707H93.8789V53.1567H94.6703C95.6528 53.2113 96.2532 53.4842 96.2532 54.4667V58.915Z" fill="#0089CF"/>
<path d="M125.017 60.7439H121.524L116.83 55.2039V60.7439H114.429V53.1299H116.394C117.84 53.1845 118.577 53.8394 119.259 54.6581L122.643 58.7244V53.1299H125.017V60.7439V60.7439Z" fill="#0089CF"/>
<path d="M132.931 53.1299C134.132 53.1299 134.978 53.3482 135.551 53.7576C136.097 54.1669 136.369 54.7946 136.369 55.6952V58.315C136.369 59.161 136.151 59.7887 135.715 60.1708C135.278 60.5528 134.596 60.7712 133.64 60.7712H126.081V53.1572H132.931V53.1299ZM132.221 55.0129H128.483V58.8881H132.522C133.04 58.8881 133.395 58.779 133.64 58.5879C133.886 58.3969 133.995 58.0694 133.995 57.6328V56.2955C133.995 55.8589 133.859 55.5314 133.559 55.3131C133.258 55.1221 132.822 55.0129 132.221 55.0129Z" fill="#0089CF"/>
<path d="M22.0507 59.0786C22.3509 59.0786 22.5693 59.024 22.6784 58.9421C22.8149 58.833 22.8695 58.6965 22.8695 58.4509C22.8695 58.2053 22.7876 58.0688 22.6511 57.9597C22.5147 57.8505 22.1872 57.7959 21.696 57.7686L17.9572 57.6868C17.0293 57.6595 16.3744 57.4957 16.0469 57.1682C15.7194 56.8408 15.5557 56.2677 15.5557 55.4217C15.5557 54.985 15.6102 54.6303 15.6921 54.3574C15.774 54.0844 15.9104 53.8388 16.1015 53.6478C16.3198 53.4295 16.62 53.293 17.002 53.2112C17.3568 53.1293 17.9845 53.0747 18.8032 53.0747H22.4601C23.3607 53.0747 24.0156 53.2384 24.425 53.5659C24.7525 53.8388 24.9435 54.2209 24.9981 54.7667H19.158C18.694 54.7667 18.3939 54.8213 18.2574 54.9032C18.121 54.985 18.0391 55.1488 18.0391 55.3671C18.0391 55.5854 18.0937 55.7492 18.2301 55.831C18.3666 55.9402 18.6122 55.9948 18.9669 56.0221L22.8967 56.0766C23.7973 56.1039 24.425 56.295 24.7798 56.6497C25.1618 57.0318 25.3256 57.6322 25.3256 58.5328C25.3256 59.0513 25.271 59.4606 25.1345 59.7608C24.9981 60.061 24.7798 60.3066 24.4523 60.4977C24.234 60.6341 23.9611 60.716 23.6063 60.7706C23.2515 60.8251 22.7057 60.8524 22.0235 60.8524H18.8305C17.5206 60.8524 16.6473 60.716 16.2106 60.4158C15.8286 60.1702 15.6102 59.7062 15.5557 59.0786H22.0507V59.0786Z" fill="#0089CF"/>
<path d="M7.88716 57.6601H10.8891L9.36084 54.9583L7.88716 57.6601ZM6.24975 60.7439H3.62988L7.91445 53.1299H10.971L15.1737 60.7439H12.5538L11.7897 59.4885H7.01387L6.24975 60.7439Z" fill="#0089CF"/>
<path d="M74.5033 32.083L73.7664 35.0577H66.016L66.2616 34.0752H66.3162C66.7801 34.0752 67.1895 33.7477 67.3259 33.3111C67.3259 33.2838 68.2538 29.5996 68.2538 29.5996C68.2811 29.5451 68.2811 29.4632 68.2811 29.4086C68.2811 29.0538 67.9809 28.7536 67.6261 28.7536H67.5715L67.7626 27.9895H71.9653L71.7742 28.7536H71.7197C71.2284 28.7536 70.8191 29.0811 70.6826 29.5451L69.7548 33.2292V33.2565C69.7548 33.3111 69.7548 33.3384 69.7548 33.393C69.7548 33.7478 70.055 34.0479 70.4097 34.0479H71.0647C72.2382 34.0207 73.2206 33.2019 73.4935 32.1103V32.0558H74.5033V32.083ZM70.0004 25.588C71.5013 24.3599 73.4389 23.6231 75.513 23.6231C75.9496 23.6231 76.3863 23.6504 76.8229 23.7322C79.3882 25.7517 81.0529 28.8901 81.0529 32.4105C79.0334 28.3716 74.8307 25.588 70.0004 25.588ZM78.6787 39.2604C76.6592 41.8257 73.5208 43.4904 70.0004 43.4904C74.0393 41.4709 76.8229 37.2682 76.8229 32.4378C78.051 33.9388 78.7878 35.8764 78.7878 37.9504C78.7878 38.3871 78.7605 38.8237 78.6787 39.2604ZM64.4604 32.4105C64.4604 29.354 66.9439 26.8706 69.9731 26.8706C73.0296 26.8706 75.4857 29.354 75.4857 32.4105C75.4857 35.467 73.0023 37.9232 69.9731 37.9232C66.9439 37.9505 64.4604 35.467 64.4604 32.4105ZM64.4604 41.198C64.0238 41.198 63.5872 41.1707 63.1505 41.0888C60.5852 39.0693 58.9478 35.931 58.9478 32.4105C60.9673 36.4495 65.17 39.2331 70.0004 39.2331C68.4994 40.4612 66.5618 41.198 64.4604 41.198ZM61.3221 25.588C63.3415 23.0227 66.4799 21.358 70.0004 21.358C65.9614 23.3775 63.1778 27.5802 63.1778 32.4105C61.9497 30.9096 61.2129 28.972 61.2129 26.8706C61.2129 26.4613 61.2402 26.0246 61.3221 25.588ZM70.0004 19.1475C62.6866 19.1475 56.7373 25.0967 56.7373 32.4105C56.7373 39.7243 62.6866 45.6736 70.0004 45.6736C77.3142 45.6736 83.2634 39.7243 83.2634 32.4105C83.2634 25.0967 77.3142 19.1475 70.0004 19.1475Z" fill="#0089CF"/>
</svg>
