<svg width="185" height="49" viewBox="0 0 185 49" fill="none" xmlns="http://www.w3.org/2000/svg">
<path d="M26.5378 2.88037C29.0878 7.2952 31.6599 11.697 34.1823 16.1286C30.1052 23.3766 26.0871 30.6598 21.8721 37.8281C20.2549 40.5798 18.6818 43.3573 17.0831 46.1182C11.8985 46.1497 6.71388 46.1479 1.5293 46.1405C1.68752 45.7826 1.8439 45.4229 2.03524 45.0817C10.1985 31.0121 18.393 16.9611 26.5378 2.88037Z" fill="#AE285D"/>
<path d="M139.353 13.7329C142.22 19.1175 145.084 24.5002 147.947 29.8866C146.937 29.907 145.927 29.8551 144.919 29.8903C144.242 28.7036 143.655 27.4669 142.992 26.2728C140.446 26.1968 137.898 26.2487 135.35 26.2431C134.735 27.4725 134.066 28.6703 133.414 29.8773C132.419 29.8681 131.424 29.8977 130.43 29.8885C133.363 24.4798 136.305 19.0748 139.353 13.7329ZM136.625 23.9402C138.362 23.9643 140.1 23.9606 141.839 23.9755C140.969 22.3438 140.185 20.6657 139.252 19.0693C138.358 20.6843 137.482 22.3067 136.625 23.9402Z" fill="#AE285D"/>
<path d="M149.618 13.6699C153.945 17.4599 158.272 21.2517 162.546 25.1047C162.664 21.6281 162.531 18.1515 162.636 14.6749C163.562 14.6934 164.487 14.7083 165.412 14.725C165.383 20.0799 165.398 25.4366 165.392 30.7915C162.55 28.4089 159.819 25.8927 157.012 23.4656C155.45 22.1195 153.903 20.7585 152.41 19.3363C152.374 22.8574 152.427 26.3804 152.352 29.9015C151.432 29.9052 150.512 29.8811 149.594 29.8885C149.601 24.4817 149.555 19.0767 149.618 13.6699Z" fill="#AE285D"/>
<path d="M58.1587 29.8662C61.1484 24.4872 64.0608 19.0655 67.1186 13.7273C69.9666 19.1174 72.8312 24.5001 75.7123 29.8717C74.6875 29.8958 73.6646 29.894 72.6398 29.8736C72.018 28.6702 71.3814 27.4743 70.7871 26.2561C68.2317 26.2227 65.678 26.2505 63.1225 26.2505C62.4565 27.465 61.8549 28.7184 61.1355 29.9032C60.142 29.8754 59.1503 29.8958 58.1587 29.8662ZM64.3644 23.955C66.1103 23.9476 67.8582 23.9717 69.606 23.9661C68.7266 22.3437 67.9538 20.6638 67.01 19.0766C66.1214 20.7009 65.2438 22.327 64.3644 23.955Z" fill="#AE285D"/>
<path d="M100.704 15.1217C102.165 14.3968 103.876 14.3022 105.456 14.623C106.825 14.9141 107.926 15.8949 108.761 16.9815C108.019 17.3598 107.283 17.7436 106.555 18.1459C105.572 16.5977 103.234 16.1045 101.808 17.3115C101.052 17.8567 101.113 19.1991 101.966 19.6145C103.88 20.6769 106.207 20.905 107.903 22.3753C109.633 23.8531 109.567 26.8069 107.964 28.357C106.244 30.1147 103.519 30.4967 101.232 29.8385C99.317 29.3508 97.8765 27.5763 97.6207 25.6257C98.5462 25.4218 99.4808 25.253 100.417 25.1066C100.529 26.0207 100.874 27.0275 101.729 27.4873C103.083 28.2197 105.046 28.0362 105.981 26.7141C106.639 25.8149 106.444 24.4335 105.545 23.7753C103.665 22.5051 101.168 22.4273 99.4808 20.8271C98.5903 20.0632 98.2205 18.7875 98.5241 17.6546C98.7651 16.4994 99.7016 15.6446 100.704 15.1217Z" fill="#AE285D"/>
<path d="M76.6064 14.7804C77.657 14.6414 78.7186 14.6896 79.7746 14.7007C80.9042 16.3954 82.032 18.0902 83.1635 19.783C84.3539 18.1106 85.5111 16.414 86.6849 14.7304C87.7686 14.6951 88.8522 14.6766 89.9359 14.71C88.2175 17.1186 86.4881 19.5216 84.766 21.9283C86.5193 24.6076 88.4327 27.1813 90.1456 29.8884C89.1135 29.8939 88.0813 29.8847 87.0492 29.8754C85.7356 27.9711 84.4312 26.0595 83.1175 24.1552C81.7598 26.0669 80.3909 27.9693 79.0497 29.8921C78.0047 29.9125 76.9579 29.8976 75.9128 29.8995C77.7306 27.2146 79.644 24.5984 81.5335 21.9636C79.9089 19.5568 78.2531 17.1723 76.6064 14.7804Z" fill="#AE285D"/>
<path d="M92.4823 14.7138C93.4132 14.6859 94.3423 14.6878 95.2732 14.7082C95.2788 19.7683 95.2751 24.8284 95.2751 29.8884C94.3294 29.8903 93.3856 29.8884 92.4399 29.8884C92.4749 24.8302 92.4583 19.772 92.4823 14.7138Z" fill="#AE285D"/>
<path d="M119.645 14.7007C122.033 14.8045 124.609 14.3688 126.809 15.548C128.955 16.7051 129.45 20.1372 127.472 21.691C128.717 22.186 129.922 23.1187 130.25 24.4927C130.774 26.1781 129.849 28.0434 128.386 28.9168C125.72 30.3927 122.58 29.7048 119.686 29.905C119.596 24.8375 119.653 19.77 119.645 14.7007ZM122.416 16.8849C122.422 18.3312 122.418 19.7756 122.409 21.22C123.446 21.1774 124.596 21.2404 125.481 20.5952C126.384 19.7849 126.351 18.1068 125.354 17.3855C124.482 16.8293 123.406 16.8923 122.416 16.8849ZM122.433 23.2059C122.422 24.6799 122.427 26.1559 122.455 27.6299C123.847 27.5558 125.347 27.8154 126.631 27.12C127.77 26.5564 127.98 24.7133 126.922 23.9605C125.647 22.963 123.936 23.2374 122.433 23.2059Z" fill="#AE285D"/>
<path d="M168.628 14.7007C169.556 14.6933 170.483 14.697 171.412 14.6989C171.416 16.6977 171.394 18.6984 171.436 20.699C173.721 18.6724 176.05 16.6977 178.348 14.6877C179.617 14.6952 180.887 14.7007 182.156 14.697C179.415 16.9628 176.696 19.2528 174.002 21.5742C176.652 24.3926 179.397 27.1164 182.107 29.8754C180.848 29.8624 179.588 29.9626 178.335 29.8161C176.179 27.5985 174.037 25.3679 171.901 23.1317C171.745 23.3394 171.59 23.5471 171.438 23.7547C171.382 25.7999 171.432 27.8432 171.397 29.8884C170.464 29.8828 169.532 29.9069 168.601 29.9014C168.608 24.8357 168.621 19.7682 168.628 14.7007Z" fill="#AE285D"/>
<path d="M26.5398 29.7958C31.7428 29.7939 36.9458 29.7568 42.1487 29.844C45.247 35.2879 48.4446 40.6725 51.5152 46.1312C46.3122 46.1572 41.1111 46.1368 35.9081 46.133C32.8117 40.6706 29.5773 35.2916 26.5398 29.7958Z" fill="#AE285D"/>
</svg>
