<svg width="141" height="80" viewBox="0 0 141 80" fill="none" xmlns="http://www.w3.org/2000/svg">
<path d="M30.7154 43.6438C26.6338 54.8465 15.518 49.028 15.518 49.028C6.87711 43.774 12.9561 26.3621 12.9561 26.3621C12.9561 26.3621 19.339 26.8397 18.6877 33.3529C18.6877 33.3529 18.0798 41.6464 18.1667 42.9056C18.2535 43.8609 19.4693 48.1162 23.5943 47.4648C24.3325 47.3346 25.0272 47.0306 25.5917 46.553C26.5036 45.7714 27.7194 44.3385 27.2851 42.3411C27.0246 41.1253 26.1562 40.0832 25.0272 39.5622C24.4628 39.3016 23.8549 39.1279 23.2904 39.2148C22.9864 39.2582 22.6825 39.2148 22.422 38.9977C21.9877 38.6503 21.6838 37.9556 21.6404 37.174C31.6707 35.3069 30.672 43.6438 30.672 43.6438H30.7154Z" fill="#EB2126"/>
<path d="M22.8581 53.4995C21.0344 53.76 18.9068 53.6732 16.3883 53.0653C10.8304 51.7626 6.31456 47.5073 5.09876 41.9494C5.05534 41.6889 5.01192 41.4718 4.9685 41.2112C4.9685 41.2112 2.40664 26.6216 13.0014 26.4045C13.0014 26.4045 6.92246 43.8165 15.5633 49.0705C15.5633 49.0705 25.3331 54.2376 29.9358 45.5534C30.7608 43.9902 30.9779 42.1231 30.37 40.4731C29.5884 38.3888 27.3739 36.2178 21.7291 37.2599C21.7291 37.2599 21.1212 34.3941 26.8529 35.1322C26.8529 35.1322 32.4108 35.8704 32.845 41.4283C33.2792 47.4205 28.8068 52.7179 22.9015 53.4995H22.8581Z" fill="#FEDC00"/>
<path d="M47.4792 42.256C47.4792 44.1232 46.0029 45.2087 43.1805 45.2087H37.6226V34.4402H42.8765C45.5687 34.4402 46.9581 35.5691 46.9581 37.2192C46.9581 38.3047 46.3937 39.1297 45.5252 39.5639C46.741 39.9547 47.4792 40.8665 47.4792 42.2126V42.256ZM40.0976 36.3073V38.8257H42.5726C43.7884 38.8257 44.4397 38.3915 44.4397 37.5665C44.4397 36.7415 43.7884 36.3073 42.5726 36.3073H40.0976ZM45.0042 41.9955C45.0042 41.0837 44.3094 40.6494 43.0068 40.6494H40.0976V43.2981H43.0068C44.3094 43.2981 45.0042 42.9073 45.0042 41.9955Z" fill="#EE292A"/>
<path d="M56.5111 40.4748V45.2077H54.2532V44.1656C53.819 44.9038 52.9506 45.338 51.7348 45.338C49.7808 45.338 48.6519 44.2524 48.6519 42.8195C48.6519 41.3866 49.694 40.3445 52.2124 40.3445H54.1229C54.1229 39.3024 53.515 38.7379 52.2124 38.7379C51.344 38.7379 50.4321 39.0419 49.8242 39.5195L48.9558 37.8261C49.8677 37.1748 51.2137 36.8274 52.5164 36.8274C55.0348 36.8274 56.5111 37.9998 56.5111 40.5182V40.4748ZM54.1229 42.559V41.734H52.4729C51.344 41.734 50.9966 42.1682 50.9966 42.6893C50.9966 43.2972 51.5177 43.688 52.3427 43.688C53.1243 43.688 53.819 43.3406 54.1229 42.559V42.559Z" fill="#EE292A"/>
<path d="M56.1616 47.857L56.8129 46.1202C57.0735 46.2938 57.4208 46.4241 57.8116 46.4241C58.4195 46.4241 58.8103 46.0333 58.8103 45.2083V36.9582H61.1985V45.2083C61.1985 47.1188 60.0695 48.3346 58.0722 48.3346C57.334 48.3346 56.5958 48.2044 56.1616 47.857V47.857ZM58.5064 34.4398C58.5064 33.7016 59.1143 33.0938 59.9827 33.0938C60.8511 33.0938 61.459 33.6582 61.459 34.3964C61.459 35.178 60.8511 35.7859 59.9827 35.7859C59.1143 35.7859 58.5064 35.2214 58.5064 34.4398V34.4398Z" fill="#EE292A"/>
<path d="M70.7079 40.4748V45.2077H68.45V44.1656C68.0158 44.9038 67.1474 45.338 65.9316 45.338C63.9776 45.338 62.8486 44.2524 62.8486 42.8195C62.8486 41.3866 63.8907 40.3445 66.4092 40.3445H68.3197C68.3197 39.3024 67.7118 38.7379 66.4092 38.7379C65.5408 38.7379 64.6289 39.0419 64.021 39.5195L63.1526 37.8261C64.0644 37.1748 65.4105 36.8274 66.7131 36.8274C69.2316 36.8274 70.7079 37.9998 70.7079 40.5182V40.4748ZM68.3197 42.559V41.734H66.6697C65.5408 41.734 65.1934 42.1682 65.1934 42.6893C65.1934 43.2972 65.7144 43.688 66.5394 43.688C67.321 43.688 68.0158 43.3406 68.3197 42.559V42.559Z" fill="#EE292A"/>
<path d="M70.3623 47.857L71.0136 46.1202C71.2742 46.2938 71.6215 46.4241 72.0123 46.4241C72.6202 46.4241 73.011 46.0333 73.011 45.2083V36.9582H75.3992V45.2083C75.3992 47.1188 74.2702 48.3346 72.2728 48.3346C71.5347 48.3346 70.7965 48.2044 70.3623 47.857ZM72.7071 34.4398C72.7071 33.7016 73.315 33.0938 74.1834 33.0938C75.0518 33.0938 75.6597 33.6582 75.6597 34.3964C75.6597 35.178 75.0518 35.7859 74.1834 35.7859C73.315 35.7859 72.7071 35.2214 72.7071 34.4398V34.4398Z" fill="#EE292A"/>
<path d="M81.4341 39.824C81.4341 36.5674 83.9091 34.2661 87.2525 34.2661C89.1197 34.2661 90.6828 34.9609 91.6815 36.1767L90.0749 37.653C89.3368 36.828 88.4683 36.3938 87.3828 36.3938C85.3854 36.3938 83.9525 37.8267 83.9525 39.824C83.9525 41.8214 85.3854 43.2543 87.3828 43.2543C88.4683 43.2543 89.3802 42.8201 90.0749 41.9951L91.6815 43.4714C90.6828 44.7307 89.1197 45.382 87.2525 45.382C83.9091 45.382 81.4341 43.0806 81.4341 39.824Z" fill="#EE292A"/>
<path d="M100.454 40.4748V45.2077H98.1961V44.1656C97.7619 44.9038 96.8934 45.338 95.6776 45.338C93.7237 45.338 92.5947 44.2524 92.5947 42.8195C92.5947 41.3866 93.6368 40.3445 96.1553 40.3445H98.0658C98.0658 39.3024 97.4579 38.7379 96.1553 38.7379C95.2868 38.7379 94.375 39.0419 93.7671 39.5195L92.8987 37.8261C93.8105 37.1748 95.1566 36.8274 96.4592 36.8274C98.9777 36.8274 100.454 37.9998 100.454 40.5182V40.4748ZM98.0658 42.559V41.734H96.4158C95.2868 41.734 94.9395 42.1682 94.9395 42.6893C94.9395 43.2972 95.4605 43.688 96.2855 43.688C97.0671 43.688 97.7619 43.3406 98.0658 42.559V42.559Z" fill="#EE292A"/>
<path d="M111.611 41.0827C111.611 43.688 109.831 45.338 107.486 45.338C106.444 45.338 105.619 45.034 105.011 44.3393V48.2038H102.623V36.9577H104.924V37.9129C105.532 37.1748 106.401 36.8274 107.53 36.8274C109.831 36.8274 111.655 38.4774 111.655 41.0827H111.611ZM109.18 41.0827C109.18 39.6498 108.268 38.7813 107.095 38.7813C105.923 38.7813 105.011 39.6498 105.011 41.0827C105.011 42.5156 105.923 43.384 107.095 43.384C108.268 43.384 109.18 42.5156 109.18 41.0827Z" fill="#EE292A"/>
<path d="M112.915 34.4398C112.915 33.7016 113.522 33.0938 114.391 33.0938C115.259 33.0938 115.867 33.6582 115.867 34.3964C115.867 35.178 115.259 35.7859 114.391 35.7859C113.522 35.7859 112.915 35.2214 112.915 34.4398V34.4398ZM113.218 36.9148H115.607V45.1649H113.218V36.9148Z" fill="#EE292A"/>
<path d="M123.163 44.8175C122.685 45.1649 121.947 45.3386 121.209 45.3386C119.255 45.3386 118.126 44.3399 118.126 42.3859V38.9991H116.867V37.1754H118.126V35.178H120.514V37.1754H122.555V38.9991H120.514V42.3425C120.514 43.0372 120.905 43.428 121.556 43.428C121.904 43.428 122.251 43.3412 122.511 43.1241L123.163 44.8175V44.8175Z" fill="#EE292A"/>
<path d="M131.846 40.4748V45.2077H129.588V44.1656C129.153 44.9038 128.285 45.338 127.069 45.338C125.115 45.338 123.986 44.2524 123.986 42.8195C123.986 41.3866 125.028 40.3445 127.547 40.3445H129.457C129.457 39.3024 128.85 38.7379 127.547 38.7379C126.678 38.7379 125.767 39.0419 125.159 39.5195L124.29 37.8261C125.202 37.1748 126.548 36.8274 127.851 36.8274C130.369 36.8274 131.846 37.9998 131.846 40.5182V40.4748ZM129.457 42.559V41.734H127.807C126.678 41.734 126.331 42.1682 126.331 42.6893C126.331 43.2972 126.852 43.688 127.677 43.688C128.459 43.688 129.153 43.3406 129.457 42.559V42.559Z" fill="#EE292A"/>
<path d="M134.019 33.7891H136.407V45.2089H134.019V33.7891Z" fill="#EE292A"/>
</svg>
