<svg width="164" height="90" viewBox="0 0 164 90" fill="none" xmlns="http://www.w3.org/2000/svg">
<g clip-path="url(#clip0_3803_1344)">
<mask id="mask0_3803_1344" style="mask-type:luminance" maskUnits="userSpaceOnUse" x="0" y="0" width="164" height="90">
<path d="M0.110107 -9.91821e-05H163.43V89.5308H0.110107V-9.91821e-05Z" fill="white"/>
</mask>
<g mask="url(#mask0_3803_1344)">
<path d="M60.2784 56.809V61.7939H64.8326C65.6459 61.7939 66.2793 61.6842 66.7322 61.4637C67.5538 61.0577 67.9649 60.2801 67.9649 59.1296C67.9649 58.1579 67.5665 57.4895 66.7699 57.1257C66.3254 56.9227 65.7006 56.817 64.8951 56.809H60.2784ZM60.2784 49.5908V53.7137H64.8375C65.6519 53.7137 66.3131 53.5601 66.8212 53.2506C67.3291 52.9422 67.5835 52.3946 67.5835 51.6079C67.5835 50.7373 67.2473 50.1619 66.5758 49.8834C65.9962 49.6884 65.2575 49.5908 64.359 49.5908H60.2784ZM70.4637 48.3354C71.0372 49.1305 71.3248 50.0815 71.3248 51.1895C71.3248 52.3312 71.0347 53.2486 70.4562 53.9423C70.1321 54.3308 69.6556 54.6862 69.025 55.007C69.9826 55.355 70.7051 55.9042 71.1919 56.6571C71.6794 57.4094 71.9231 58.3225 71.9231 59.3963C71.9231 60.5041 71.6445 61.4976 71.0874 62.3773C70.7333 62.9605 70.2906 63.4512 69.7593 63.8486C69.1604 64.3051 68.4538 64.6181 67.6397 64.7867C66.8258 64.9564 65.942 65.0408 64.989 65.0408H56.5371V46.3442H65.6021C67.8891 46.3781 69.5099 47.0413 70.4637 48.3354Z" fill="#3A4682"/>
<path d="M78.0893 65.0408H74.1957V46.3442H78.0893V65.0408Z" fill="#3A4682"/>
<path d="M80.9729 46.3442H84.8925V61.6802H94.2588V65.0408H80.9729V46.3442Z" fill="#3A4682"/>
<path d="M96.111 46.3442H100.031V61.6802H109.397V65.0408H96.111V46.3442Z" fill="#3A4682"/>
<path d="M120.852 50.2127C120.355 49.7986 119.66 49.591 118.765 49.591H115.233V55.0962H118.765C119.66 55.0962 120.355 54.8725 120.852 54.4237C121.348 53.9761 121.596 53.2657 121.596 52.2926C121.596 51.321 121.348 50.6273 120.852 50.2127ZM123.844 56.9479C122.746 57.8616 121.177 58.3181 119.14 58.3181H115.233V65.041H111.34V46.3441H119.393C121.25 46.3441 122.731 46.8262 123.834 47.7898C124.939 48.7537 125.491 50.2465 125.491 52.268C125.491 54.4754 124.942 56.0346 123.844 56.9479Z" fill="#3A4682"/>
<path d="M131.036 57.9759H135.841L133.471 50.619L131.036 57.9759ZM131.295 46.3439H135.73L142.366 65.0405H138.116L136.878 61.1976H129.97L128.699 65.0405H124.598L131.295 46.3439Z" fill="#3A4682"/>
<path d="M152.281 46.3442H156.723L150.448 58.0304V65.0408H146.528V58.0304L140.038 46.3442H144.657L148.553 54.4875L152.281 46.3442Z" fill="#3A4682"/>
<path d="M65.0755 40.213C65.4785 40.213 65.8634 40.1739 66.2319 40.0953C66.5994 40.0166 66.923 39.8862 67.2038 39.7022C67.4841 39.5193 67.7068 39.2701 67.8728 38.9562C68.0395 38.6415 68.1231 38.2407 68.1231 37.7514C68.1231 36.7915 67.8511 36.1062 67.3087 35.6956C66.7654 35.2861 66.0478 35.0805 65.1539 35.0805H60.6613V40.213H65.0755ZM64.8384 32.2784C65.5745 32.2784 66.1789 32.1041 66.6516 31.7547C67.1243 31.4058 67.3614 30.8381 67.3614 30.0528C67.3614 29.6167 67.2828 29.2583 67.1243 28.979C66.967 28.6999 66.7567 28.4814 66.4943 28.3243C66.2319 28.1675 65.9288 28.0584 65.588 27.997C65.2466 27.9361 64.8909 27.9054 64.5238 27.9054H60.6613V32.2784H64.8384ZM65.3647 24.7108C66.2581 24.7108 67.0722 24.7894 67.8074 24.9462C68.5431 25.1038 69.1743 25.3611 69.6992 25.7189C70.2249 26.0772 70.6323 26.5524 70.9209 27.1459C71.2107 27.7394 71.355 28.4733 71.355 29.3453C71.355 30.2883 71.1401 31.0739 70.7106 31.7024C70.2817 32.3307 69.6465 32.8461 68.8061 33.2475C69.9619 33.5791 70.8247 34.1597 71.3942 34.9889C71.9629 35.8184 72.2478 36.818 72.2478 37.9874C72.2478 38.9298 72.064 39.7464 71.6961 40.4358C71.3283 41.1255 70.8333 41.6889 70.2122 42.1244C69.5897 42.5615 68.8805 42.8839 68.083 43.0938C67.2862 43.3034 66.4681 43.4082 65.6272 43.4082H56.5369V24.7108H65.3647Z" fill="#3A4682"/>
<path d="M78.1068 24.7105V31.8851H85.6994V24.7105H89.8238V43.408H85.6994V35.3419H78.1068V43.408H73.9812V24.7105H78.1068Z" fill="#3A4682"/>
<path d="M102.514 36.18L100.15 29.3193H100.097L97.6534 36.18H102.514ZM102.278 24.7105L109.292 43.408H105.01L103.591 39.2437H96.5762L95.1059 43.408H90.9541L98.048 24.7105H102.278Z" fill="#3A4682"/>
<path d="M119.04 33.1688C119.985 33.1688 120.695 32.9595 121.168 32.5406C121.641 32.1216 121.878 31.4403 121.878 30.4976C121.878 29.5903 121.641 28.931 121.168 28.521C120.695 28.1104 119.985 27.9051 119.04 27.9051H114.521V33.1688H119.04ZM120.51 24.7105C121.352 24.7105 122.109 24.8457 122.784 25.1165C123.458 25.3872 124.036 25.7579 124.518 26.2297C124.999 26.7009 125.367 27.2461 125.621 27.8658C125.875 28.486 126.002 29.1535 126.002 29.8694C126.002 30.9688 125.77 31.9206 125.306 32.7232C124.842 33.5271 124.084 34.1376 123.034 34.5568V34.6093C123.541 34.7489 123.962 34.9628 124.294 35.2505C124.627 35.5388 124.899 35.879 125.109 36.2715C125.319 36.6646 125.472 37.0968 125.568 37.5679C125.664 38.0397 125.73 38.5109 125.766 38.9821C125.783 39.2792 125.801 39.6281 125.818 40.0301C125.836 40.4312 125.866 40.8418 125.91 41.2602C125.954 41.6794 126.024 42.0765 126.12 42.4518C126.217 42.8273 126.361 43.1455 126.554 43.4082H122.429C122.202 42.8144 122.061 42.1075 122.009 41.2863C121.956 40.4663 121.878 39.6807 121.772 38.9295C121.631 37.9524 121.334 37.2369 120.879 36.7823C120.423 36.329 119.678 36.1013 118.646 36.1013H114.521V43.4082H110.396V24.7105H120.51Z" fill="#3A4682"/>
<path d="M138.429 36.18L136.064 29.3193H136.011L133.568 36.18H138.429ZM138.193 24.7105L145.207 43.408H140.924L139.506 39.2437H132.491L131.019 43.408H126.868L133.962 24.7105H138.193Z" fill="#3A4682"/>
<path d="M142.422 28.1673V24.7105H157.792V28.1673H152.169V43.408H148.045V28.1673H142.422Z" fill="#3A4682"/>
<path d="M16.4268 30.8056H23.8652C24.7004 30.8056 25.5053 30.8751 26.279 31.0144C27.054 31.1534 27.7399 31.4003 28.3356 31.7558C28.9322 32.1124 29.4081 32.6077 29.7659 33.2414C30.1232 33.8739 30.3026 34.6868 30.3026 35.6754C30.3026 37.4596 29.7659 38.7469 28.694 39.5388C31.4544 40.0697 33.5012 40.6365 35.6681 41.6785C36.5747 41.0152 37.3234 40.2649 37.9013 39.4196C38.8741 37.9926 39.361 36.2115 39.361 34.0718C39.361 32.0929 39.0331 30.4309 38.3783 29.0826C37.7218 27.7374 36.7991 26.6583 35.6062 25.8454C34.415 25.0354 32.9841 24.4503 31.3158 24.0937C29.6467 23.7379 27.7989 23.5587 25.7723 23.5587H16.4268V30.8056Z" fill="#F9B73F"/>
<path d="M31.4646 55.8729C31.0867 56.5876 30.5799 57.1524 29.9447 57.5667C29.3086 57.9831 28.5743 58.2785 27.7398 58.4583C26.9049 58.6348 26.03 58.7244 25.1171 58.7244H15.1043V47.0818H25.2954C27.3226 47.0818 28.9511 47.5495 30.1835 48.4778C31.4145 49.4084 32.0295 50.963 32.0295 53.1417C32.0295 54.2503 31.8426 55.1603 31.4646 55.8729ZM24.5807 40.7264H15.1043V30.8057H15.1087V23.5588H5.74756V65.9719H26.3694C28.2764 65.9719 30.132 65.7356 31.942 65.259C33.7496 64.7849 35.358 64.0516 36.7687 63.0618C38.1783 62.0724 39.3021 60.7949 40.1369 59.2309C40.9709 57.6658 41.3875 55.8138 41.3875 53.6749C41.3875 51.0241 40.6921 48.79 39.4507 46.8736C37.0528 43.1728 31.8532 40.7264 24.5807 40.7264Z" fill="#F17F36"/>
<path d="M48.9818 69.8943C48.6902 69.8943 48.4537 69.6588 48.4537 69.368V20.1628C48.4537 19.8722 48.6902 19.6367 48.9818 19.6367C49.2733 19.6367 49.5098 19.8722 49.5098 20.1628V69.368C49.5098 69.6588 49.2733 69.8943 48.9818 69.8943Z" fill="#7C7F81"/>
</g>
</g>
<defs>
<clipPath id="clip0_3803_1344">
<rect width="163.32" height="89.5309" fill="white" transform="translate(0.110229)"/>
</clipPath>
</defs>
</svg>
