<svg width="70" height="71" viewBox="0 0 70 71" fill="none" xmlns="http://www.w3.org/2000/svg">
<path d="M10.8611 45.2102V4.60799L13.5651 1.90536L16.2076 4.60799L18.8501 1.90536L21.4927 4.60799L24.1352 1.90536L26.7777 4.60799L29.4203 1.90536L32.0628 4.60799L34.7053 1.90536L37.3479 4.60799L39.9904 1.90536L42.6329 4.60799L45.2755 1.90536L47.918 4.60799L50.5605 1.90536L53.2031 4.60799L56.2758 1.90536L58.9798 4.60799V65.26C58.9798 67.2712 60.5776 68.9054 62.5441 68.9054C64.5107 68.9054 66.1085 67.2712 66.1085 65.26V5.99073H62.5441V64.5057" stroke="#1D1D1D" stroke-width="1.5" stroke-miterlimit="10" stroke-linecap="round" stroke-linejoin="round"/>
<path d="M46.4764 21.578H22.5707C20.0511 21.578 18.0845 19.5039 18.0845 16.9899C18.0845 14.4129 20.1125 12.4017 22.5707 12.4017H46.4764C48.996 12.4017 50.9626 14.4758 50.9626 16.9899C51.024 19.5039 48.996 21.578 46.4764 21.578Z" fill="#1D1D1D"/>
<path d="M41.7527 17.9954H27.3083C26.7551 17.9954 26.3248 17.5554 26.3248 16.9897C26.3248 16.4241 26.7551 15.9841 27.3083 15.9841H41.7527C42.3059 15.9841 42.7362 16.4241 42.7362 16.9897C42.7362 17.4925 42.3059 17.9954 41.7527 17.9954Z" fill="white"/>
<g opacity="0.5">
<path opacity="0.5" d="M3.89185 51.7463H21.9013" stroke="#1D1D1D" stroke-width="1.5" stroke-miterlimit="10" stroke-linecap="round" stroke-linejoin="round"/>
<path opacity="0.5" d="M3.89185 56.4599H21.9013" stroke="#1D1D1D" stroke-width="1.5" stroke-miterlimit="10" stroke-linecap="round" stroke-linejoin="round"/>
<path opacity="0.5" d="M3.89185 61.2365H12.8044" stroke="#1D1D1D" stroke-width="1.5" stroke-miterlimit="10" stroke-linecap="round" stroke-linejoin="round"/>
<path opacity="0.5" d="M18.3237 61.2365H21.8887" stroke="#1D1D1D" stroke-width="1.5" stroke-miterlimit="10" stroke-linecap="round" stroke-linejoin="round"/>
</g>
<path opacity="0.5" d="M34.9914 54.6379V62.3059" stroke="#1D1D1D" stroke-width="1.5" stroke-miterlimit="10" stroke-linecap="round" stroke-linejoin="round"/>
<path opacity="0.5" d="M39.8519 52.4386V62.3063" stroke="#1D1D1D" stroke-width="1.5" stroke-miterlimit="10" stroke-linecap="round" stroke-linejoin="round"/>
<path opacity="0.5" d="M44.7798 54.0726V62.3062" stroke="#1D1D1D" stroke-width="1.5" stroke-miterlimit="10" stroke-linecap="round" stroke-linejoin="round"/>
<path opacity="0.5" d="M49.6852 49.1066V62.3055" stroke="#1D1D1D" stroke-width="1.5" stroke-miterlimit="10" stroke-linecap="round" stroke-linejoin="round"/>
<path d="M32.6735 51.7462L41.0328 45.2096L43.9831 48.7922L51.2976 42.4442" stroke="#1D1D1D" stroke-width="1.5" stroke-miterlimit="10" stroke-linecap="round" stroke-linejoin="round"/>
<path d="M62.475 68.9051H17.6133" stroke="#1D1D1D" stroke-width="1.68856" stroke-miterlimit="10" stroke-linecap="round" stroke-linejoin="round"/>
</svg>
