<svg width="70" height="71" viewBox="0 0 70 71" fill="none" xmlns="http://www.w3.org/2000/svg">
<path d="M57.4729 6.54428H12.5204C10.8108 6.54428 9.45312 7.95219 9.45312 9.61151V21.3776C9.45312 23.0872 10.861 24.4448 12.5204 24.4448H15.0848V29.4731L22.9791 24.4448H29.8175L34.9966 29.6742L40.1757 24.4951H47.0141L54.9085 29.5234V24.4951H57.4729C59.1825 24.4951 60.5401 23.0872 60.5401 21.4279V9.61151C60.5401 7.95219 59.1825 6.54428 57.4729 6.54428Z" fill="#1D1D1D"/>
<path d="M58.3239 43.8542C58.5251 43.2508 58.6256 42.5468 58.6256 41.8932C58.6256 38.5745 56.2624 36.1107 53.346 36.1107C50.4296 36.1107 48.0663 38.5745 48.0663 41.8932C48.0663 42.5971 48.1669 43.2508 48.368 43.8542C47.9658 44.1056 47.6641 44.6084 47.6641 45.1615C47.6641 45.8655 48.1166 46.4689 48.7703 46.67C49.5245 48.9327 51.2844 50.5418 53.346 50.5418C55.4076 50.5418 57.1675 48.9327 57.9217 46.67C58.5754 46.4689 59.0279 45.9158 59.0279 45.1615C58.9776 44.6084 58.7262 44.1559 58.3239 43.8542Z" stroke="#1D1D1D" stroke-width="1.5" stroke-miterlimit="10" stroke-linecap="round" stroke-linejoin="round"/>
<path d="M55.9085 40.9376L55.6571 39.6302C55.6571 39.6302 55.104 39.6302 54.1989 40.4347C52.3384 42.1443 50.2266 40.7867 50.2266 40.7867" stroke="#1D1D1D" stroke-width="1.5" stroke-miterlimit="10" stroke-linecap="round" stroke-linejoin="round"/>
<path d="M57.9219 53.4583L62.9501 55.5702C63.9055 56.0227 64.2575 56.9781 64.2575 57.9335V58.1346V61.5538" stroke="#1D1D1D" stroke-width="1.5" stroke-miterlimit="10" stroke-linecap="round" stroke-linejoin="round"/>
<path d="M53.3984 54.2117L55.3092 56.4241L57.9239 53.558L56.8176 51.597" stroke="#1D1D1D" stroke-width="1.5" stroke-miterlimit="10" stroke-linecap="round" stroke-linejoin="round"/>
<path d="M48.821 53.4583L43.8933 55.4696C43.5916 55.6708 43.3402 55.9222 43.0888 56.2239C42.7368 56.6764 42.5859 57.2295 42.5859 57.8329V61.5538" stroke="#1D1D1D" stroke-width="1.5" stroke-miterlimit="10" stroke-linecap="round" stroke-linejoin="round"/>
<path d="M53.396 54.2117L51.435 56.4241L48.8203 53.558L49.9265 51.597" stroke="#1D1D1D" stroke-width="1.5" stroke-miterlimit="10" stroke-linecap="round" stroke-linejoin="round"/>
<path d="M56.8176 51.597L53.3984 54.2117" stroke="#1D1D1D" stroke-width="1.5" stroke-miterlimit="10" stroke-linecap="round" stroke-linejoin="round"/>
<path d="M49.9219 51.597L53.3914 54.2117" stroke="#1D1D1D" stroke-width="1.5" stroke-miterlimit="10" stroke-linecap="round" stroke-linejoin="round"/>
<path d="M64.2621 61.554C61.1949 63.2636 57.474 64.2693 53.4514 64.2693C49.4288 64.2693 45.7079 63.2636 42.6406 61.554" stroke="#1D1D1D" stroke-width="1.5" stroke-miterlimit="10" stroke-linecap="round" stroke-linejoin="round"/>
<path d="M39.8708 40.5339C40.072 39.9305 40.1725 39.2265 40.1725 38.5729C40.1725 35.2542 37.8092 32.7904 34.8929 32.7904C31.9765 32.7904 29.6132 35.2542 29.6132 38.5729C29.6132 39.2768 29.7138 39.9305 29.9149 40.5339C29.5126 40.7853 29.2109 41.2881 29.2109 41.8412C29.2109 42.5452 29.6635 43.1486 30.3172 43.3497C31.0714 45.6124 32.8313 47.2214 34.8929 47.2214C36.9544 47.2214 38.7143 45.6124 39.4686 43.3497C40.1222 43.1486 40.5748 42.5955 40.5748 41.8412C40.5748 41.2881 40.2731 40.7853 39.8708 40.5339Z" stroke="#1D1D1D" stroke-width="1.5" stroke-miterlimit="10" stroke-linecap="round" stroke-linejoin="round"/>
<path d="M37.51 37.6172L37.2586 36.3099C37.2586 36.3099 36.7055 36.3099 35.8004 37.1144C33.94 38.824 31.8281 37.4664 31.8281 37.4664" stroke="#1D1D1D" stroke-width="1.5" stroke-miterlimit="10" stroke-linecap="round" stroke-linejoin="round"/>
<path d="M39.4688 50.138L44.497 52.2499C45.4524 52.7024 45.8043 53.6578 45.8043 54.6132" stroke="#1D1D1D" stroke-width="1.5" stroke-miterlimit="10" stroke-linecap="round" stroke-linejoin="round"/>
<path d="M34.9453 50.8914L36.9063 53.0535L39.521 50.2377L38.3645 48.2767" stroke="#1D1D1D" stroke-width="1.5" stroke-miterlimit="10" stroke-linecap="round" stroke-linejoin="round"/>
<path d="M30.4225 50.138L25.4948 52.1493C25.1931 52.3505 24.9417 52.6019 24.6903 52.9036C24.3383 53.3561 24.1875 53.9092 24.1875 54.5126" stroke="#1D1D1D" stroke-width="1.5" stroke-miterlimit="10" stroke-linecap="round" stroke-linejoin="round"/>
<path d="M34.9429 50.8914L32.9819 53.0535L30.3672 50.2377L31.5237 48.2767" stroke="#1D1D1D" stroke-width="1.5" stroke-miterlimit="10" stroke-linecap="round" stroke-linejoin="round"/>
<path d="M38.3645 48.2767L34.9453 50.8914" stroke="#1D1D1D" stroke-width="1.5" stroke-miterlimit="10" stroke-linecap="round" stroke-linejoin="round"/>
<path d="M31.5234 48.2767L34.9426 50.8914" stroke="#1D1D1D" stroke-width="1.5" stroke-miterlimit="10" stroke-linecap="round" stroke-linejoin="round"/>
<path d="M42.6408 59.6414C40.3278 60.446 37.7132 60.8985 34.9979 60.8985C32.2324 60.8985 29.668 60.446 27.3047 59.5912" stroke="#1D1D1D" stroke-width="1.5" stroke-miterlimit="10" stroke-linecap="round" stroke-linejoin="round"/>
<path d="M21.4177 43.8542C21.6188 43.2508 21.7194 42.5468 21.7194 41.8932C21.7194 38.5745 19.3561 36.1107 16.4397 36.1107C13.5233 36.1107 11.1601 38.5745 11.1601 41.8932C11.1601 42.5971 11.2606 43.2508 11.4618 43.8542C11.0595 44.1056 10.7578 44.6084 10.7578 45.1615C10.7578 45.8655 11.2104 46.4689 11.864 46.67C12.6183 48.9327 14.3782 50.5418 16.4397 50.5418C18.5013 50.5418 20.2612 48.9327 21.0154 46.67C21.6691 46.4689 22.1217 45.9158 22.1217 45.1615C22.1217 44.6084 21.82 44.1559 21.4177 43.8542Z" stroke="#1D1D1D" stroke-width="1.5" stroke-miterlimit="10" stroke-linecap="round" stroke-linejoin="round"/>
<path d="M19.0569 40.9376L18.8055 39.6302C18.8055 39.6302 18.2524 39.6302 17.3473 40.4347C15.4869 42.1443 13.375 40.7867 13.375 40.7867" stroke="#1D1D1D" stroke-width="1.5" stroke-miterlimit="10" stroke-linecap="round" stroke-linejoin="round"/>
<path d="M21.0234 53.4583L26.0517 55.5702C27.0071 56.0228 27.359 56.9781 27.359 57.9335V58.1346V61.5538" stroke="#1D1D1D" stroke-width="1.5" stroke-miterlimit="10" stroke-linecap="round" stroke-linejoin="round"/>
<path d="M16.4922 54.2117L18.4532 56.4241L21.0679 53.558L19.9617 51.597" stroke="#1D1D1D" stroke-width="1.5" stroke-miterlimit="10" stroke-linecap="round" stroke-linejoin="round"/>
<path d="M11.9694 53.4583L7.04172 55.4696C6.74002 55.6708 6.48861 55.9222 6.2372 56.2239C5.88522 56.6764 5.73438 57.2295 5.73438 57.8329V61.5538" stroke="#1D1D1D" stroke-width="1.5" stroke-miterlimit="10" stroke-linecap="round" stroke-linejoin="round"/>
<path d="M16.4942 54.2117L14.5834 56.4241L11.9688 53.558L13.075 51.597" stroke="#1D1D1D" stroke-width="1.5" stroke-miterlimit="10" stroke-linecap="round" stroke-linejoin="round"/>
<path d="M19.9617 51.597L16.4922 54.2117" stroke="#1D1D1D" stroke-width="1.5" stroke-miterlimit="10" stroke-linecap="round" stroke-linejoin="round"/>
<path d="M13.0703 51.597L16.4895 54.2117" stroke="#1D1D1D" stroke-width="1.5" stroke-miterlimit="10" stroke-linecap="round" stroke-linejoin="round"/>
<path d="M27.3558 61.554C24.2886 63.2636 20.5677 64.2693 16.5451 64.2693C12.5225 64.2693 8.80161 63.2636 5.73438 61.554" stroke="#1D1D1D" stroke-width="1.5" stroke-miterlimit="10" stroke-linecap="round" stroke-linejoin="round"/>
<path d="M35.1941 9.81186L29.5625 18.209H34.7416L34.0376 23.8407L40.4235 15.2926H34.7416L35.1941 9.81186Z" stroke="white" stroke-width="1.5" stroke-miterlimit="10" stroke-linecap="round" stroke-linejoin="round"/>
<g opacity="0.5">
<g opacity="0.7">
<path opacity="0.5" d="M45.8594 12.5775H53.452" stroke="white" stroke-width="1.33608" stroke-miterlimit="10" stroke-linecap="round" stroke-linejoin="round"/>
<path opacity="0.5" d="M45.8594 15.8958H53.452" stroke="white" stroke-width="1.33608" stroke-miterlimit="10" stroke-linecap="round" stroke-linejoin="round"/>
<path opacity="0.5" d="M45.8594 19.2142H48.9769" stroke="white" stroke-width="1.33608" stroke-miterlimit="10" stroke-linecap="round" stroke-linejoin="round"/>
</g>
<g opacity="0.7">
<path opacity="0.5" d="M16.5391 12.5775H24.1317" stroke="white" stroke-width="1.33608" stroke-miterlimit="10" stroke-linecap="round" stroke-linejoin="round"/>
<path opacity="0.5" d="M16.5391 15.8958H24.1317" stroke="white" stroke-width="1.33608" stroke-miterlimit="10" stroke-linecap="round" stroke-linejoin="round"/>
<path opacity="0.5" d="M16.5391 19.2142H19.6566" stroke="white" stroke-width="1.33608" stroke-miterlimit="10" stroke-linecap="round" stroke-linejoin="round"/>
</g>
</g>
</svg>
