<svg width="70" height="71" viewBox="0 0 70 71" fill="none" xmlns="http://www.w3.org/2000/svg">
<path d="M48.442 32.0942C53.6221 32.0942 57.8214 27.8949 57.8214 22.7148C57.8214 17.5347 53.6221 13.3353 48.442 13.3353C43.2618 13.3353 39.0625 17.5347 39.0625 22.7148C39.0625 27.8949 43.2618 32.0942 48.442 32.0942Z" fill="#1D1D1D"/>
<path d="M48.442 28.0942C51.4129 28.0942 53.8214 25.6858 53.8214 22.7148C53.8214 19.7438 51.4129 17.3353 48.442 17.3353C45.471 17.3353 43.0625 19.7438 43.0625 22.7148C43.0625 25.6858 45.471 28.0942 48.442 28.0942Z" stroke="white" stroke-width="1.5"/>
<path d="M25.4158 25.6287C20.0405 24.7511 14.336 26.3966 10.1673 30.5653C8.52182 32.2108 7.31511 34.0757 6.4375 36.0503C10.277 35.3373 14.7199 35.2276 19.492 35.8309C21.0278 32.3205 23.0024 28.8649 25.4158 25.6287Z" stroke="#1D1D1D" stroke-width="1.5" stroke-miterlimit="10" stroke-linecap="round" stroke-linejoin="round"/>
<path d="M35.236 60.8424C35.1812 61.1167 34.9069 63.0365 34.8521 63.2559C34.7972 63.585 34.7424 63.9689 34.6875 64.298C36.6621 63.4204 38.5819 62.2137 40.1726 60.5682C44.3412 56.3995 45.9867 50.7499 45.1091 45.3197C41.8181 47.7331 38.4173 49.7078 34.9069 51.1887C35.236 53.7667 35.3457 56.235 35.2909 58.5936" stroke="#1D1D1D" stroke-width="1.5" stroke-miterlimit="10" stroke-linecap="round" stroke-linejoin="round"/>
<path d="M30.6719 42.9623C33.3047 45.3757 36.1021 47.3503 39.1189 49.0507" stroke="#1D1D1D" stroke-width="1.5" stroke-miterlimit="10" stroke-linecap="round" stroke-linejoin="round"/>
<path d="M21.6797 31.5541C23.3252 34.516 25.3547 37.3682 27.7681 40.0011" stroke="#1D1D1D" stroke-width="1.45746" stroke-miterlimit="10" stroke-linecap="round" stroke-linejoin="round"/>
<path d="M20.7499 49.9841C19.9271 49.1613 19.9271 47.8449 20.7499 47.0221L31.72 36.052C32.5428 35.2292 33.8592 35.2292 34.6819 36.052C35.5047 36.8748 35.5047 38.1912 34.6819 39.0139L23.7118 49.9841C22.8891 50.8068 21.5726 50.8068 20.7499 49.9841Z" stroke="#1D1D1D" stroke-width="1.5" stroke-miterlimit="10" stroke-linecap="round" stroke-linejoin="round"/>
<path d="M27.7199 45.9245C29.9688 47.954 32.3274 49.7092 34.7957 51.2451C40.7744 48.6671 46.5886 44.7727 51.7445 39.6167C62.3307 29.0305 67.6512 15.5373 67.1575 3.52501C55.1453 3.03135 41.7069 8.35186 31.0658 18.938C25.9099 24.094 22.0703 29.9082 19.4375 35.8869C20.9733 38.3552 22.7285 40.7686 24.758 42.9626" stroke="#1D1D1D" stroke-width="1.5" stroke-miterlimit="10" stroke-linecap="round" stroke-linejoin="round"/>
<path d="M54.1016 5.16931C55.5277 7.52789 57.1732 9.66706 59.1478 11.5868C61.1224 13.5615 63.2616 15.207 65.5653 16.5782" stroke="#1D1D1D" stroke-width="1.5" stroke-miterlimit="10" stroke-linecap="round" stroke-linejoin="round"/>
<path d="M32.7118 53.9866C30.8469 52.8348 28.9819 51.4635 27.1719 49.9277L25.3618 51.7378C23.6614 53.4381 20.864 53.4381 19.1637 51.7378C17.4633 50.0374 17.4633 47.24 19.1637 45.5396L20.9737 43.7296C19.3831 41.8646 17.957 39.89 16.6954 37.9154C15.1047 38.793 13.514 39.9449 12.0879 41.4258C7.97413 45.5396 6.05436 50.7505 6.82227 54.6448C7.64503 54.8094 8.52264 54.8643 9.4551 54.8094C8.68719 57.2777 8.52264 59.6363 8.96145 61.7206C11.0458 62.1594 13.4592 61.94 15.8726 61.2269C15.8178 62.1594 15.8178 63.037 16.0372 63.8598C19.9316 64.6825 25.1424 62.7627 29.2562 58.5941C30.6823 57.2228 31.8342 55.6322 32.7118 53.9866Z" stroke="#979797" stroke-width="1.5" stroke-miterlimit="10" stroke-linecap="round" stroke-linejoin="round"/>
<path d="M11.0425 38.5756L7.25781 42.3603" stroke="#1D1D1D" stroke-width="1.5" stroke-miterlimit="10" stroke-linecap="round" stroke-linejoin="round"/>
<path d="M5.11963 40.2748L4.29688 41.0975" stroke="#1D1D1D" stroke-width="1.5" stroke-miterlimit="10" stroke-linecap="round" stroke-linejoin="round"/>
<path d="M38.032 56.9935L29.9141 65.1663" stroke="#1D1D1D" stroke-width="1.5" stroke-miterlimit="10" stroke-linecap="round" stroke-linejoin="round"/>
</svg>
