<svg width="141" height="80" viewBox="0 0 141 80" fill="none" xmlns="http://www.w3.org/2000/svg">
<path fill-rule="evenodd" clip-rule="evenodd" d="M122.186 47.5767C122.186 48.6492 121.793 49.472 121.007 50.0453C120.313 50.584 119.428 50.8509 118.351 50.8509C116.104 50.8509 114.98 50.4802 114.98 49.7414V48.103C114.98 47.678 115.099 47.4655 115.336 47.4655C115.356 47.4655 115.393 47.4927 115.442 47.547C115.642 47.9745 116.025 48.5923 116.589 49.4078C117.026 49.8526 117.542 50.075 118.14 50.075C118.743 50.075 119.255 49.9069 119.682 49.5733C120.107 49.2422 120.322 48.7776 120.322 48.1871C120.322 47.5026 119.875 46.8724 118.981 46.2991C118.14 45.8173 117.31 45.3354 116.487 44.8535C115.593 44.1888 115.145 43.3931 115.145 42.4664C115.145 40.3191 116.579 39.2466 119.445 39.2466C120.268 39.2466 120.812 39.385 121.076 39.6617C121.341 39.941 121.474 40.5044 121.474 41.3569C121.474 41.9475 121.39 42.244 121.227 42.244C121.044 42.244 120.854 42.0513 120.651 41.6609C120.377 41.1444 120.149 40.791 119.967 40.6057C119.601 40.2177 119.117 40.0225 118.514 40.0225C118.002 40.0225 117.58 40.1807 117.241 40.4945C116.902 40.8108 116.734 41.2259 116.734 41.7449C116.734 42.3379 117.199 42.9483 118.131 43.576C119.008 44.132 119.885 44.688 120.76 45.244C121.711 45.9655 122.186 46.7415 122.186 47.5767ZM113.584 40.4945C113.584 41.347 113.117 41.7721 112.188 41.7721C111.968 41.7721 111.661 41.6658 111.268 41.4533C110.875 41.2408 110.569 41.1345 110.352 41.1345C109.511 41.1345 109.091 41.7177 109.091 42.8841V48.4366C109.091 49.0272 109.329 49.4177 109.803 49.603C109.986 49.6771 110.416 49.7315 111.09 49.7686C111.565 49.8056 111.802 49.9341 111.802 50.1565C111.802 50.3616 111.592 50.4629 111.172 50.4629H106.131C105.731 50.4629 105.53 50.3517 105.53 50.1293L105.721 49.7957C106.378 49.6475 106.798 49.4251 106.981 49.131C107.147 48.8888 107.228 48.4095 107.228 47.6854V43.1336C107.228 42.4862 107.05 41.9945 106.694 41.6609C106.338 41.3297 106.161 41.1444 106.161 41.1073C107.001 40.3289 107.858 39.5604 108.735 38.8018C108.953 38.8018 109.072 38.997 109.091 39.385C109.091 39.0143 109.091 39.2837 109.091 40.1906C109.091 40.3932 109.163 40.5612 109.311 40.6897C109.329 40.6897 109.652 40.45 110.287 39.9682C110.927 39.4863 111.498 39.2466 112.005 39.2466C113.057 39.2466 113.584 39.6617 113.584 40.4945ZM105.31 44.9919C105.31 46.697 104.829 48.0833 103.86 49.1582C102.872 50.2875 101.549 50.8509 99.8864 50.8509C98.2061 50.8509 96.8964 50.3246 95.9549 49.2694C95.0159 48.2142 94.5464 46.8255 94.5464 45.1031C94.5464 43.4005 95.0332 41.9994 96.0093 40.8973C96.9878 39.7976 98.3074 39.2466 99.968 39.2466C101.448 39.2466 102.708 39.8248 103.749 40.9813C104.792 42.1378 105.31 43.4747 105.31 44.9919ZM103.23 44.9375C103.23 43.8083 102.956 42.7358 102.407 41.7177C101.769 40.5143 100.947 39.9138 99.9408 39.9138C98.7719 39.9138 97.8972 40.5316 97.3115 41.7721C96.8544 42.7358 96.627 43.8824 96.627 45.2143C96.627 46.3263 96.9013 47.3815 97.4499 48.3798C98.0875 49.5832 98.9103 50.1862 99.9136 50.1862C101.065 50.1862 101.942 49.5733 102.545 48.3526C103 47.3914 103.23 46.2522 103.23 44.9375ZM93.7284 40.3561C93.7284 40.8751 93.2713 41.1345 92.3594 41.1345C92.0851 41.1345 91.7293 41.1098 91.2894 41.0653C90.8521 41.0184 90.5876 40.9961 90.4962 40.9961C90.1107 40.9961 89.8735 41.0727 89.7821 41.2309C89.6906 41.389 89.6462 41.6806 89.6462 42.1057C89.6462 42.716 89.6313 43.618 89.6041 44.814C89.577 46.0075 89.5646 46.9095 89.5646 47.5199C89.5646 48.7406 90.1947 49.3509 91.455 49.3509C91.6552 49.3509 91.9418 49.3015 92.3174 49.2002C92.6906 49.0964 92.9698 49.047 93.1527 49.047L93.4541 49.3238C93.4541 49.7142 93.076 50.028 92.3125 50.2677C91.7194 50.4728 91.1758 50.5741 90.6865 50.5741C88.6972 50.5741 87.7014 49.6104 87.7014 47.6854C87.7014 47.0207 87.7014 46.0125 87.7014 44.6608C87.7014 43.3091 87.7014 42.3009 87.7014 41.6337C87.7014 41.263 87.2986 41.1073 86.4955 41.1617L86.2756 40.9393C86.2953 40.8108 86.5968 40.5612 87.18 40.1906C87.8373 39.7828 88.203 39.5431 88.2772 39.469C88.2945 39.4492 88.4946 39.1453 88.8801 38.5522C89.2088 38.0703 89.4188 37.8306 89.5078 37.8306C89.6733 37.8306 89.7821 37.9221 89.8389 38.1074C89.8735 38.2186 89.8834 38.4039 89.8661 38.6634C89.829 38.997 89.8117 39.1527 89.8117 39.1354C89.8117 39.5431 90.1206 39.7458 90.7409 39.7458C90.9237 39.7458 91.198 39.7235 91.5637 39.6766C91.9295 39.6296 92.1568 39.6074 92.2482 39.6074C93.2342 39.6074 93.7284 39.857 93.7284 40.3561ZM85.5911 50.1565C85.5911 50.3616 85.3637 50.4629 84.9066 50.4629H80.5253C80.1769 50.4629 80.0039 50.3616 80.0039 50.1565C80.0039 49.991 80.1769 49.8699 80.5253 49.7957C80.9998 49.6845 81.3284 49.5733 81.5113 49.4621C81.8399 49.2051 82.003 48.7875 82.003 48.2142V42.2169C82.003 41.866 81.7831 41.6337 81.3457 41.5225C80.9083 41.4113 80.6884 41.2828 80.6884 41.1345C80.6884 41.0233 80.9083 40.8849 81.3457 40.7169C81.62 40.5884 81.8844 40.4673 82.1414 40.3561C82.176 40.3388 82.7246 39.9682 83.7847 39.2466L83.9774 39.4393C83.9774 39.6074 83.9577 39.8471 83.9206 40.1609C83.8835 40.4772 83.8662 40.7169 83.8662 40.8849V48.7406C83.8662 49.2595 84.1529 49.5931 84.7287 49.7414C85.3044 49.8896 85.5911 50.028 85.5911 50.1565ZM78.9982 49.9341C78.9438 50.3419 77.9208 50.6483 75.9241 50.8509L75.4373 50.4901V49.8229L75.2989 49.603C74.4637 50.2134 73.3047 50.5173 71.8295 50.5173C70.3542 50.5173 69.1236 50.0453 68.1327 49.1014C67.1418 48.1574 66.6426 46.9466 66.6426 45.4664C66.6426 43.9466 67.2036 42.6518 68.3279 41.5793C69.4498 40.5044 70.7718 39.9682 72.2866 39.9682C72.6153 39.9682 73.0848 40.0744 73.6976 40.2869C74.308 40.4994 74.78 40.6156 75.1086 40.6354L75.4373 40.0522V34.1363C75.4373 33.7681 75.1679 33.5037 74.6292 33.3456C74.0905 33.1899 73.8212 33.0169 73.8212 32.8316C73.8212 32.5178 74.0584 32.3596 74.5329 32.3596H77.1078L77.3821 32.7501C77.3821 33.138 77.3672 33.7434 77.34 34.5663C77.3129 35.3917 77.3005 36.007 77.3005 36.4147V49.1854C77.3005 49.6104 77.4908 49.8229 77.8738 49.8229C78.0023 49.8229 78.2939 49.7686 78.751 49.6574L78.9982 49.9341ZM75.5732 47.2431C75.5732 44.9474 75.509 43.5315 75.3805 42.9953C75.0172 41.4385 74.0683 40.6625 72.5337 40.6625C71.3278 40.6625 70.374 41.0876 69.6697 41.9401C68.9679 42.7902 68.6146 43.8354 68.6146 45.0759C68.6146 46.4845 69.0396 47.5668 69.8897 48.3254C70.7397 49.0841 71.8665 49.4621 73.2726 49.4621C74.1498 49.4621 74.7528 49.3114 75.0815 49.005C75.4101 48.701 75.5732 48.1129 75.5732 47.2431ZM63.7391 41.6337C63.7391 41.1147 63.529 40.6996 63.1089 40.3858C62.6889 40.0695 62.2218 39.9138 61.7128 39.9138C60.9986 39.9138 60.2968 40.2128 59.6024 40.8108C58.9081 41.4063 58.5621 42.0587 58.5621 42.7679C58.5621 42.9582 59.0464 43.0496 60.0126 43.0496C60.1238 43.0496 60.324 43.0496 60.6156 43.0496C60.8899 43.0496 61.1172 43.0496 61.3001 43.0496C62.9261 43.0496 63.7391 42.5776 63.7391 41.6337ZM65.5479 43.188C65.5479 43.6328 65.3651 43.8552 64.9993 43.8552H58.315C58.2779 44.1888 58.2606 44.5125 58.2606 44.8263C58.2606 47.9548 59.5851 49.519 62.2317 49.519C63.0002 49.519 63.6205 49.3336 64.0949 48.963C64.3321 48.7776 64.5793 48.5849 64.8338 48.3798L65.0809 48.6022C64.7152 49.3065 64.1592 49.8575 63.4104 50.2554C62.6617 50.6532 61.8857 50.8509 61.0826 50.8509C59.511 50.8509 58.3051 50.2875 57.4649 49.1582C56.7162 48.1401 56.3431 46.8082 56.3431 45.1599C56.3431 43.6056 56.7804 42.2539 57.6577 41.1073C58.6066 39.8668 59.8298 39.2466 61.3273 39.2466C62.4244 39.2466 63.4005 39.6296 64.2605 40.3981C65.118 41.1666 65.5479 42.0958 65.5479 43.188ZM54.7714 44.8832C54.7714 46.4746 54.2228 47.8263 53.1281 48.9358C52.031 50.0453 50.6991 50.6013 49.1274 50.6013C47.8499 50.6013 46.9281 50.3789 46.3598 49.9341L46.088 50.2134V55.0716C46.088 55.4595 46.4166 55.6918 47.0739 55.7659C47.84 55.8771 48.2873 56.0155 48.4157 56.1811C48.3985 56.4035 48.1242 56.5147 47.5929 56.5147H42.4974L41.8945 56.1539L42.28 55.85C42.8829 55.7931 43.303 55.7091 43.5403 55.5979C43.9406 55.415 44.1432 55.0716 44.1432 54.5724V41.9673C44.1432 41.431 43.8763 41.1098 43.3475 41.0085C42.8187 40.9072 42.5543 40.791 42.5543 40.6625C42.5543 40.4945 42.8681 40.3018 43.4933 40.0794C43.8763 39.9484 44.2643 39.8199 44.6498 39.6889C44.8722 39.5802 45.3022 39.2837 45.9496 38.8018L46.2511 39.1898C46.2511 39.3207 46.2239 39.5234 46.1695 39.8026C46.1151 40.0794 46.088 40.2919 46.088 40.4401L46.2511 40.9665C46.5995 40.9492 47.1505 40.7861 47.8993 40.4821C48.653 40.1757 49.2559 40.0225 49.7156 40.0225C51.2007 40.0225 52.4115 40.4624 53.3555 41.3421C54.3019 42.2218 54.7714 43.4005 54.7714 44.8832ZM53.0738 45.6047C53.0738 44.2531 52.5796 43.1509 51.5936 42.3009C50.662 41.5052 49.5129 41.1073 48.1415 41.1073C47.7387 41.1073 47.3186 41.1815 46.8812 41.3297C46.298 41.5126 46.0039 41.7622 46.0039 42.0785V47.9918C46.0039 48.5281 46.3796 49 47.1283 49.4078C47.7683 49.7587 48.3787 49.9341 48.9643 49.9341C50.1875 49.9341 51.1784 49.5239 51.9346 48.701C52.6932 47.8757 53.0738 46.8428 53.0738 45.6047ZM41.3756 50.2949C41.1235 50.4061 40.9036 50.4629 40.7281 50.4629H36.851C36.505 50.4629 36.3172 50.369 36.2801 50.1862C36.4803 50.0379 36.6903 49.8896 36.9103 49.7414C37.2192 49.519 37.3847 49.3435 37.402 49.2126C36.1418 47.2332 35.4301 46.2423 35.267 46.2423C35.01 46.2423 34.6443 46.6179 34.1698 47.3666C33.6954 48.1154 33.4581 48.6393 33.4581 48.9358C33.4581 49.2323 33.6138 49.4819 33.9227 49.6845C34.1797 49.8699 34.4441 50.0453 34.7184 50.2134C34.6986 50.3789 34.5182 50.4629 34.1649 50.4629H30.4805C29.9665 50.4629 29.7045 50.369 29.7045 50.1862C29.7045 50.0923 29.9838 49.9069 30.5373 49.6302C31.1674 49.3163 31.5035 49.1384 31.5628 49.1014C32.0422 48.7134 32.5784 48.1302 33.1715 47.3543C33.6311 46.7242 34.1006 46.0866 34.58 45.4367C34.5257 45.2341 33.9795 44.4853 32.9367 43.188C32.0249 42.0216 31.3849 41.2457 31.0192 40.8553C30.9648 40.8009 30.7325 40.6625 30.3223 40.4401C29.9096 40.2177 29.7045 40.0695 29.7045 39.9953C29.7045 39.7927 29.9072 39.6889 30.3075 39.6889H34.2242C34.627 39.6889 34.8271 39.7927 34.8271 39.9953C34.8271 40.1238 34.6319 40.2499 34.239 40.3709C33.8461 40.4896 33.6509 40.6798 33.6509 40.9393C33.6509 41.1246 33.9795 41.6485 34.6369 42.5085C35.2942 43.3684 35.6945 43.7984 35.8403 43.7984C36.0602 43.7984 36.421 43.361 36.9226 42.4813C37.4267 41.6016 37.6763 41.0233 37.6763 40.7466C37.6763 40.5415 37.4762 40.413 37.0734 40.3561C36.6731 40.3018 36.4704 40.1807 36.4704 39.9953C36.4704 39.7927 36.6632 39.6889 37.0462 39.6889H40.5799C41.1112 39.6889 41.3756 39.8026 41.3756 40.0225C41.3756 40.1535 41.2965 40.2375 41.1433 40.2746C40.9876 40.3116 40.8468 40.3388 40.7183 40.3561C40.0782 40.5044 39.2059 41.1147 38.1014 42.1897C36.9968 43.2621 36.4432 44.0578 36.4432 44.5768C36.4432 44.9474 37.061 45.8593 38.2892 47.3123C39.5173 48.7653 40.3476 49.5931 40.7776 49.7957C40.9036 49.8526 41.037 49.9168 41.1705 49.991C41.3064 50.0651 41.3756 50.1664 41.3756 50.2949ZM28.2762 46.4647C28.1477 47.206 28.0291 47.9449 27.9204 48.6862C27.7202 49.7957 27.4188 50.3517 27.016 50.3517C25.7384 50.3517 23.8332 50.369 21.3028 50.4061C18.7748 50.4432 16.8795 50.4629 15.6192 50.4629C15.1818 50.4629 14.9619 50.3517 14.9619 50.1293C14.9619 49.9069 15.1893 49.7513 15.6464 49.6574C16.3581 49.5289 16.7881 49.435 16.9339 49.3806C17.4083 49.1755 17.648 48.8147 17.648 48.2983V35.1915C17.648 34.7294 17.4281 34.4057 16.9882 34.2204C16.8795 34.1833 16.4767 34.0993 15.7848 33.9708C15.3449 33.8793 15.1349 33.7311 15.1547 33.526C15.429 33.3036 15.6934 33.1949 15.9479 33.1949H26.9072C27.1791 33.1949 27.3174 33.4247 27.3174 33.8868V36.7755L27.0975 36.941C26.9147 36.941 26.7516 36.7755 26.6058 36.4419C26.5143 36.1824 26.4303 35.9328 26.3587 35.6931C25.9188 34.7121 24.7327 34.2204 22.7978 34.2204C22.652 34.2204 22.437 34.2105 22.1528 34.1932C21.8711 34.1734 21.6636 34.166 21.5375 34.166C20.5145 34.166 20.003 34.638 20.003 35.5819V40.413C20.003 40.838 20.3415 41.0505 21.0161 41.0505H23.7566C24.3027 41.0505 24.7154 40.838 24.9897 40.413C25.1355 40.2079 25.2887 39.8298 25.4542 39.2738C25.563 38.8487 25.6915 38.6362 25.8373 38.6362C26.0942 38.6362 26.2227 38.8191 26.2227 39.1898V44.2704L25.9188 44.7423C25.7013 44.7423 25.5457 44.5768 25.4542 44.2432C25.4172 44.0035 25.3801 43.7539 25.3455 43.4944C25.1429 42.3651 24.3398 41.7992 22.9337 41.7992C21.7476 41.7992 21.1718 41.7992 21.2089 41.7992C20.4058 41.8734 20.003 42.1254 20.003 42.5505V47.9918C20.003 48.9729 20.6059 49.4621 21.8118 49.4621C23.8011 49.4621 25.044 49.3238 25.5358 49.047C25.9756 48.8073 26.796 47.8535 28.0019 46.1879L28.2762 46.4647Z" fill="#231F20"/>
<path fill-rule="evenodd" clip-rule="evenodd" d="M126.142 38.2087C126.142 38.7449 125.954 39.2095 125.583 39.5999C125.213 39.9879 124.758 40.1831 124.222 40.1831C123.688 40.1831 123.236 39.9879 122.863 39.5999C122.49 39.2095 122.302 38.7449 122.302 38.2087C122.302 37.67 122.487 37.2029 122.86 36.81C123.231 36.4196 123.686 36.2244 124.222 36.2244C124.758 36.2244 125.213 36.4196 125.583 36.81C125.954 37.2029 126.142 37.67 126.142 38.2087ZM125.811 38.2087C125.811 37.7663 125.658 37.3784 125.346 37.0423C125.035 36.7062 124.659 36.5407 124.222 36.5407C123.782 36.5407 123.409 36.7062 123.097 37.0423C122.786 37.3784 122.63 37.7663 122.63 38.2087C122.63 38.651 122.786 39.0414 123.097 39.375C123.409 39.7111 123.782 39.8791 124.222 39.8791C124.659 39.8791 125.035 39.7111 125.346 39.375C125.658 39.0414 125.811 38.651 125.811 38.2087ZM125.282 39.2465H124.941C124.859 39.2465 124.731 39.1106 124.555 38.8437C124.447 38.6633 124.338 38.4854 124.227 38.3075H123.928V38.8363C123.928 38.9673 123.943 39.0439 123.97 39.0661C123.994 39.0884 124.076 39.1057 124.209 39.118V39.2465H123.312V39.118C123.436 39.1081 123.51 39.0908 123.535 39.0637C123.562 39.034 123.577 38.9599 123.577 38.8363V37.4896C123.577 37.3635 123.562 37.2869 123.535 37.2548C123.51 37.2252 123.436 37.2029 123.312 37.193V37.114H124.293C124.474 37.114 124.625 37.156 124.753 37.24C124.896 37.3388 124.971 37.4723 124.971 37.6428C124.971 37.7812 124.926 37.9047 124.837 38.011C124.748 38.1197 124.634 38.1963 124.496 38.2408C124.612 38.4113 124.733 38.5818 124.854 38.7523C125.013 38.9599 125.156 39.1057 125.282 39.1897V39.2465ZM124.617 37.6601C124.617 37.3759 124.471 37.235 124.18 37.235H123.928V38.184H124.197C124.476 38.184 124.617 38.011 124.617 37.6601Z" fill="#231F20"/>
<path fill-rule="evenodd" clip-rule="evenodd" d="M83.9132 26.3548V35.016L80.6167 38.3372V29.676L86.7475 23.4858H106.442L97.6451 32.4733H86.8439L89.3298 29.414H85.7912L88.2771 26.3548H83.9132Z" fill="#F0492E"/>
</svg>
