<svg width="141" height="80" viewBox="0 0 141 80" fill="none" xmlns="http://www.w3.org/2000/svg">
<path d="M99.6525 30.751V45.2323C99.6525 46.1736 100.117 46.6569 101.064 46.705C101.076 46.7059 105.836 46.7059 105.836 46.7059V48.3306C105.836 48.5119 105.738 48.6394 105.536 48.6394H97.8112C95.4247 48.6394 95.0718 47.3256 95.0718 46.1324V31.7354C95.0718 31.0559 95.3306 30.7343 96.1336 30.752L99.6525 30.751Z" fill="black"/>
<path d="M90.7501 30.751L90.7511 47.6962C90.7511 48.4502 90.4315 48.6394 89.7903 48.6394H86.1655V31.6863C86.1655 31.1275 86.3793 30.752 87.1921 30.752L90.7501 30.751Z" fill="black"/>
<path d="M14.9619 33.2166C14.9619 31.8528 14.9649 30.7488 17.2052 30.7488H27.0529V32.4705C27.0529 32.593 26.9951 32.7038 26.8235 32.7038L20.9221 32.7018C20.1289 32.7018 19.7299 33.0823 19.7299 33.8823V38.4248H26.6735L26.6744 40.2288C26.6744 40.3886 26.5744 40.4729 26.4176 40.4729H19.7299V47.6803C19.7152 48.3754 19.3681 48.6519 18.6053 48.6382H14.9619V33.2166Z" fill="black"/>
<path d="M34.1652 30.7494V44.3846C34.1652 45.5553 34.3309 46.3759 35.1525 46.8505C36.2535 47.4877 38.1184 47.4976 39.241 46.8681C40.0087 46.4396 40.3018 45.7514 40.3018 44.3885V31.6583C40.3018 31.0857 40.5205 30.7494 41.3205 30.7494H44.8845L44.8855 43.9816C44.8855 47.0554 42.9501 48.3162 41.2392 48.7839C38.9625 49.4045 35.5045 49.4143 33.3563 48.7692C30.7894 47.9966 29.5904 46.4769 29.5874 43.9826L29.5854 31.6681C29.5854 31.0739 29.7992 30.7494 30.4826 30.7494H34.1652Z" fill="black"/>
<path d="M120.842 30.752C119.938 30.752 119.423 31.1736 119.219 31.9805L116.3 44.3156L116.22 44.3136L113.206 30.752H109.084C108.289 30.752 108.039 31.1608 108.039 31.7922V48.6394H109.78C110.06 48.6394 110.176 48.5002 110.176 48.2149V34.0894H110.451L114.178 48.6394H116.619C117.538 48.6394 117.88 48.2619 118.107 47.353L121.452 34.0894H121.723L121.722 48.6394L124.978 48.6345C125.777 48.6345 126.142 48.3276 126.142 47.5423V30.751L120.842 30.752Z" fill="black"/>
<path d="M66.6627 40.4724H62.0801V48.6396H65.7038C66.3421 48.6396 66.6637 48.4524 66.6637 47.6964C66.6637 47.6964 66.6627 44.2031 66.6627 40.4724Z" fill="black"/>
<path d="M66.3956 36.9824C66.5564 36.852 66.6505 36.754 66.6622 36.4736V30.7526H63.1042C62.3031 30.7526 62.0806 31.1438 62.0806 31.7007V40.3621L66.3956 36.9824Z" fill="#ED1A3A"/>
<path d="M50.685 47.2246C52.6754 46.9432 53.3372 45.7608 53.3372 44.0175V31.7226C53.3372 30.9873 53.7352 30.749 54.249 30.749H57.9198V42.3743C57.9198 45.2333 57.3178 46.6775 55.6246 47.8962C54.7431 48.5286 53.2019 49.2502 49.8624 49.2502C47.9505 49.2502 47.1005 49.1424 46.9858 49.1159C46.824 49.0787 46.7583 48.9796 46.7583 48.8394V47.3384C47.5436 47.3609 49.3418 47.4158 50.685 47.2246Z" fill="black"/>
<path d="M73.6057 30.7492C71.3673 30.7492 71.3663 31.8532 71.3663 33.217V37.8261C71.3663 37.9212 71.3251 37.9595 71.282 38.0016L68.1475 40.4714H71.3663V48.6376H75.0077C75.7705 48.6523 76.1176 48.3749 76.1303 47.6807V40.4734H82.818C82.9749 40.4734 83.0759 40.3881 83.0759 40.2292V38.4242H76.1303V33.8818C76.1303 33.0827 76.5304 32.7013 77.3226 32.7013L83.2259 32.7033C83.3955 32.7033 83.4553 32.5934 83.4553 32.4709V30.7492H73.6057Z" fill="black"/>
</svg>
