<svg width="140" height="80" viewBox="0 0 140 80" fill="none" xmlns="http://www.w3.org/2000/svg">
<path d="M69.997 40.9269C81.5285 40.9269 90.8766 36.0497 90.8766 30.0317C90.8766 24.0208 81.5285 19.145 69.997 19.145C58.4658 19.145 49.1162 24.0209 49.1162 30.0317C49.1162 36.0496 58.4659 40.9269 69.997 40.9269ZM73.9248 35.5817C73.5783 36.405 72.9798 38.1632 71.6013 38.8601C71.1865 39.0688 70.67 39.1725 70.2106 39.1863C70.1014 39.1877 70.0293 39.1863 70.0007 39.1863C66.1461 39.1863 62.5586 38.6425 59.5585 37.7115C59.5312 37.7027 59.4641 37.6736 59.4404 37.666C59.1636 37.5711 59.022 37.4397 59.022 37.2802C59.022 37.1399 59.0939 37.0349 59.1958 36.9349C59.2341 36.8919 59.3013 36.8377 59.3845 36.7631C60.0774 36.1749 62.1673 34.633 66.1001 33.0989C67.4785 32.5625 69.2022 31.8934 71.0127 31.5062C72.0721 31.2785 76.0035 30.6652 73.9248 35.5817ZM84.4777 24.6039C84.5486 24.4724 84.649 24.3623 84.829 24.3511C84.9308 24.3423 85.0602 24.3663 85.26 24.4965C87.715 26.032 89.1691 27.9507 89.1691 30.0289C89.1691 33.7867 84.4278 37.0135 77.649 38.4263C77.2132 38.5124 76.9225 38.5111 76.8257 38.3986C76.7586 38.3302 76.7389 38.2075 76.8257 38.0608C76.8703 37.9835 76.9201 37.9178 77.0046 37.8053C80.7002 33.372 83.5113 26.8376 84.3073 24.9481C84.3672 24.8177 84.4278 24.6886 84.4777 24.6039ZM66.1301 24.4649C66.4777 23.6439 67.0788 21.8869 68.4547 21.1876C68.8731 20.9776 69.3873 20.8766 69.8467 20.8626C69.9511 20.8586 70.0219 20.8626 70.0555 20.8626C73.9099 20.8626 77.4949 21.4065 80.5013 22.3385C80.5237 22.3473 80.5921 22.374 80.6144 22.3829C80.8925 22.4791 81.0353 22.6068 81.0353 22.7698C81.0353 22.909 80.9598 23.0151 80.8616 23.1127C80.8218 23.1557 80.7572 23.2113 80.6704 23.2834C79.9761 23.8754 77.8898 25.4135 73.9584 26.9477C72.5776 27.4853 70.8513 28.1531 69.0458 28.5428C67.984 28.7716 64.0512 29.3787 66.1301 24.4649ZM62.3414 21.6379C62.7785 21.5519 63.0642 21.5532 63.1709 21.6657C63.2305 21.7365 63.2454 21.8542 63.167 22.0008C63.1198 22.0794 63.0728 22.1489 62.9857 22.2552C59.2902 26.6897 56.4813 33.2266 55.6827 35.1162C55.6231 35.244 55.5612 35.3744 55.5127 35.4577C55.4369 35.5918 55.3388 35.7029 55.1612 35.7131C55.0657 35.7195 54.9329 35.6954 54.7254 35.5701C52.2792 34.0295 50.8213 32.1108 50.8213 30.0314C50.8213 26.2773 55.5613 23.0484 62.3414 21.6379Z" fill="#1C3868"/>
<path d="M34.7197 48.1855V53.0133H29.2471V48.1855H26.2305V60.8542H29.2471V55.7593H34.7197V60.8542H37.7364V48.1855H37.5835H34.7197Z" fill="#1C3868"/>
<path d="M48.7902 48.1855L45.6352 53.2029L42.4825 48.1855H38.9248L44.1296 56.4654V60.8542H47.1428V56.4654L52.3521 48.1855H52.0743H48.7902Z" fill="#1C3868"/>
<path d="M62.0449 48.1853V57.4717C62.0449 57.8254 61.7805 58.1092 61.4052 58.1092H56.5703V48.1851H53.5557V60.8537H62.465C63.2605 60.8537 63.897 60.6182 64.3602 60.157C64.8237 59.6915 65.0581 59.0552 65.0581 58.2658V48.1851H64.9055H62.0449V48.1853Z" fill="#1C3868"/>
<path d="M76.7696 48.1855H67.8574V60.8542H70.8689V50.9284H75.7067C76.0951 50.9284 76.3464 51.2339 76.3464 51.563V60.8545H79.3599V50.7758C79.3599 49.9824 79.124 49.3478 78.6617 48.8846C78.1954 48.4191 77.5622 48.1855 76.7696 48.1855Z" fill="#1C3868"/>
<path d="M91.0687 48.1841H82.1562V60.8539H91.0687C91.8608 60.8539 92.4942 60.618 92.9577 60.1571C93.4209 59.6925 93.6587 59.0542 93.6587 58.2659V50.7772C93.6587 49.9829 93.4209 49.3472 92.9577 48.8811C92.4945 48.4197 91.8579 48.1841 91.0687 48.1841ZM90.6455 51.5838V57.4559C90.6455 57.7962 90.3942 58.1119 90.0018 58.1119H85.1681V50.9278H89.9804C90.3777 50.9278 90.6455 51.2047 90.6455 51.5838Z" fill="#1C3868"/>
<path d="M98.9073 48.186C98.117 48.186 97.4784 48.4185 97.0184 48.8851C96.5521 49.3483 96.3193 49.9848 96.3193 50.7763V60.855H99.3277V56.9365H104.805V60.855H107.816V48.1863H98.9073V48.186ZM104.805 50.9289V54.1934H99.3277V51.5715C99.3277 51.2597 99.5664 50.9286 99.9714 50.9286H104.805V50.9289Z" fill="#1C3868"/>
<path d="M113.771 48.1836H110.754V60.8523H113.771V48.1836Z" fill="#1C3868"/>
</svg>
