<svg width="187" height="38" viewBox="0 0 187 38" fill="none" xmlns="http://www.w3.org/2000/svg">
<g clip-path="url(#clip0_3803_1425)">
<path d="M34.3474 36.7835H40.6128L45.5246 18.4663H39.3236L34.3474 36.7835Z" fill="#004A7F"/>
<path d="M66.4697 36.7835H72.7352L77.6469 18.4663H71.3814L66.4697 36.7835Z" fill="#004A7F"/>
<path d="M98.6504 36.7835H104.854L109.708 18.4663H103.442L98.6504 36.7835Z" fill="#004A7F"/>
<path d="M60.634 24.7361H66.8995C67.759 20.6198 65.119 18.531 58.9763 18.531C51.8513 18.531 47.0624 22.0329 45.4047 27.9952C43.9896 33.5245 46.8782 36.8451 53.5704 36.8451C60.327 36.8451 64.3178 34.7563 65.9786 30.0226H59.7131C58.7921 32.1115 57.1958 33.1559 54.9856 33.1559C51.9741 33.1559 50.7462 31.3128 51.6671 27.8109C52.6495 24.1831 54.9856 22.1557 57.994 22.1557C59.9586 22.1557 60.8182 23.0158 60.634 24.7361Z" fill="#004A7F"/>
<path d="M92.8176 24.7361H99.083C99.9426 20.6198 97.2381 18.531 91.0954 18.531C84.0318 18.531 79.1815 22.0329 77.5852 27.9952C76.1117 33.5245 78.9973 36.8451 85.6926 36.8451C92.3878 36.8451 96.3786 34.7563 98.0977 30.0226H91.8353C90.9726 32.1115 89.3149 33.1559 87.1047 33.1559C84.0963 33.1559 82.8684 31.3128 83.8477 27.8109C84.7716 24.1831 87.1047 22.1557 90.1131 22.1557C92.0808 22.1557 93.0018 23.0158 92.8176 24.7361Z" fill="#004A7F"/>
<path d="M10.2092 8.32953C18.5622 0.0325828 28.6956 -2.12075 32.7508 3.53445C36.806 9.18964 33.242 20.6198 24.889 28.9168C16.5361 37.2751 6.40269 39.4254 2.28609 33.7088C-1.70466 27.9952 1.85938 16.6234 10.2092 8.32953Z" fill="#F06321"/>
<path d="M15.7381 3.903C14.8172 4.5788 13.8962 5.37747 12.9753 6.24064C5.66608 13.4901 2.59318 23.4458 6.21863 28.4252C9.96378 33.4015 18.9307 31.5585 26.424 24.2445C30.4793 20.3126 33.1807 15.7632 34.2858 11.5242C34.5928 8.39091 34.1631 5.62321 32.7509 3.53439C29.5583 -0.889015 22.6789 -0.523473 15.7381 3.903Z" fill="#AE282E"/>
<path d="M26.3014 4.82466V5.00897C26.2402 6.05339 25.6261 7.34354 24.5209 8.44939C22.8633 10.0467 20.653 10.6611 19.729 9.74262C18.6852 8.75964 19.3023 6.60631 20.96 4.8861C22.6791 3.22732 24.8893 2.6744 25.8103 3.65737C26.1172 3.96455 26.3014 4.33317 26.3014 4.82466ZM19.9162 33.033C15.9838 35.982 11.9317 37.4595 7.99927 36.8452C9.65696 36.9066 11.0107 35.0604 12.1158 32.603C13.221 30.0841 13.8349 27.7495 14.3875 25.5348C15.1856 22.0329 15.2471 19.5755 14.8173 19.0225C14.1419 18.1594 12.6684 18.3467 10.9463 19.3297C10.0867 19.8212 8.9816 19.514 10.274 17.9167C11.6247 16.3194 16.8434 12.5072 18.6852 11.8929C20.7758 11.34 23.1088 12.1386 22.3107 14.4118C21.7551 16.0705 14.5103 34.999 19.9162 33.033Z" fill="white"/>
<path d="M119.104 33.893L120.517 28.6095H123.955V25.7834H121.315L122.543 21.2955H123.955V18.5278H119.286L114.435 36.845H123.955V33.893H119.104ZM123.955 28.6095H124.63C127.764 28.6095 129.238 29.1624 128.624 31.3127C128.133 33.2172 126.598 33.893 123.955 33.893V36.845C126.536 36.845 128.44 36.5993 130.343 35.306C131.632 34.4459 132.556 33.1558 132.925 31.6813C133.597 29.1624 132.492 27.4391 129.606 27.0736C132.308 26.5821 134.03 25.166 134.579 22.9543C135.071 21.2955 134.641 20.0668 133.474 19.2681C132.492 18.5923 130.834 18.5278 128.624 18.5278H123.955V21.2955H126.352C129.299 21.2955 130.65 21.6641 130.22 23.5072C129.668 25.2889 128.071 25.7834 125.063 25.7834H123.955V28.6095Z" fill="#004A7F"/>
<path d="M141.152 24.002V26.2721C140.661 26.5209 140.231 26.9509 140.047 27.5653H136.363C136.974 25.7836 138.635 24.5518 141.152 24.002ZM141.152 34.7564C140.722 34.8793 140.231 34.9407 139.74 34.9407C138.082 34.9407 137.345 34.2618 137.714 33.0331C138.082 31.6201 139.187 31.1286 141.152 30.9443V28.794C136.913 29.1012 134.579 30.207 133.843 32.9717C133.167 35.4905 134.767 37.1524 138.082 37.1524C139.187 37.1524 140.231 36.9681 141.152 36.5995V34.7564ZM144.716 30.9443L144.654 31.1286C144.163 33.0331 142.871 34.3263 141.152 34.7564V36.5995C142.073 36.2278 142.871 35.7394 143.608 35.0636L143.301 36.8452H146.988C147.172 35.982 147.356 34.9991 147.601 34.0161L149.014 28.8554C149.136 28.4254 149.198 27.9953 149.198 27.5653V26.9509C149.075 24.859 147.295 23.7532 143.979 23.7532C142.932 23.7532 142.011 23.876 141.152 24.002V26.2721C141.704 25.968 142.38 25.8451 143.242 25.8451C145.143 25.8451 145.882 26.7021 145.327 28.5483L145.268 28.7326H143.301C142.567 28.7326 141.827 28.794 141.152 28.794V30.9443L144.716 30.9443Z" fill="#004A7F"/>
<path d="M150.303 36.8452H154.051L155.831 30.2685C156.445 27.9339 158.594 26.2721 160.866 26.2721C163.076 26.2721 163.877 27.5653 163.141 30.1456L161.357 36.8452H165.105L167.193 29.0397C168.052 25.7222 166.395 23.7532 162.711 23.7532C160.313 23.7532 158.41 24.6133 156.752 26.3335L157.182 24.0604H153.437C153.069 26.0877 152.823 27.3195 152.697 27.811L150.303 36.8452Z" fill="#004A7F"/>
<path d="M168.421 36.8451H172.108L173.95 29.9612L178.926 36.8451H184.022L178.37 29.5311L185.986 24.0603H181.259L174.195 29.1625L177.019 18.531H173.336L168.421 36.8451Z" fill="#004A7F"/>
</g>
<defs>
<clipPath id="clip0_3803_1425">
<rect width="185.949" height="37.3865" fill="white" transform="translate(0.34375 0.0722656)"/>
</clipPath>
</defs>
</svg>
