<svg width="179" height="21" viewBox="0 0 179 21" fill="none" xmlns="http://www.w3.org/2000/svg">
<g clip-path="url(#clip0_3803_1440)">
<path fill-rule="evenodd" clip-rule="evenodd" d="M23.5748 14.9629L22.5215 20.1189H17.9178C18.2677 18.4122 18.6185 16.5821 19.0162 14.836C19.0973 14.4571 19.1875 14.0693 19.2732 13.6466C19.2732 13.3473 19.3156 13.0497 19.3634 12.7513C19.5374 10.6656 18.0035 10.2805 16.5173 10.9203C15.6326 11.2607 15.2385 11.855 14.8066 12.6243C14.4071 13.3061 14.2817 13.9424 14.1005 14.794L12.9597 20.1189H8.39746L11.0713 7.42813C12.4763 7.38524 13.8768 7.34236 15.2845 7.30297C15.1114 8.10993 14.8913 8.8775 14.7597 9.68621C16.4731 7.68457 18.6573 6.66406 21.2076 7.38524C23.7506 8.06705 24.2809 10.5404 23.8796 12.9202C23.83 13.6466 23.7506 14.2829 23.5748 14.9629Z" fill="#98272A"/>
<path fill-rule="evenodd" clip-rule="evenodd" d="M106.779 1.68386H111.254L107.263 20.159H103.144C103.316 19.4772 103.489 18.7989 103.713 18.1118C102.876 18.882 102.178 19.5183 101.255 19.9472V17.178C101.606 17.0957 101.961 16.9644 102.264 16.7972C103.586 15.9868 104.103 14.5392 104.103 13.0907L104.018 12.3677C103.933 11.6894 103.628 11.089 102.833 10.7521C102.401 10.4939 101.782 10.4939 101.255 10.5814V7.30105C101.516 7.30105 101.736 7.38508 101.961 7.38508C103.231 7.68353 104.323 8.49574 104.945 9.72805L106.779 1.68386ZM101.255 19.9472C100.95 20.1179 100.603 20.2019 100.2 20.2841C98.98 20.5817 98.2694 20.6684 96.9997 20.2019C95.5117 19.689 94.7686 18.7114 94.1978 17.3915C92.882 14.1576 94.324 9.55913 97.5705 7.98285C98.622 7.46997 99.9801 7.1759 101.255 7.30105V10.5814C100.906 10.6243 100.516 10.7521 100.248 10.9201C99.5013 11.3901 99.017 12.0702 98.7564 12.8771C98.4534 13.6841 98.2694 14.8359 98.5372 15.6857C98.622 16.1128 98.8015 16.4156 99.0603 16.6668C99.6735 17.178 100.516 17.3049 101.255 17.178" fill="#98272A"/>
<path fill-rule="evenodd" clip-rule="evenodd" d="M69.5846 7.60212L68.6648 10.3249C67.395 9.98711 66.4689 9.81206 65.1568 9.72891C64.7582 9.72891 64.4588 9.68603 64.1531 9.7683C63.226 9.9871 62.8301 10.7923 63.5344 11.3901C64.4083 12.2399 65.9458 12.45 67.0415 13.1335C67.3094 13.3068 67.6133 13.5615 67.9181 13.8162C68.7883 15.1352 68.6648 16.5408 67.7458 17.9061C66.2948 19.9883 63.5344 20.2019 61.0337 20.0312C59.6738 19.9428 58.5321 19.6899 57.1704 19.4352L58.0091 16.3684C59.6738 16.7972 60.7289 17.1815 62.2981 17.0055C63.006 16.9644 64.0205 17.0055 64.0205 16.0725C63.841 15.3899 63.1854 14.9628 62.4793 14.6669C61.4314 14.1987 60.2897 13.9011 59.4574 13.0907C58.9677 12.4106 58.8333 11.8995 58.8333 11.0488C58.8333 10.1972 59.103 9.60376 59.4971 9.04799C61.738 5.94356 66.3453 6.83629 69.5846 7.60212Z" fill="#98272A"/>
<path fill-rule="evenodd" clip-rule="evenodd" d="M43.577 7.3011L48.2249 7.21708C47.875 8.79336 47.5206 10.3679 47.1698 12.0256C46.9569 13.0907 46.5168 14.4569 46.8253 15.5186C47.0029 16.1129 47.2121 16.3273 47.7884 16.4962C48.4467 16.7115 49.2854 16.582 49.8102 16.1986C51.3848 15.0941 51.8239 13.2605 52.218 11.4724L53.183 7.21708H57.7028L54.8919 20.1188C53.578 20.159 52.2604 20.0759 50.9005 20.1188C51.0313 19.3915 51.2107 18.3272 51.3848 17.6034C50.9005 18.0314 50.5091 18.5014 49.9816 18.8821C49.326 19.3915 48.5333 19.7337 47.7018 19.9472C46.7351 20.159 45.4194 20.159 44.4977 19.7748C43.4868 19.3915 42.7437 18.5014 42.3478 17.5185C41.823 16.1986 42.0394 15.3077 42.2612 13.9423C42.6102 11.7306 43.0963 9.47341 43.577 7.3011Z" fill="#98272A"/>
<path fill-rule="evenodd" clip-rule="evenodd" d="M38.3988 1.68386H42.8744L38.8407 20.159H34.7158C34.8917 19.4772 35.1108 18.7989 35.2831 18.1118C34.4994 18.882 33.7545 19.5183 32.8752 19.9472V17.178C33.2278 17.0957 33.5741 16.9644 33.8862 16.7972C35.1523 15.9868 35.6844 14.5392 35.6844 13.0907L35.6339 12.3677C35.5491 11.6894 35.1983 11.089 34.4164 10.7521C33.9673 10.4939 33.3559 10.4939 32.8752 10.5814V7.30105C33.0953 7.30105 33.3081 7.38508 33.5741 7.38508C34.8042 7.68353 35.8999 8.49574 36.5582 9.72805L38.3988 1.68386ZM32.8752 19.9472C32.5262 20.1179 32.1727 20.2019 31.8165 20.2841C30.5964 20.5817 29.8542 20.6684 28.5809 20.2019C27.1263 19.689 26.3372 18.7114 25.7645 17.3915C24.4894 14.1576 25.9512 9.55913 29.1481 7.98285C30.1996 7.46997 31.6019 7.1759 32.8752 7.30105V10.5814C32.4812 10.6243 32.1322 10.7521 31.8165 10.9201C31.1212 11.3901 30.5964 12.0702 30.3286 12.8771C30.0256 13.6841 29.8542 14.8359 30.1085 15.6857C30.1996 16.1128 30.3745 16.4156 30.6758 16.6668C31.2971 17.178 32.0808 17.3049 32.8752 17.178" fill="#98272A"/>
<path fill-rule="evenodd" clip-rule="evenodd" d="M5.02107 1.68392H9.71314L5.81195 20.1179H1.07568" fill="#98272A"/>
<path fill-rule="evenodd" clip-rule="evenodd" d="M92.0467 14.9629L90.9456 20.1189H86.2977C86.6909 18.4122 87.0849 16.5821 87.4393 14.836C87.5268 14.4571 87.6188 14.0693 87.7487 13.6912C87.7487 13.3473 87.7487 13.0497 87.7874 12.7513C88.0129 10.6656 86.3788 10.2805 84.9359 10.9203C84.1027 11.3028 83.7086 11.855 83.2721 12.6243C82.8366 13.3061 82.7013 13.9871 82.5705 14.794L81.3819 20.1189H76.9099L79.499 7.42813C80.8977 7.38524 82.3117 7.38524 83.7086 7.30297C83.5354 8.10993 83.356 8.8775 83.1783 9.68621C84.89 7.68457 87.0849 6.66406 89.628 7.38524C92.1756 8.06705 92.7041 10.5404 92.3533 12.9648C92.2631 13.6466 92.1756 14.2829 92.0467 14.9629Z" fill="#98272A"/>
<path fill-rule="evenodd" clip-rule="evenodd" d="M73.1813 1.68392H77.9193L74.0181 20.1179H69.2747" fill="#98272A"/>
<path fill-rule="evenodd" clip-rule="evenodd" d="M160.992 15.0941L159.898 20.2842H155.249C155.599 18.5407 156.039 16.6669 156.395 14.9628C156.472 14.5383 156.564 14.1576 156.655 13.7296C156.655 13.4312 156.692 13.1336 156.74 12.8308C156.92 10.7451 155.338 10.3679 153.843 11.0015C153.009 11.3473 152.619 11.9415 152.142 12.7091C151.741 13.39 151.612 14.0307 151.437 14.8788L150.289 20.2448H145.728L148.365 7.47C149.76 7.42712 151.213 7.38423 152.619 7.34222C152.441 8.15005 152.263 8.96226 152.09 9.72809C153.76 7.72645 156.039 6.70418 158.542 7.38423C161.17 8.10979 161.652 10.6243 161.302 13.0084C161.255 13.7296 161.124 14.3677 160.992 15.0941Z" fill="#98272A"/>
<path fill-rule="evenodd" clip-rule="evenodd" d="M166.259 1.68389H170.863L168.493 12.6671L173.146 7.3851H178.319L172.885 13.2194L176.301 20.2019H171.387L168.366 13.4312L166.916 20.2019H162.4" fill="#98272A"/>
<path fill-rule="evenodd" clip-rule="evenodd" d="M144.9 13.4312C144.505 15.2621 144.111 17.0502 143.753 18.8401L143.582 20.2842H139.766L140.034 18.3272C139.376 18.9643 138.67 19.5184 137.927 19.9035V17.6891C137.967 17.6463 138.052 17.6463 138.138 17.6007C138.628 17.3478 138.98 17.178 139.239 16.9198C139.855 16.2844 140.165 15.3085 140.419 14.4963H139.766C139.202 14.4963 138.537 14.4569 137.927 14.4963V12.3678C138.844 12.2837 139.898 12.3231 140.947 12.3231C140.947 11.2142 140.511 10.3679 139.326 10.1149C138.802 10.0274 138.323 10.0274 137.927 10.0274V7.38511C140.778 7.04815 143.805 7.51464 144.857 10.0274C145.379 11.3026 145.079 12.1113 144.9 13.4312ZM137.927 19.9035C137.223 20.2448 136.431 20.4601 135.688 20.5406C133.974 20.7095 132.179 19.9472 131.434 18.4121C130.904 17.5596 131.042 16.6257 131.254 15.6481C131.479 14.7116 131.92 14.1987 133.051 13.4312C134.677 12.6671 136.264 12.4089 137.927 12.3678V14.4963C137.267 14.5392 136.609 14.7116 136.171 15.0109C135.295 15.6481 134.948 16.8402 135.906 17.5596C136.477 17.9421 137.267 17.9062 137.927 17.6891V19.9035ZM137.927 10.0274C137.308 10.0274 136.78 10.0685 136.085 10.241C135.295 10.409 134.725 10.6655 133.974 11.0024L134.501 8.02577C135.56 7.77283 136.69 7.51464 137.927 7.38511" fill="#98272A"/>
<path fill-rule="evenodd" clip-rule="evenodd" d="M122.398 3.17448H124.809C126.92 3.17448 130.163 3.47206 130.769 5.85617C130.904 6.23952 130.946 6.61937 130.946 7.00184V7.04823C130.946 8.44771 130.25 9.68528 128.934 10.5404C128.01 10.9622 127.226 11.1767 126.304 11.4314C128.668 11.8138 130.209 13.3901 129.723 15.9029C129.015 19.3915 125.643 19.942 122.398 20.1591V17.0958C122.572 17.0958 122.752 17.0503 122.882 17.0057C125.598 16.5812 126.21 13.5161 123.629 12.9647C123.228 12.8772 122.84 12.8308 122.398 12.8772V10.1509C122.925 10.1509 123.495 10.108 123.974 10.0275C125.425 9.68528 127.351 8.23941 125.771 6.61937C125.112 5.94369 123.538 6.02596 122.398 6.10998V3.17448ZM118.012 3.17448H122.398V6.10998H122.002L121.079 10.108C121.475 10.108 121.963 10.1509 122.398 10.1509V12.8772C121.783 12.8772 121.125 12.9647 120.511 13.0085L119.591 17.2621C120.376 17.2192 121.435 17.2192 122.398 17.0958V20.1591C122.132 20.202 121.834 20.202 121.559 20.2449H114.458" fill="#98272A"/>
</g>
<defs>
<clipPath id="clip0_3803_1440">
<rect width="178.078" height="19.6771" fill="white" transform="translate(0.29248 0.926758)"/>
</clipPath>
</defs>
</svg>
