<svg width="141" height="80" viewBox="0 0 141 80" fill="none" xmlns="http://www.w3.org/2000/svg">
<path d="M40.5147 32.3008V33.0169C42.3468 32.9646 43.2894 33.5058 43.345 34.6397V52.9369C43.3818 54.9104 40.8065 55.1238 40.4002 54.0201C40.3217 53.3784 40.7804 53.1609 40.961 52.4709C41.3306 51.0566 40.7477 49.2556 38.8109 49.5867C35.4223 50.4181 36.736 55.4598 41.5587 55.5555C45.455 55.5644 48.1259 53.5754 48.2076 49.9693V34.6397C48.4807 33.5442 49.3587 33.0039 50.8417 33.0169L50.9063 32.3008H40.5147Z" fill="#1C4792"/>
<path d="M63.9873 36.8503V37.4014C64.6544 37.4332 65.1981 37.7423 65.6175 38.3284L68.7527 43.9154V48.2336C68.6897 48.8819 68.066 49.2596 66.8822 49.3651V49.7722H71.9525V49.3651C70.933 49.2359 70.3608 48.8591 70.2365 48.2336V43.9154L73.2646 38.178C73.7944 37.6433 74.3054 37.3842 74.7975 37.4014V36.8503H71.7367V37.4014C72.5264 37.4341 72.8265 37.6507 72.6392 38.0529L70.1041 42.9197L67.3711 38.1273C67.143 37.7521 67.4209 37.5101 68.0733 37.4014V36.8503H63.9873Z" fill="#1C4792"/>
<path d="M53.9338 45.1089L56.5123 38.9178L58.996 45.1089H53.9338ZM62.0895 48.384L57.3355 36.8502C57.1303 36.2812 56.7265 36.3409 56.4992 36.8502L51.7796 48.3946C51.424 48.9268 51.0168 49.3609 50.4985 49.3568V49.7754H53.6092V49.3568C52.8318 49.3773 52.4655 48.9358 52.6143 48.3979L53.6052 45.6272H59.2469L60.3465 48.3537C60.483 48.8173 60.349 49.4361 59.3123 49.3568V49.7754H63.2013V49.3568C62.6822 49.32 62.3446 48.8818 62.0895 48.384Z" fill="#1C4792"/>
<path d="M88.5276 36.8511V37.4266C89.7163 37.4773 90.1226 37.8321 90.1169 38.5785V47.6327C90.0613 48.7061 89.5087 49.2416 88.4614 49.2375V49.7722H97.0071L97.1379 47.1397H96.7447C96.6122 47.9605 96.3498 48.5925 95.9582 49.0347H92.6684C92.137 48.8761 91.8068 48.5508 91.6751 48.057V43.2597H94.6354C95.2257 43.2752 95.5347 43.738 95.5641 44.6479H96.1618V41.3377H95.5641C95.4914 42.098 95.2698 42.5198 94.8987 42.6049H91.6751V37.5525H95.1611C95.9525 37.5721 96.3947 38.1248 96.4879 39.2097H97.0128L96.8869 36.8511H88.5276Z" fill="#1C4792"/>
<path d="M100.137 36.8511V37.4266C101.325 37.4773 101.732 37.8321 101.726 38.5785V47.6327C101.67 48.7061 101.119 49.2416 100.071 49.2375V49.7722H108.616L108.747 47.1397H108.354C108.222 47.9605 107.959 48.5925 107.567 49.0347H104.277C103.746 48.8761 103.416 48.5508 103.284 48.057V43.2597H106.245C106.835 43.2752 107.144 43.738 107.173 44.6479H107.771V41.3377H107.173C107.101 42.098 106.879 42.5198 106.508 42.6049H103.284V37.5525H106.77C107.562 37.5721 108.004 38.1248 108.097 39.2097H108.622L108.497 36.8511H100.137Z" fill="#1C4792"/>
<path d="M48.3699 25.5046C48.3699 27.6089 46.6621 29.3159 44.5578 29.3159C42.4534 29.3159 40.7456 27.6089 40.7456 25.5046C40.7456 23.4003 42.4534 21.6924 44.5578 21.6924C46.6613 21.6924 48.3699 23.4003 48.3699 25.5046ZM51.0866 25.498C51.0866 21.8935 48.1623 18.9692 44.5578 18.9692C40.9549 18.9692 38.0298 21.8935 38.0298 25.498C38.0298 29.1017 40.9549 32.026 44.5578 32.026C48.1623 32.026 51.0866 29.1017 51.0866 25.498Z" fill="#E95224"/>
<path d="M48.5292 25.5046C48.5292 27.6981 46.7503 29.477 44.5568 29.477C42.3642 29.477 40.5844 27.6981 40.5844 25.5046C40.5844 23.3112 42.3642 21.5322 44.5568 21.5322C46.7503 21.5322 48.5292 23.3112 48.5292 25.5046ZM48.9167 25.4981C48.9167 23.0913 46.9645 21.1382 44.5576 21.1382C42.1508 21.1382 40.1978 23.0913 40.1978 25.4981C40.1978 27.9041 42.1508 29.8572 44.5576 29.8572C46.9645 29.8572 48.9167 27.9041 48.9167 25.4981Z" fill="#E95224"/>
<path d="M48.1434 25.5046H48.1425C48.1425 27.4839 46.5361 29.0903 44.5569 29.0903C42.5776 29.0903 40.9712 27.4839 40.9712 25.5046C40.9712 23.5254 42.5784 21.919 44.5569 21.919C46.5361 21.919 48.1425 23.5254 48.1425 25.5046M48.5301 25.4981C48.5301 23.3047 46.7503 21.5249 44.5577 21.5249C42.3651 21.5249 40.5845 23.3047 40.5845 25.4981C40.5845 27.6907 42.3651 29.4697 44.5577 29.4697C46.7503 29.4697 48.5301 27.6907 48.5301 25.4981Z" fill="#E95624"/>
<path d="M47.756 25.5047C47.756 27.2706 46.3229 28.7037 44.557 28.7037C42.792 28.7037 41.3589 27.2706 41.3589 25.5047C41.3589 23.7388 42.792 22.3065 44.557 22.3065C46.3229 22.3065 47.756 23.7388 47.756 25.5047ZM48.1436 25.508C48.1436 23.5295 46.5371 21.9231 44.5579 21.9231C42.5786 21.9231 40.9722 23.5295 40.9722 25.508C40.9722 27.4872 42.5786 29.0937 44.5579 29.0937C46.5371 29.0937 48.1436 27.4872 48.1436 25.508Z" fill="#EA5C24"/>
<path d="M47.3686 25.5047H47.3677C47.3677 27.0564 46.1087 28.3162 44.5571 28.3162C43.0046 28.3162 41.7456 27.0564 41.7456 25.5047C41.7456 23.9531 43.0046 22.6932 44.5571 22.6932C46.1087 22.6932 47.3677 23.9531 47.3677 25.5047M47.7561 25.508C47.7561 23.7429 46.3229 22.3098 44.5571 22.3098C42.7912 22.3098 41.3589 23.7429 41.3589 25.508C41.3589 27.2747 42.7912 28.707 44.5571 28.707C46.3229 28.707 47.7561 27.2747 47.7561 25.508Z" fill="#EA6124"/>
<path d="M46.9819 25.5045H46.9811C46.9811 26.8428 45.8954 27.9293 44.5571 27.9293C43.2188 27.9293 42.1323 26.8428 42.1323 25.5045C42.1323 24.1662 43.2188 23.0797 44.5571 23.0797C45.8954 23.0797 46.9811 24.1662 46.9811 25.5045M47.3686 25.5078C47.3686 23.9561 46.1088 22.6963 44.5571 22.6963C43.0054 22.6963 41.7456 23.9561 41.7456 25.5078C41.7456 27.0603 43.0054 28.3201 44.5571 28.3201C46.1088 28.3201 47.3686 27.0603 47.3686 25.5078Z" fill="#EB6623"/>
<path d="M47.3178 25.5045C47.3178 27.0284 46.0817 28.2645 44.5578 28.2645C43.0348 28.2645 41.7978 27.0284 41.7978 25.5045C41.7978 23.9814 43.0348 22.7445 44.5578 22.7445C46.0817 22.7445 47.3178 23.9814 47.3178 25.5045ZM47.7429 25.5078C47.7429 23.7501 46.3163 22.3235 44.5578 22.3235C42.8009 22.3235 41.3735 23.7501 41.3735 25.5078C41.3735 27.2663 42.8009 28.6929 44.5578 28.6929C46.3163 28.6929 47.7429 27.2663 47.7429 25.5078Z" fill="#EB6623"/>
<path d="M46.894 25.5044H46.8932C46.8932 26.7936 45.8476 27.8401 44.5575 27.8401C43.2691 27.8401 42.2226 26.7936 42.2226 25.5044C42.2226 24.2152 43.2691 23.1687 44.5575 23.1687C45.8476 23.1687 46.8932 24.2152 46.8932 25.5044M47.3183 25.4979C47.3183 23.974 46.0822 22.7371 44.5583 22.7371C43.0353 22.7371 41.7983 23.974 41.7983 25.4979C41.7983 27.0209 43.0353 28.257 44.5583 28.257C46.0822 28.257 47.3183 27.0209 47.3183 25.4979Z" fill="#ED7823"/>
<path d="M46.4692 25.5046H46.4684C46.4684 26.5592 45.6125 27.416 44.5579 27.416C43.5032 27.416 42.6465 26.5592 42.6465 25.5046C42.6465 24.45 43.5032 23.5932 44.5579 23.5932C45.6125 23.5932 46.4684 24.45 46.4684 25.5046M46.8935 25.498C46.8935 24.2088 45.8471 23.1624 44.5579 23.1624C43.2694 23.1624 42.2222 24.2088 42.2222 25.498C42.2222 26.7865 43.2694 27.8329 44.5579 27.8329C45.8471 27.8329 46.8935 26.7865 46.8935 25.498Z" fill="#F08B24"/>
<path d="M46.0438 25.5046C46.0438 26.3254 45.3783 26.9909 44.5575 26.9909C43.7376 26.9909 43.0721 26.3254 43.0721 25.5046C43.0721 24.6846 43.7376 24.0183 44.5575 24.0183C45.3783 24.0183 46.0438 24.6846 46.0438 25.5046ZM46.4689 25.4981C46.4689 24.4426 45.613 23.5867 44.5575 23.5867C43.5029 23.5867 42.647 24.4426 42.647 25.4981C42.647 26.5527 43.5029 27.4086 44.5575 27.4086C45.613 27.4086 46.4689 26.5527 46.4689 25.4981Z" fill="#F49F3D"/>
<path d="M45.6187 25.5045C45.6187 26.0907 45.1429 26.5657 44.5567 26.5657C43.9706 26.5657 43.4956 26.0907 43.4956 25.5045C43.4956 24.9184 43.9706 24.4434 44.5567 24.4434C45.1429 24.4434 45.6187 24.9184 45.6187 25.5045ZM46.0438 25.498C46.0438 24.6772 45.3775 24.0117 44.5576 24.0117C43.7368 24.0117 43.0713 24.6772 43.0713 25.498C43.0713 26.318 43.7368 26.9834 44.5576 26.9834C45.3775 26.9834 46.0438 26.318 46.0438 25.498Z" fill="#F7B250"/>
<path d="M45.1946 25.5045C45.1946 25.8561 44.9093 26.1414 44.5569 26.1414C44.2054 26.1414 43.9209 25.8561 43.9209 25.5045C43.9209 25.153 44.2054 24.8677 44.5569 24.8677C44.9093 24.8677 45.1946 25.153 45.1946 25.5045ZM45.6189 25.498C45.6189 24.9118 45.1439 24.436 44.5577 24.436C43.9716 24.436 43.4966 24.9118 43.4966 25.498C43.4966 26.0834 43.9716 26.5592 44.5577 26.5592C45.1439 26.5592 45.6189 26.0834 45.6189 25.498Z" fill="#F9C463"/>
<path d="M44.7703 25.5046H44.7695C44.7695 25.6215 44.6747 25.7163 44.5578 25.7163C44.44 25.7163 44.3452 25.6215 44.3452 25.5046C44.3452 25.3868 44.44 25.292 44.5578 25.292C44.6747 25.292 44.7695 25.3868 44.7695 25.5046M45.1946 25.498C45.1946 25.1457 44.9093 24.8604 44.5578 24.8604C44.2062 24.8604 43.9209 25.1457 43.9209 25.498C43.9209 25.8487 44.2062 26.1349 44.5578 26.1349C44.9093 26.1349 45.1946 25.8487 45.1946 25.498Z" fill="#FCD678"/>
<path d="M44.7597 25.498C44.7597 25.3803 44.6649 25.2847 44.5472 25.2847C44.4303 25.2847 44.3354 25.3803 44.3354 25.498C44.3354 25.6141 44.4303 25.7098 44.5472 25.7098C44.6649 25.7098 44.7597 25.6141 44.7597 25.498Z" fill="#FDE88E"/>
<path d="M41.4952 25.7417L41.7731 25.6796L41.8966 25.4646L41.8655 25.2798H42.204V25.6796L42.1108 25.8954V26.0189L42.1737 26.2952H42.3879L42.4501 26.2036L42.5727 26.1105H42.7264L42.7583 25.9576L42.9733 25.7417L43.1891 25.6183H43.651L43.7736 25.6494L43.8963 25.772H44.0508L44.1734 25.7107V25.557L44.2356 25.4025L44.2666 25.2798L44.3901 25.1875L44.5748 25.0329L44.7588 24.9111L44.9435 24.8482L45.0662 24.7566L45.1896 24.6332L45.2207 24.4795C45.3433 24.4182 45.4365 24.5097 45.4365 24.5097C45.5289 24.3871 45.4978 24.2947 45.4978 24.2947L45.3433 24.141L45.1594 23.9865L45.0662 23.7707V23.5867L44.9746 23.3709L45.2207 23.3407H45.4054C45.5289 23.4012 45.5902 23.4944 45.5902 23.4944C45.7136 23.4633 45.7447 23.3407 45.7447 23.3407H45.9287L46.0832 23.2483L46.1445 23.1256L46.2982 23.0022H46.7903C46.8827 23.1256 47.007 23.2172 47.007 23.2172L47.1599 23.2793C47.2841 23.3096 47.3454 23.433 47.3454 23.433C47.4378 23.4944 47.5613 23.4944 47.5613 23.4944L47.7452 23.4633L47.8687 23.433H48.1458L48.3297 23.5867L48.2374 23.8017V24.0789L48.2684 24.2636L48.4843 24.4182L48.638 24.4795L48.8227 24.6642V24.7877L48.9453 25.0329L49.0999 25.2185L48.9453 25.3722L49.0688 25.557L49.0999 25.772L48.9764 25.8652L48.9453 26.1415L49.0999 26.3884C49.0999 26.3884 49.3157 27.004 48.9151 27.2812C48.9151 27.2812 48.4843 27.5575 48.7001 27.8657C48.7001 27.8657 49.0688 28.1739 48.8849 28.42C48.8849 28.42 48.6077 28.5737 48.2684 28.3897C48.2684 28.3897 47.93 28.2352 47.8065 27.9883C47.8065 27.9883 47.6831 27.5575 47.3454 27.8346C47.3454 27.8346 46.7903 28.3587 46.7298 28.6047L46.6988 29.0658L46.5753 29.1893L46.3906 29.0658L46.2679 28.8819L46.2369 28.6669V28.4813L46.205 28.2352L46.0521 27.9883L45.8371 27.8657L45.6204 27.7733L45.4676 27.6507L45.2207 27.6188L45.0972 27.6507L45.0359 27.8657L44.9125 28.0505L44.852 28.2352L44.5748 28.3276L44.2356 28.3897H43.9895L43.7736 28.4502V28.6669L43.8963 28.7274H44.0197L44.2045 28.6669C44.2666 28.7895 44.2666 28.9432 44.2666 28.9432L44.1734 29.0977L44.0508 29.2203L43.9592 29.374L43.7426 29.4362H43.5578L43.4352 29.6201L43.4663 29.8359C43.5578 30.0207 43.651 30.0812 43.651 30.0812V30.2676L43.5276 30.3281C43.5276 30.3281 43.5578 30.4515 43.4352 30.4515C43.3117 30.4515 42.9733 30.3592 42.9733 30.3592C42.9733 30.3592 42.5122 30.3281 42.4182 30.0207C42.3266 29.7133 42.0503 29.374 42.0192 29.2514C41.9882 29.128 41.9571 28.9121 41.9571 28.9121V28.6358L41.8966 28.3897L41.7421 28.0194L41.6808 27.8657L41.4649 27.7112L41.3726 27.4349V27.2501L41.4952 27.0653H41.711L41.7421 26.9116L41.6808 26.7261L41.5573 26.6647L41.4339 26.4489L41.4028 26.1415L41.4952 25.7417ZM44.2977 27.0653L44.3279 27.2812L44.3901 27.5272L44.5438 27.6507H44.7285L44.7588 27.4962L44.8209 27.3425L44.6672 27.3114L44.5438 27.1577L44.2977 27.0653ZM43.1278 27.004L43.2202 27.2198L43.2504 27.3735L43.3428 27.5885L43.4352 27.4349V27.1888L43.4041 27.0343L43.1278 27.004ZM43.651 28.2352L43.6813 27.9581L43.5881 27.8044L43.5276 27.6809L43.4041 27.7422V27.9581L43.4352 28.2041L43.651 28.2352ZM48.2374 28.7584L48.3919 28.8508L48.5153 28.9432L48.5456 29.128L48.4229 29.1582L48.2684 29.2514L48.2995 29.0045L48.2374 28.7584Z" fill="#1C4792"/>
<path d="M49.964 23.061C53.3551 20.7563 56.3685 18.9365 57.4272 19.575C58.7435 21.273 51.0816 29.5611 47.0814 34.0102C43.2423 38.2793 34.6803 46.0516 33.7156 45.803C33.1384 45.6722 34.4023 42.9932 36.572 39.9847C34.3925 42.604 31.7502 46.1701 32.4811 46.9304C33.3485 47.7422 41.2638 41.0859 47.5907 34.3208C55.1537 26.2003 59.7662 19.866 58.7435 18.4427C57.7943 17.5672 53.1328 20.4506 49.964 23.061Z" fill="#F08F20"/>
<path d="M80.0514 37.4022C82.9029 37.327 84.139 37.9279 84.139 40.1867C84.1652 42.7309 82.9029 43.9931 80.0514 43.9719V37.4022ZM85.9793 40.2423C85.9793 38.0587 84.6647 36.8127 82.0805 36.8127H76.814L76.9407 36.852V37.4275C77.9773 37.43 78.4964 37.6638 78.4964 38.1282V48.5165C78.2365 48.958 77.459 49.2237 76.9407 49.3136V49.7755H81.8663V49.3136C80.8289 49.2147 80.2762 48.949 80.0743 48.5165L80.1217 44.3896C83.7998 44.5229 85.9041 43.0268 85.9793 40.2423Z" fill="#1C4792"/>
<path d="M46.3481 57.9901C64.9658 53.0603 86.8413 52.3017 108.745 57.9901C100.143 53.9433 89.1533 52.1349 78.5597 52.0531C69.8612 52.0131 57.5132 53.3015 46.3481 57.9901Z" fill="#F08F20"/>
<path d="M62.0558 57.295C62.3019 57.3653 62.4433 57.4013 62.4801 57.4013C62.5741 57.4013 62.6412 57.3833 62.6796 57.3465C62.7205 57.3097 62.754 57.2574 62.7826 57.1887H62.9273L62.978 58.5753H62.8276C62.6919 58.2556 62.5521 58.0177 62.409 57.8615C62.149 57.5869 61.8122 57.4487 61.3961 57.4487C60.9734 57.4487 60.6014 57.6106 60.2802 57.9319C59.9605 58.2515 59.8011 58.778 59.8011 59.5138C59.8011 60.1212 59.9605 60.5946 60.2802 60.9363C60.5998 61.2764 60.9939 61.4464 61.4639 61.4464C61.5424 61.4464 61.6364 61.4399 61.7435 61.4243C61.8506 61.4096 61.9528 61.3859 62.0493 61.3532C62.2054 61.3025 62.3027 61.2584 62.342 61.2224C62.3796 61.1832 62.4 61.1268 62.4 61.054V60.0027C62.4 59.75 62.3632 59.5914 62.2905 59.5301C62.2202 59.468 62.0632 59.4296 61.8204 59.4149V59.2922H63.4996V59.4149C63.3361 59.4255 63.2282 59.4516 63.1742 59.495C63.0843 59.5636 63.0393 59.7051 63.0393 59.9193V61.2151C63.0393 61.2919 62.8497 61.3949 62.4703 61.5241C62.0926 61.6524 61.7296 61.717 61.3805 61.717C60.7372 61.717 60.1943 61.5298 59.7528 61.1546C59.2656 60.7401 59.022 60.1858 59.022 59.4884C59.022 58.8753 59.2165 58.3504 59.6057 57.9122C60.0316 57.4299 60.5974 57.1887 61.3029 57.1887C61.558 57.1887 61.8081 57.2247 62.0558 57.295Z" fill="#1C4792"/>
<path d="M67.4985 61.5053C67.752 61.4808 67.9089 61.4318 67.9719 61.3566C68.034 61.2822 68.0651 61.1064 68.0651 60.8325V57.9801C68.0651 57.748 68.0291 57.5975 67.9588 57.5264C67.8901 57.4528 67.7364 57.4071 67.4985 57.3883V57.2656H69.3216C69.7018 57.2656 70.0182 57.3147 70.2708 57.4103C70.7515 57.5926 70.991 57.9286 70.991 58.4175C70.991 58.7445 70.8839 58.9972 70.6689 59.1729C70.4572 59.3487 70.1678 59.4648 69.8007 59.5204L71.1586 61.1898C71.2428 61.292 71.3262 61.3672 71.4096 61.4146C71.493 61.462 71.6001 61.4914 71.7317 61.5053V61.6231H70.6689L69.1001 59.5972L68.7338 59.6136V60.9102C68.7338 61.1546 68.7698 61.3091 68.8434 61.3762C68.9178 61.4408 69.0796 61.4833 69.3282 61.5053V61.6231H67.4985V61.5053ZM69.75 59.2212C70.0991 59.0773 70.2741 58.8075 70.2741 58.4102C70.2741 58.0292 70.1171 57.7684 69.8048 57.6294C69.6372 57.5542 69.4148 57.5166 69.1393 57.5166C68.9521 57.5166 68.8377 57.5313 68.7951 57.5583C68.7543 57.5845 68.7338 57.6466 68.7338 57.7455V59.3691C69.2072 59.352 69.5456 59.3029 69.75 59.2212Z" fill="#1C4792"/>
<path d="M76.4801 57.7544C76.8847 57.3669 77.3843 57.1724 77.9753 57.1724C78.5705 57.1724 79.0692 57.3678 79.4747 57.7577C79.9137 58.1804 80.1336 58.7428 80.1336 59.4467C80.1336 60.1604 79.9063 60.7286 79.4526 61.1505C79.0438 61.5274 78.5525 61.717 77.9753 61.717C77.3581 61.717 76.8463 61.5077 76.4376 61.09C76.0239 60.6632 75.8179 60.1155 75.8179 59.4467C75.8179 58.7428 76.0386 58.1787 76.4801 57.7544ZM76.9722 60.9837C77.2445 61.314 77.5797 61.4783 77.9753 61.4783C78.3637 61.4783 78.6948 61.3181 78.9695 60.996C79.2458 60.6722 79.3839 60.1555 79.3839 59.4467C79.3839 58.7281 79.245 58.209 78.9662 57.8893C78.6874 57.5705 78.3579 57.4103 77.9753 57.4103C77.5813 57.4103 77.2461 57.577 76.9722 57.909C76.7 58.2392 76.5635 58.751 76.5635 59.4467C76.5635 60.1384 76.7 60.651 76.9722 60.9837Z" fill="#1C4792"/>
<path d="M86.1399 57.2664V57.389C85.8864 57.4053 85.7221 57.4487 85.6469 57.5165C85.5725 57.5836 85.5349 57.7381 85.5349 57.9801V60.0868C85.5349 60.4318 85.5823 60.7008 85.6763 60.8937C85.8521 61.2453 86.1857 61.4211 86.6762 61.4211C87.2149 61.4211 87.5755 61.2412 87.7602 60.8807C87.8632 60.6795 87.9147 60.3689 87.9147 59.9479V58.2343C87.9147 57.8762 87.8722 57.6522 87.7864 57.5623C87.7005 57.4699 87.5378 57.4119 87.2975 57.389V57.2664H88.8222V57.389C88.5671 57.416 88.3987 57.4789 88.3202 57.5746C88.2434 57.6694 88.2041 57.8885 88.2041 58.2343V59.9479C88.2041 60.4032 88.1338 60.758 87.9948 61.0131C87.7381 61.4824 87.2484 61.717 86.5282 61.717C85.8169 61.717 85.3322 61.4856 85.0746 61.0229C84.9356 60.7736 84.8662 60.4457 84.8662 60.0378V57.9801C84.8662 57.7397 84.8286 57.5868 84.7533 57.5206C84.6806 57.4519 84.5203 57.4078 84.271 57.389V57.2664H86.1399Z" fill="#1C4792"/>
<path d="M92.8462 61.5053C93.0972 61.4808 93.2533 61.4318 93.3163 61.3566C93.3776 61.2789 93.4087 61.1048 93.4087 60.8325V57.9801C93.4087 57.7504 93.3735 57.5992 93.3024 57.5264C93.2345 57.4528 93.0825 57.4071 92.8462 57.3883V57.2656H94.5826C95.1402 57.2656 95.5669 57.3735 95.8629 57.591C96.158 57.8076 96.3068 58.0921 96.3068 58.4461C96.3068 58.8941 96.1425 59.2195 95.8155 59.4215C95.4868 59.6226 95.0764 59.7231 94.5826 59.7231C94.5123 59.7231 94.4216 59.7223 94.3096 59.7199C94.2 59.7158 94.1183 59.7133 94.0651 59.7133V60.9102C94.0651 61.1587 94.1036 61.3149 94.1788 61.3786C94.2556 61.4432 94.4257 61.4849 94.6897 61.5053V61.6239H92.8462V61.5053ZM95.0682 57.6327C94.8818 57.5518 94.6464 57.5109 94.3611 57.5109C94.2254 57.5109 94.142 57.524 94.1101 57.5526C94.0807 57.5779 94.0651 57.6368 94.0651 57.7292V59.4468C94.1829 59.4574 94.2605 59.464 94.2973 59.4656C94.3325 59.4681 94.3693 59.4681 94.4028 59.4681C94.7044 59.4681 94.944 59.4255 95.1165 59.3405C95.4329 59.1836 95.5898 58.8909 95.5898 58.4625C95.5898 58.0594 95.4157 57.7831 95.0682 57.6327Z" fill="#1C4792"/>
</svg>
