<svg width="141" height="80" viewBox="0 0 141 80" fill="none" xmlns="http://www.w3.org/2000/svg">
<path d="M75.7964 26.3149L69.5655 30.5575C83.0531 30.9501 92.2222 26.6442 92.2222 26.6442C82.4452 31.406 72.1237 31.8239 67.7925 31.7606L60.3711 36.8264C60.3711 36.8264 83.585 36.2438 98.3644 21.9836C98.3518 21.9963 89.2207 28.7591 75.7964 26.3149Z" fill="#D71920"/>
<path d="M103.721 36.7378H103.114C103.114 36.7378 103.392 37.1431 103 37.713L97.8579 44.7164L98.4784 38.0549C98.6051 37.1938 99.2763 36.7378 99.2763 36.7378H97.0853H91.5383L85.6747 44.7164L86.2952 38.0929L86.3079 38.0803C86.4219 37.2191 87.1057 36.7505 87.1057 36.7505H86.4219H79.3678C79.0005 36.7378 61.3209 35.9147 58.6741 40.6258C59.7632 38.4349 60.4977 36.8392 60.5484 36.7758H47.7193C47.8586 36.8138 48.5552 37.2064 48.3272 37.865C47.656 40.1446 46.0349 45.4256 44.2113 49.339C41.8303 54.4681 36.4606 56.3424 32.7879 57.6468C32.446 57.7735 32.4966 58.0141 32.8512 58.0141C41.9063 58.0648 49.353 57.3429 54.976 47.5913C56.2805 45.337 57.5596 42.8548 58.5601 40.8411C58.4968 40.9931 58.4461 41.1451 58.4081 41.3097C57.2556 46.5654 67.0832 46.9074 66.9313 48.1612C66.8046 49.263 60.941 48.9337 57.0783 47.6546C57.053 47.6419 57.0403 47.6419 57.0277 47.6293C56.2805 47.3886 55.9765 46.9454 55.9765 46.9454L56.0145 47.2493C56.0145 47.2493 56.0145 47.2747 56.0272 47.3L56.1792 48.7057C56.3311 50.1875 56.5338 52.2644 56.5338 52.2644C56.5338 52.2644 76.9995 54.848 77.3794 48.1992C77.6581 43.1587 67.8051 42.5508 67.9191 41.449C68.0204 40.4105 72.8202 40.2839 75.7331 40.7145C75.7457 40.7145 75.7457 40.7145 75.7584 40.7145C77.0628 40.9171 77.2401 41.6263 77.2401 41.6263L77.4554 41.1324C77.4554 41.1071 79.2158 37.0924 79.3678 36.7378L78.0507 50.884C77.9367 51.7452 77.2528 52.2138 77.2528 52.2138H78.6332H84.9781L90.8544 44.2352L90.2339 50.8967C90.1199 51.7579 89.436 52.2265 89.436 52.2265H90.1072H97.1613L108.547 36.7505L103.721 36.7378Z" fill="#16469D"/>
</svg>
