<svg width="141" height="80" viewBox="0 0 141 80" fill="none" xmlns="http://www.w3.org/2000/svg">
<path d="M51.7092 34.1731C53.9209 34.2279 64.6091 34.6687 70.0335 34.6491C75.456 34.6687 86.1461 34.2299 88.3578 34.1731C88.5106 34.1692 88.587 34.2456 88.5968 34.3592C88.6047 34.175 88.6066 33.9889 88.6066 33.8009C88.6066 33.6148 88.6027 33.4306 88.5968 33.2426C88.587 33.3601 88.5106 33.4326 88.3578 33.4306C86.1461 33.3718 75.454 32.9311 70.0335 32.9585C64.6072 32.933 53.9209 33.3718 51.7092 33.4306C51.5584 33.4345 51.482 33.366 51.4683 33.2523C51.4624 33.4326 51.4585 33.6167 51.4585 33.8009C51.4585 33.985 51.4624 34.1692 51.4683 34.3494C51.482 34.2397 51.5584 34.1692 51.7092 34.1731Z" fill="white"/>
<path d="M51.584 31.9377C51.6271 31.7731 51.7505 31.6889 51.919 31.6948C52.0855 31.6987 64.4858 32.4078 70.0336 32.4529C75.5776 32.4059 87.9818 31.6967 88.1483 31.6948C88.3188 31.6889 88.4461 31.781 88.4853 31.9514C88.4324 31.5577 88.3638 31.1698 88.2815 30.7858C88.2854 30.9367 88.1601 31.0346 88.0151 31.0346C85.7113 30.9915 73.7302 30.729 70.0317 30.729C66.3371 30.729 54.3559 30.9915 52.0522 31.0346C51.9013 31.0346 51.776 30.9288 51.7858 30.776C51.7035 31.16 51.6369 31.5479 51.584 31.9377Z" fill="white"/>
<path d="M52.1267 29.5085C52.1816 29.391 52.258 29.3342 52.3931 29.3381C54.6871 29.4655 70.0357 30.3235 70.0357 30.3235C70.0357 30.3235 85.3862 29.4655 87.6841 29.3381C87.8095 29.3381 87.8839 29.3871 87.9368 29.4948C87.8252 29.1403 87.6978 28.7896 87.5568 28.4448C87.6214 28.6329 87.5235 28.7504 87.3393 28.7524C86.9515 28.7524 78.9863 28.8523 78.9863 28.8523H61.0851C61.0851 28.8523 53.118 28.7524 52.734 28.7524C52.5498 28.7485 52.4519 28.6348 52.5107 28.4585C52.3696 28.7994 52.2403 29.154 52.1267 29.5085Z" fill="white"/>
<path d="M87.9346 38.1106C87.8818 38.2184 87.8073 38.2693 87.6819 38.2654C85.384 38.14 70.0335 37.28 70.0335 37.28C70.0335 37.28 54.6849 38.14 52.3909 38.2654C52.2558 38.2693 52.1813 38.2164 52.1245 38.0969C52.2381 38.4515 52.3674 38.8002 52.5085 39.145C52.4497 38.9667 52.5476 38.8492 52.7279 38.8492C53.1158 38.8453 61.081 38.7512 61.081 38.7512H78.9821C78.9821 38.7512 86.9493 38.8453 87.3352 38.8492C87.5193 38.8492 87.6173 38.9745 87.5526 39.1548C87.6956 38.81 87.823 38.4652 87.9346 38.1106Z" fill="white"/>
<path d="M88.4872 35.6519C88.448 35.8223 88.3207 35.9144 88.1503 35.9085C87.9838 35.9026 75.5795 35.1954 70.0356 35.1504C64.4897 35.1954 52.0894 35.9026 51.9209 35.9085C51.7525 35.9164 51.629 35.8302 51.5859 35.6617C51.6388 36.0554 51.7035 36.4472 51.7897 36.8312C51.7799 36.6725 51.9072 36.5648 52.0561 36.5687C54.3599 36.6118 66.341 36.8743 70.0356 36.8743C73.7341 36.8743 85.7153 36.6118 88.019 36.5687C88.164 36.5648 88.2894 36.6666 88.2854 36.8175C88.3658 36.4374 88.4343 36.0476 88.4872 35.6519Z" fill="white"/>
<path d="M70.0336 17.7156C78.1241 17.7156 85.0237 22.2075 87.5468 28.4292C87.6252 28.6232 87.5272 28.7544 87.3372 28.7544C86.9493 28.7544 78.9841 28.8543 78.9841 28.8543H61.083C61.083 28.8543 53.1158 28.7544 52.7299 28.7544C52.5399 28.7544 52.4419 28.6232 52.5203 28.4292C55.0435 22.2095 61.943 17.7156 70.0336 17.7156Z" fill="#007EC5"/>
<path d="M70.0335 30.7292C73.7321 30.7292 85.7132 30.9917 88.0169 31.0348C88.1756 31.0348 88.3088 30.9172 88.2794 30.7448C88.2442 30.5352 88.013 29.7105 87.9582 29.5479C87.9053 29.399 87.8269 29.3344 87.6819 29.3383C85.3841 29.4656 70.0335 30.3237 70.0335 30.3237C70.0335 30.3237 54.6849 29.4656 52.3909 29.3383C52.2421 29.3344 52.1637 29.401 52.1128 29.5479C52.054 29.7125 51.8268 30.5352 51.7915 30.7448C51.7621 30.9153 51.8934 31.0348 52.054 31.0348C54.3578 30.9917 66.3389 30.7292 70.0335 30.7292Z" fill="#007EC5"/>
<path d="M70.0337 32.9583C75.4561 32.9328 86.1462 33.3716 88.3579 33.4304C88.5244 33.4343 88.5969 33.3442 88.5969 33.2129C88.5969 32.9504 88.5186 32.1453 88.4911 31.9788C88.4618 31.7888 88.3266 31.683 88.1464 31.6928C87.9799 31.6967 75.5756 32.4058 70.0317 32.4509C64.4858 32.4039 52.0855 31.6947 51.917 31.6928C51.7368 31.683 51.6016 31.7888 51.5722 31.9788C51.5429 32.1453 51.4665 32.9504 51.4665 33.2129C51.4625 33.3442 51.5389 33.4323 51.7074 33.4304C53.9211 33.3716 64.6092 32.9328 70.0337 32.9583Z" fill="#007EC5"/>
<path d="M70.0336 49.8919C78.1241 49.8919 85.0237 45.398 87.5468 39.1763C87.6252 38.9785 87.5272 38.8511 87.3372 38.8511C86.9493 38.8472 78.9841 38.7532 78.9841 38.7532H61.083C61.083 38.7532 53.1158 38.8472 52.7299 38.8511C52.5399 38.8511 52.4419 38.9785 52.5203 39.1763C55.0435 45.398 61.943 49.8919 70.0336 49.8919Z" fill="#007EC5"/>
<path d="M70.0335 36.8745C73.7321 36.8745 85.7132 36.612 88.0169 36.5689C88.1756 36.565 88.3088 36.6865 88.2794 36.8608C88.2442 37.0665 88.013 37.8952 87.9582 38.0558C87.9053 38.2066 87.8269 38.2693 87.6819 38.2654C85.3841 38.1361 70.0335 37.2801 70.0335 37.2801C70.0335 37.2801 54.6849 38.1361 52.3909 38.2654C52.2421 38.2693 52.1637 38.2066 52.1128 38.0558C52.054 37.8952 51.8268 37.0665 51.7915 36.8608C51.7621 36.6865 51.8934 36.565 52.054 36.5689C54.3578 36.612 66.3389 36.8745 70.0335 36.8745Z" fill="#007EC5"/>
<path d="M70.0337 34.6451C75.4561 34.6686 86.1462 34.2278 88.3579 34.173C88.5244 34.1691 88.5969 34.2553 88.5969 34.3885C88.5969 34.649 88.5186 35.4522 88.4911 35.6226C88.4618 35.8126 88.3266 35.9145 88.1464 35.9086C87.9799 35.9028 75.5756 35.1956 70.0317 35.1505C64.4858 35.1956 52.0855 35.9028 51.917 35.9086C51.7368 35.9165 51.6016 35.8146 51.5722 35.6226C51.5429 35.4522 51.4665 34.6471 51.4665 34.3885C51.4625 34.2553 51.5389 34.1691 51.7074 34.173C53.9211 34.2278 64.6092 34.6686 70.0337 34.6451Z" fill="#007EC5"/>
<path d="M41.5659 61.3303C40.7921 61.3303 39.5736 60.7563 39.5736 58.9071C39.5736 57.0558 40.7881 56.4662 41.5659 56.4662C42.3436 56.4662 43.5542 57.0558 43.5542 58.9071C43.5562 60.7622 42.3416 61.3303 41.5659 61.3303ZM41.56 55.5337C39.7714 55.5337 38.3179 57.0441 38.3179 58.909C38.3179 60.77 39.7714 62.2843 41.56 62.2843C43.3524 62.2843 44.806 60.77 44.806 58.909C44.808 57.0441 43.3524 55.5337 41.56 55.5337Z" fill="#231F20"/>
<path d="M91.4472 61.3303C90.6734 61.3303 89.4549 60.7563 89.4549 58.9071C89.4549 57.0558 90.6695 56.4662 91.4472 56.4662C92.2249 56.4662 93.4375 57.0558 93.4375 58.9071C93.4375 60.7622 92.221 61.3303 91.4472 61.3303ZM91.4413 55.5337C89.6528 55.5337 88.2012 57.0441 88.2012 58.909C88.2012 60.77 89.6528 62.2843 91.4413 62.2843C93.2338 62.2843 94.6874 60.77 94.6874 58.909C94.6874 57.0441 93.2338 55.5337 91.4413 55.5337Z" fill="#231F20"/>
<path d="M32.1567 55.6885H33.3282V62.1276H32.1567V55.6885Z" fill="#231F20"/>
<path d="M53.0767 55.6885H54.2481V62.1276H53.0767V55.6885Z" fill="#231F20"/>
<path d="M78.7688 55.6885H79.9403V62.1276H78.7688V55.6885Z" fill="#231F20"/>
<path d="M59.6001 56.5502H60.1133L60.1721 55.7196C59.9154 55.6902 59.7235 55.6765 59.4629 55.6765C56.9711 55.6765 55.3667 57.0067 55.3667 58.9069C55.3667 60.811 56.9711 62.1372 59.4629 62.1372C59.7235 62.1372 59.9154 62.1235 60.1721 62.098L60.1133 61.2655H59.6001C57.8311 61.2655 56.6655 60.3467 56.6655 58.901C56.6655 57.4533 57.837 56.5502 59.6001 56.5502Z" fill="#231F20"/>
<path d="M50.4261 59.532C50.4261 59.5457 50.4222 59.5496 50.4163 59.5379C49.5602 57.9629 47.7325 56.3075 46.6198 55.6885H45.8225V62.1276H46.9254C46.9254 62.1276 46.8804 57.1655 46.8804 57.1558C46.8804 57.1362 46.8823 57.1322 46.8941 57.1362C48.283 58.0941 49.7894 59.9453 50.5828 62.1276H51.4879V55.6885H50.383C50.3811 55.6885 50.4261 59.5242 50.4261 59.532Z" fill="#231F20"/>
<path d="M86.1012 59.532C86.1012 59.5457 86.0953 59.5496 86.0894 59.5379C85.2353 57.9629 83.4076 56.3075 82.2949 55.6885H81.4937V62.1276H82.5966C82.5966 62.1276 82.5515 57.1655 82.5515 57.1558C82.5515 57.1362 82.5554 57.1322 82.5672 57.1362C83.9561 58.0941 85.4625 59.9453 86.254 62.1276H87.1629V55.6885H86.0581C86.0542 55.6885 86.1012 59.5242 86.1012 59.532Z" fill="#231F20"/>
<path d="M60.5325 62.1275H61.6413C61.6413 62.1275 63.3749 58.0196 63.4396 57.8805C63.516 58.0215 65.5788 62.1275 65.5788 62.1275H66.9031L63.4572 55.561L60.5325 62.1275Z" fill="#231F20"/>
<path d="M105.499 55.561L102.574 62.1275H103.683C103.683 62.1275 105.417 58.0196 105.481 57.8805C105.56 58.0215 107.621 62.1275 107.621 62.1275H108.947L105.499 55.561Z" fill="#231F20"/>
<path d="M35.4126 58.3076C36.0924 57.6044 37.9299 55.6885 37.9299 55.6885H36.5214L33.8435 58.5074C35.1306 59.3498 36.2041 60.5056 36.8662 62.1276H38.0964C37.5891 60.6055 36.6135 59.2088 35.4126 58.3076Z" fill="#231F20"/>
<path d="M96.8753 55.6885H95.7039V62.1276H99.4259V61.2343H96.8753V55.6885Z" fill="#231F20"/>
<path d="M103.313 55.6885H98.8716V56.5818H100.507V62.1276H101.679V56.5818H103.315V55.6885" fill="#231F20"/>
<path d="M74.0144 58.8522C73.8968 59.0755 73.7323 59.5026 73.6206 59.8043C73.6167 59.8102 73.6069 59.8102 73.603 59.8043C73.4952 59.5085 73.3307 59.0775 73.2151 58.8581C72.6529 57.6925 71.7674 56.0901 71.2405 55.5298C70.9309 56.0998 69.7046 61.0502 69.448 62.1276H70.6234C70.6234 62.1276 71.5461 57.908 71.55 57.8943C71.5539 57.8806 71.5598 57.8747 71.5657 57.8845C71.9692 58.5055 72.7508 60.104 73.223 61.5556H74.0007C74.4336 60.1961 75.2485 58.4957 75.6482 57.8766C75.654 57.8727 75.6599 57.8766 75.6599 57.8864C75.6638 57.8962 76.6022 62.1315 76.6022 62.1315H77.7776C77.517 61.0561 76.2946 56.1057 75.9832 55.5337C75.4464 56.092 74.5766 57.6945 74.0144 58.8522Z" fill="#231F20"/>
</svg>
