<svg width="141" height="80" viewBox="0 0 141 80" fill="none" xmlns="http://www.w3.org/2000/svg">
<path d="M112.404 31.6621C113.212 31.6621 113.863 31.0122 113.863 30.2083C113.863 29.4043 113.212 28.7545 112.404 28.7545C111.601 28.7545 110.949 29.4043 110.949 30.2083C110.949 31.0122 111.601 31.6621 112.404 31.6621ZM112.417 28.9742C113.099 28.9742 113.652 29.525 113.652 30.2083C113.652 30.8904 113.099 31.4423 112.417 31.4423C111.735 31.4423 111.181 30.8904 111.181 30.2083C111.181 29.525 111.735 28.9742 112.417 28.9742ZM112.025 30.3157H112.494C112.578 30.3157 112.64 30.3251 112.677 30.3457C112.75 30.3777 112.786 30.4436 112.789 30.5452L112.802 30.7958C112.805 30.8556 112.808 30.8962 112.811 30.9166C112.818 30.9369 112.822 30.9547 112.83 30.9681H113.082V30.9322C113.049 30.9177 113.027 30.8879 113.016 30.8401C113.008 30.8114 113.002 30.7686 112.999 30.7102L112.993 30.5068C112.989 30.4186 112.972 30.3563 112.943 30.3157C112.915 30.2751 112.867 30.2453 112.808 30.2211C112.877 30.1855 112.93 30.1387 112.966 30.0828C113.005 30.023 113.024 29.9501 113.024 29.8583C113.024 29.6825 112.952 29.5643 112.808 29.5012C112.734 29.4653 112.638 29.4486 112.524 29.4486H111.819V30.9681H112.025V30.3157ZM112.025 29.6263H112.527C112.599 29.6263 112.655 29.6358 112.697 29.6564C112.775 29.697 112.815 29.771 112.815 29.8784C112.811 29.9802 112.786 30.0481 112.73 30.0876C112.674 30.1248 112.595 30.1449 112.5 30.1449H112.025V29.6263ZM48.3539 40.0552C48.2474 39.8972 48.2991 39.6799 48.4055 39.5439L54.1393 32.5913C54.4864 32.2257 54.7241 31.7589 54.8836 31.2893C55.0321 30.6478 54.8523 29.9646 54.4472 29.4736C54.0388 28.9873 53.3807 28.6671 52.7819 28.8092C51.8651 28.8716 51.3069 29.784 50.7846 30.4448L47.2012 35.1729C46.7823 35.7571 46.3723 36.2671 45.8954 36.7831C45.6356 36.8893 45.4058 36.7222 45.2808 36.526L40.3636 29.9849L39.6987 29.219C39.1903 28.7817 38.4303 28.6543 37.9063 28.8357C37.1635 28.9803 36.735 29.6386 36.5756 30.3168L36.5611 38.7243C36.638 39.3024 36.4331 39.7753 36.2156 40.234C35.6732 41.2436 34.4751 41.6915 33.4254 41.5875C32.4401 41.4359 31.3889 40.5912 31.1984 39.594V30.778C31.1296 30.4303 31.1014 30.0586 30.942 29.7554C30.5728 29.0685 29.8535 28.7244 29.1494 28.7328C28.466 28.8212 27.8248 29.2226 27.5355 29.8569C27.4807 30.0013 27.4292 30.1426 27.3823 30.2918V38.5713C27.3852 39.4696 27.52 40.3189 27.8169 41.1026C28.5051 43.2255 30.6808 44.6935 32.7842 45.0637C35.0833 45.4916 37.5012 44.6876 39.059 42.7378C40.3758 40.9627 40.2101 38.5368 40.2101 36.1942L40.2866 36.0926C41.1047 36.9322 41.7837 37.9287 42.5405 38.8523C42.75 39.1925 43.1475 39.4612 43.1034 39.9272C42.3153 41.0213 41.413 42.106 40.5948 43.1464L36.882 47.7205C36.5879 48.2078 36.4471 48.9209 36.7021 49.4847C37.0742 50.173 37.8095 50.6521 38.6228 50.6351C39.3372 50.609 39.8896 49.9329 40.3133 49.4336L44.3063 44.4259L45.3575 43.1203C45.4747 42.9445 45.6685 42.8407 45.8687 42.8911C46.6663 43.6912 47.2355 44.6111 47.9691 45.4975L51.4504 50.0464C51.7558 50.462 52.2984 50.6724 52.8333 50.7631C53.5979 50.8323 54.1924 50.4284 54.602 49.8169C54.9619 49.2672 54.8711 48.3728 54.5489 47.8484L48.3539 40.0552ZM34.3466 46.9908L26.0762 46.9799C25.6462 47.0169 25.6617 46.7254 25.5896 46.5713V31.0587C25.5803 30.5953 25.5023 30.1554 25.3084 29.7793C24.9203 29.1211 24.2353 28.6543 23.4127 28.7843C22.7121 28.8977 22.1536 29.3876 21.9286 30.0614L21.9019 49.0489L22.0051 49.4086C22.1738 49.9699 22.8136 50.4991 23.4127 50.6101L34.3466 50.609C34.8518 50.481 35.299 50.2123 35.5995 49.7404C35.8889 49.2986 35.9091 48.565 35.6777 48.1049C35.415 47.5616 34.8581 47.1566 34.3466 46.9908ZM89.9733 34.3116C88.907 34.3116 88.0065 35.0246 88.0065 35.9026L88.025 49.3473C88.025 50.2267 88.8884 50.9372 89.9567 50.9372C91.023 50.9372 91.8895 50.2267 91.8895 49.3473L91.9069 35.9026C91.9069 35.0246 91.0407 34.3116 89.9733 34.3116ZM117.794 29.2691C116.853 29.0758 116.098 29.574 115.567 30.1638C114.269 31.7718 113.058 33.4576 111.879 35.1215L107.4 41.2818C105.948 43.2505 104.444 45.3637 102.969 47.3382C102.498 47.3441 102.051 47.1975 101.663 47.0562C99.0043 46.1318 96.7835 43.4928 96.6708 40.6678C96.3425 37.9921 97.5778 35.6542 99.6394 34.0738C100.375 33.5599 101.188 33.0681 102.123 32.8984C103.765 32.2881 105.777 32.6714 107.348 33.2567C107.772 33.3691 108.372 33.4971 108.783 33.1552C109.38 32.9974 109.73 32.3273 109.882 31.7732C110.046 30.8567 109.507 30.0219 108.833 29.6002C105.601 28.0411 101.167 28.3614 98.1549 30.2153C94.3969 32.3965 92.0476 36.6457 92.548 41.1791C92.9316 45.5809 96.4647 49.7084 100.742 50.9158C102.224 51.1642 104.303 52.077 105.529 50.6351C108.732 46.3098 111.713 41.8456 115.004 37.5236L115.132 37.4986C115.145 37.532 115.217 37.5715 115.261 37.6277L115.27 49.6389C115.27 50.518 116.19 51.2312 117.256 51.2312C118.323 51.2312 119.189 50.518 119.189 49.6389L119.202 30.5978C118.984 29.9707 118.401 29.4149 117.794 29.2691ZM90.4742 28.9633V28.9373H73.4655C73.1513 28.992 72.6449 29.2085 72.3963 29.3481C71.8618 29.8428 71.5684 30.5463 71.7559 31.2893C71.8435 31.9703 72.3444 32.6928 73.1732 32.8111C73.2169 32.8088 73.5172 32.8161 75.6489 32.8161C75.7603 32.8339 75.9757 32.8984 75.9948 33.1288L76.1073 49.3273C76.1073 50.2064 76.8751 50.9158 77.9434 50.9158C79.0094 50.9158 79.8419 50.2064 79.8419 49.3273L79.8733 33.3332L79.9247 33.1037C79.9972 32.9532 80.0991 32.9018 80.2564 32.8219H82.254C82.373 32.8698 82.6356 32.9796 82.6136 33.2996L82.6087 49.3415C82.6087 50.2181 83.4753 50.9314 84.5421 50.9314C85.6084 50.9314 86.4752 50.2181 86.4752 49.3415L86.4798 33.1288C86.5252 33.0036 86.6516 32.8756 86.786 32.8208L89.6542 32.8219C90.4211 32.8194 91.2339 32.6152 91.6772 32.0023C92.0291 31.5414 92.1318 30.877 91.9849 30.2918C91.722 29.6502 91.1323 29.0816 90.4742 28.9633ZM63.292 28.5703C57.0311 28.5703 51.9528 33.6354 51.9528 39.8877C51.9528 46.1378 57.0311 51.204 63.292 51.204C69.5539 51.204 74.6311 46.1378 74.6311 39.8877C74.6311 33.6354 69.5539 28.5703 63.292 28.5703ZM63.2588 47.4445C59.0784 47.4445 55.6877 44.0603 55.6877 39.8877C55.6877 35.714 59.0784 32.3309 63.2588 32.3309C67.441 32.3309 70.8306 35.714 70.8306 39.8877C70.8306 44.0603 67.441 47.4445 63.2588 47.4445Z" fill="#00447C"/>
</svg>
