<svg width="141" height="80" viewBox="0 0 141 80" fill="none" xmlns="http://www.w3.org/2000/svg">
<path d="M61.527 11.7954C71.1371 10.6233 86.3139 15.198 90.8839 31.3229C95.3974 30.5668 100.475 30.1131 105.045 30.1887C98.9142 16.5591 84.0948 8.29818 68.1281 9.35679C61.6211 9.77267 52.8949 12.3058 48.3813 16.8049C48.4002 16.8049 48.4002 16.786 48.419 16.786C50.0739 15.3115 54.5875 12.7217 61.527 11.7954Z" fill="url(#paint0_linear_263_2686)"/>
<path d="M73.1685 36.2001C77.8701 34.4232 82.7409 32.9676 87.7058 31.9279C85.0165 15.6518 64.3859 6.72921 48.4192 16.786C48.4192 16.786 48.4004 16.786 48.4004 16.8049C61.264 10.0752 75.1243 20.321 73.1685 36.2001Z" fill="url(#paint1_linear_263_2686)"/>
<path d="M36.665 57.3344C45.2784 50.3589 58.1984 42.0224 69.896 37.5044C73.488 18.3738 58.0103 11.6441 48.1746 17.0505C48.1746 17.0505 48.1746 17.0505 48.1558 17.0694C65.2884 12.3813 57.0324 37.6934 36.665 57.3344Z" fill="url(#paint2_linear_263_2686)"/>
<path d="M72.7476 66.8987C72.7476 66.9365 72.7476 71.2654 72.7476 71.2654H74.1769V66.8042C74.1769 66.5395 74.1581 66.2938 74.1016 66.1236C73.9888 65.6321 73.5374 65.2162 73.0297 65.0839C72.3526 64.8949 71.1114 64.9705 71.1114 64.9705V62.7209H69.6821V71.2654H71.1114V66.2748H71.2243C71.9013 66.2559 72.3338 66.2749 72.5031 66.3505C72.6912 66.4639 72.7476 66.7285 72.7476 66.8987Z" fill="#514E4F"/>
<path d="M100.224 71.2654H101.615V62.7209H100.224V71.2654Z" fill="#514E4F"/>
<path d="M91.3658 65.1972C91.3658 65.1972 91.347 65.1972 91.3658 65.1972C90.6323 65.5564 90.5007 66.3126 90.4631 67.0876L90.4443 67.3523C90.4255 68.2785 90.4067 69.3371 90.67 70.2445C90.8204 70.736 91.3094 71.133 91.8548 71.2275C92.6258 71.3598 94.5817 71.2842 94.5817 71.2842V70.0366L92.7575 70.0177C92.5694 70.0177 92.4002 69.9988 92.2497 69.9232C91.9488 69.7719 91.9112 69.4506 91.8924 69.0914C91.8924 69.0158 91.8736 68.9402 91.8736 68.8646C91.8924 68.581 91.8736 68.3163 91.8736 68.0706C91.8736 67.5791 91.8548 67.1065 91.9676 66.6339C92.0428 66.4638 92.1557 66.3315 92.3249 66.3126C92.8891 66.218 94.5817 66.2747 94.5817 66.2747V64.9893C94.5817 64.9704 92.1933 64.857 91.3658 65.1972Z" fill="#514E4F"/>
<path d="M42.582 64.1765H43.9925V62.7209H42.582V64.1765Z" fill="#514E4F"/>
<path d="M42.582 71.2655H43.9925V64.9517H42.582V71.2655Z" fill="#514E4F"/>
<path d="M58.6992 64.1765H60.1285V62.7209H58.6992V64.1765Z" fill="#514E4F"/>
<path d="M58.6992 71.2843H60.1285V64.9705H58.6992V71.2843Z" fill="#514E4F"/>
<path d="M88.2627 64.2143H89.6732V62.7209H88.2627V64.2143Z" fill="#514E4F"/>
<path d="M88.2627 71.2655H89.6732V64.9517H88.2627V71.2655Z" fill="#514E4F"/>
<path d="M83.1476 66.8042C83.1476 66.842 83.1476 71.2654 83.1476 71.2654H84.6333V66.7285C84.6333 66.634 84.6521 66.5206 84.7086 66.4261C84.765 66.2938 84.9154 66.237 85.0471 66.2181C85.3856 66.1803 85.4796 66.1803 85.8181 66.2559C86.0626 66.3316 86.0626 66.5773 86.0626 66.8609V71.2843H87.4919V67.2767C87.4919 66.8042 87.5107 66.3127 87.3415 65.8401C87.097 65.3297 86.5704 65.0272 85.7993 64.9327H85.6865C85.0471 64.9138 84.3888 64.9138 83.8435 65.2351L83.8059 65.254L83.7682 65.2351C83.4297 65.0272 83.016 64.9705 82.7151 64.9516C82.6775 64.9516 80.7028 64.9516 80.3267 64.9516V71.2465H81.7371V66.2748C81.7371 66.2748 82.8091 66.1803 83.0348 66.4072C83.11 66.5206 83.1288 66.634 83.1476 66.8042Z" fill="#514E4F"/>
<path d="M77.0733 69.9799L76.904 69.961C76.4151 69.8854 76.4527 68.9591 76.4527 68.6945V68.6378H79.5558C79.5558 68.3353 79.5934 67.0121 79.4805 66.426V66.3504C79.4429 66.1236 79.4053 65.9913 79.3301 65.8589C79.3113 65.8211 79.2549 65.7077 79.2549 65.7077C79.0104 65.2729 78.5402 65.0272 77.8444 64.9894C77.8444 64.9894 77.5623 64.9705 77.4494 64.9705C76.904 64.9705 76.3399 64.9705 75.8509 65.1973C75.1739 65.5376 75.061 66.3315 75.0234 66.8797L75.0046 67.5036C75.0046 68.392 74.967 69.3939 75.2491 70.3013C75.4183 70.8495 75.9825 71.1898 76.4527 71.2654C77.3742 71.3599 79.5746 71.3032 79.5746 71.3032V69.9989C79.236 70.0178 77.7315 69.9989 77.0733 69.9799ZM76.622 66.3504L76.7536 66.2748C77.1297 66.1047 77.4494 66.1614 77.788 66.237L77.882 66.2937C77.9196 66.3315 77.976 66.3882 78.0324 66.4828C78.1077 66.634 78.1453 66.9743 78.1265 67.2767C78.1265 67.2956 78.1265 67.3901 78.1265 67.3901H76.4339C76.4527 67.3901 76.3963 66.5395 76.622 66.3504Z" fill="#514E4F"/>
<path d="M99.4717 66.9932C99.4717 66.5584 99.4717 66.048 99.2272 65.6699C99.0203 65.2351 98.569 64.9705 98.08 64.9705L95.2779 64.9894V66.2937C95.2779 66.2937 97.3842 66.2748 97.4218 66.2748C97.6287 66.2748 97.7979 66.2748 97.9296 66.3693C98.08 66.5017 98.08 66.7096 98.08 66.9364V67.0688C98.08 67.0688 96.4815 67.4847 96.3498 67.5225C96.0113 67.617 95.6352 67.7304 95.3907 68.0896C94.9582 68.8079 95.0334 69.8098 95.3343 70.4336C95.7104 71.1709 96.5191 71.2843 97.1773 71.2843H99.4717C99.4717 71.2654 99.4905 67.1444 99.4717 66.9932ZM98.08 69.9421C98.08 69.9421 96.9704 69.961 96.7636 69.9421C96.6883 69.9232 96.5943 69.8098 96.5379 69.6586C96.5379 69.6397 96.5191 69.583 96.5003 69.4506C96.4815 69.0537 96.5003 68.8457 96.726 68.7323C97.0457 68.6 98.0612 68.4109 98.0612 68.4109V69.9421" fill="#514E4F"/>
<path d="M46.7761 69.9611C46.588 69.9044 46.4376 69.8288 46.4376 69.5641C46.4564 69.2995 46.4376 69.5641 46.4376 69.5641V66.2938H47.7164V64.9516H46.4376V62.7209H45.0459C45.0459 62.7209 45.0459 69.5641 45.0459 69.8099C45.0459 70.0178 45.1587 70.3013 45.1587 70.3013C45.6289 71.3789 46.9453 71.3032 47.5848 71.2654H47.7164V69.9989C47.7352 69.9989 46.9642 70.0178 46.7761 69.9611Z" fill="#514E4F"/>
<path d="M56.3106 64.9517V69.9233C56.3106 69.9233 55.295 69.9422 54.9377 69.9044C54.7496 69.9044 54.6744 69.6398 54.6744 69.4508C54.6744 69.4318 54.6744 69.4697 54.6744 69.4508V64.9517H53.2451V69.4886C53.2639 69.7154 53.2827 70.0368 53.4144 70.3203C53.6965 70.9441 54.2607 71.2655 55.107 71.2655H57.721V64.9517H56.3106Z" fill="#514E4F"/>
<path d="M52.0604 67.9763C51.5526 67.7305 51.1013 67.5793 50.6311 67.447C50.3866 67.3713 50.1045 67.2957 49.86 67.2012C49.6344 67.1067 49.672 66.7853 49.7096 66.4829C49.7284 66.4072 49.7848 66.256 49.9729 66.256C50.6499 66.2371 52.3801 66.256 52.3801 66.256V64.9517H50.255C49.5967 64.9517 48.8633 64.9517 48.4872 65.6511C48.2991 66.0859 48.2427 66.6719 48.2991 67.2768C48.4307 68.2409 49.2958 68.4678 49.9917 68.6568C50.1797 68.7135 50.5747 68.8458 50.7439 68.9025L50.8192 68.9214C50.9508 68.9593 51.1013 69.016 51.1953 69.1105C51.3081 69.2617 51.2893 69.5642 51.2141 69.7721C51.1765 69.8666 51.1013 69.9612 50.932 69.9801L49.4839 69.9612H48.2427V71.2466C48.2427 71.2466 50.6123 71.2655 51.4398 71.2088C51.9852 71.1332 52.4741 70.6606 52.6058 70.0746C52.7562 69.3373 52.7186 68.3921 52.0604 67.9763Z" fill="#514E4F"/>
<path d="M106.073 67.9952C106.054 67.9763 105.96 67.9195 105.96 67.9195C105.584 67.7116 105.264 67.6171 104.888 67.5226L104.644 67.4659C104.399 67.3902 104.136 67.3146 103.872 67.2201C103.647 67.0878 103.647 66.9366 103.666 66.5774L103.703 66.4262C103.741 66.3316 103.854 66.256 103.985 66.256C104.173 66.256 104.587 66.256 105.001 66.2182H106.393V64.9706H104.775C104.606 64.9517 104.305 64.9517 104.136 64.9517C103.478 64.9517 102.876 64.9895 102.5 65.67C102.312 66.1048 102.255 66.6719 102.312 67.2768C102.443 68.2409 103.308 68.4867 104.004 68.6568C104.249 68.7135 104.474 68.7702 104.662 68.8647C104.719 68.8836 104.794 68.9025 104.85 68.9214C104.982 68.9593 105.114 68.9971 105.227 69.1105C105.358 69.2617 105.321 69.602 105.245 69.791C105.227 69.8477 105.151 69.999 104.944 69.999L104.098 69.9801H102.274V71.2466H104.286C104.756 71.2466 105.189 71.2466 105.471 71.2088C106.016 71.1332 106.505 70.6606 106.637 70.0746C106.825 69.2239 106.656 68.4678 106.167 68.0141L106.073 67.9952Z" fill="#514E4F"/>
<path d="M65.4318 64.5356C65.5259 64.2521 65.8268 64.1008 66.1465 64.1008H68.9298V62.7398C68.9298 62.7398 67.4817 62.7398 67.2373 62.7398C65.996 62.7209 64.6044 62.702 64.0402 64.063C63.7393 64.9137 63.7957 65.8589 63.7393 66.7663V66.9742V67.5602C63.7769 68.3731 63.8145 69.2049 64.059 69.9232C64.3975 70.8495 65.3566 71.2843 66.1465 71.3032C66.1841 71.3032 68.911 71.2843 68.911 71.2843V69.9799H66.4098C66.1465 69.961 65.9208 69.9232 65.7515 69.7909C65.5259 69.6396 65.4318 69.4317 65.3754 69.1292C65.2814 68.2219 65.225 65.1784 65.4318 64.5356Z" fill="#514E4F"/>
<path d="M39.5355 62.7209L38.1062 67.7682L36.564 62.7209H34.5518V71.2654H35.9058V64.9705L37.4291 69.9422H38.802L40.2313 65.0083V71.2654H41.6042V62.7209" fill="#514E4F"/>
<defs>
<linearGradient id="paint0_linear_263_2686" x1="54.641" y1="23.8429" x2="89.5368" y2="19.39" gradientUnits="userSpaceOnUse">
<stop stop-color="#1F4FA2"/>
<stop offset="1" stop-color="#0499DB"/>
</linearGradient>
<linearGradient id="paint1_linear_263_2686" x1="53.9189" y1="26.3056" x2="88.8175" y2="21.8545" gradientUnits="userSpaceOnUse">
<stop stop-color="#1F4FA2"/>
<stop offset="1" stop-color="#0499DB"/>
</linearGradient>
<linearGradient id="paint2_linear_263_2686" x1="47.046" y1="32.3344" x2="91.316" y2="26.0737" gradientUnits="userSpaceOnUse">
<stop stop-color="#1F4FA2"/>
<stop offset="1" stop-color="#0499DB"/>
</linearGradient>
</defs>
</svg>
