<svg width="177" height="56" viewBox="0 0 177 56" fill="none" xmlns="http://www.w3.org/2000/svg">
<g clip-path="url(#clip0_3803_1298)">
<path d="M135.185 30.8989C134.923 31.8532 134.381 32.6568 133.557 33.3046C132.733 33.9539 131.854 34.277 130.921 34.277H97.6412C96.7112 34.277 96.0157 33.9539 95.5603 33.3046C95.1004 32.6568 95.0019 31.8532 95.261 30.8989L102.663 3.66928C102.924 2.71494 103.46 1.90306 104.274 1.23915C105.087 0.571706 105.959 0.23877 106.892 0.23877H140.169C141.133 0.23877 141.846 0.565016 142.304 1.21279C142.761 1.86056 142.855 2.68031 142.584 3.66928L141.709 6.89278H108.432L102.799 27.6246H136.073L135.185 30.8989Z" fill="#3A4683"/>
<path d="M145.607 34.2754H138.964L148.2 0.283203H154.843L145.607 34.2754Z" fill="#3A4683"/>
<path d="M54.352 0.217529H47.7093L41.6555 22.4936L14.9605 0.26987L5.69659 34.3573H12.3378L18.3545 12.219L45.051 34.4459L54.352 0.217529Z" fill="#3A4683"/>
<path d="M97.6991 1.21279C97.2387 0.565016 96.5293 0.23877 95.5653 0.23877H59.0429L57.2327 6.8979L90.4577 6.89278L88.5251 14.008L55.316 14.0226L49.7902 34.277H56.436L60.1355 20.662H90.0167C90.947 20.662 91.8253 20.3389 92.651 19.6912C93.4767 19.0418 94.0189 18.2402 94.2796 17.2843L97.9791 3.66928C98.2479 2.68031 98.1544 1.86056 97.6991 1.21279Z" fill="#3A4683"/>
<path d="M167.42 0.250244L175.832 17.2973L158.148 34.3345L167.42 0.250244Z" fill="#22914F"/>
<path d="M161.524 0.250244L169.928 17.2973L152.241 34.3345L161.524 0.250244Z" fill="#F47D35"/>
<path d="M151.171 38.3684C151.481 38.1634 151.792 38.0615 152.116 38.0615C152.426 38.0615 152.764 38.1406 153.091 38.2862C153.263 38.3602 153.432 38.4534 153.596 38.5652C153.981 38.8092 154.328 39.1177 154.631 39.4802L154.706 39.5786L154.896 39.821H150.608L150.569 39.6966L150.558 39.662C150.534 39.4802 150.538 39.3176 150.582 39.1653C150.669 38.8289 150.868 38.5636 151.171 38.3684ZM167.882 40.3656L167.427 42.0937H165.277L165.734 40.3656H167.882ZM155.842 39.821C155.707 39.6392 155.569 39.4585 155.435 39.272C154.993 38.7683 154.581 38.3944 154.175 38.1272C153.869 37.9237 153.57 37.7746 153.266 37.6699C152.956 37.5648 152.622 37.5105 152.297 37.5105C151.699 37.5105 151.169 37.6419 150.724 37.9009C150.283 38.165 149.991 38.5554 149.859 39.0634C149.804 39.257 149.801 39.4538 149.848 39.6423L149.85 39.6588L149.882 39.821H148.775L148.632 40.3656H149.729L148.434 45.2586H149.211L150.506 40.3656H155.683L155.353 41.6183H152.19L151.839 41.6789C151.703 41.7234 151.608 41.8347 151.565 41.9973C151.543 42.074 151.556 42.2299 151.902 42.6761L151.948 42.7285C152.246 43.0972 152.444 43.2645 152.592 43.2645C152.811 43.2645 152.906 43.1712 152.952 43.0791L153.195 42.161H155.208L154.388 45.2586H155.16L156.457 40.3656H159.233L158.818 41.9264H158.11L157.982 41.9512C157.811 41.9874 157.711 42.061 157.685 42.174C157.63 42.381 157.754 42.6415 158.063 42.976C158.391 43.3121 158.634 43.4628 158.848 43.4628C159.019 43.4628 159.154 43.3778 159.238 43.2153L159.296 42.9957L159.994 40.3656H161.856L160.56 45.2586H161.341L162.636 40.3656H164.946L164.488 42.0937H163.971L163.74 42.1366C163.608 42.1641 163.528 42.2511 163.486 42.4003C163.444 42.5577 163.56 42.7824 163.864 43.1267C164.147 43.4628 164.382 43.6269 164.577 43.6269C164.73 43.6269 164.838 43.5793 164.901 43.4845L164.946 43.3416L165.128 42.6561H167.277L166.587 45.2586H167.36L168.655 40.3656H169.683L169.826 39.821H155.842Z" fill="#4D4C4E"/>
<path d="M120.557 40.3655H122.012L121.518 42.2463H119.64L120.049 40.6835C120.125 40.3951 120.06 40.1554 119.853 39.9653C119.651 39.7815 119.372 39.6914 119.021 39.6914C118.673 39.6914 118.35 39.7701 118.06 39.9342C117.78 40.1046 117.589 40.3537 117.5 40.6804C117.473 40.7752 117.476 40.8901 117.511 41.072L117.518 41.0999L117.572 41.2443L117.589 41.279H118.314L118.247 41.177L118.207 41.1113L118.203 40.7079C118.244 40.5588 118.319 40.4407 118.441 40.3474C118.56 40.2573 118.699 40.2128 118.863 40.2128C119.071 40.2128 119.204 40.2506 119.262 40.3226L119.304 40.6178L118.873 42.2463H118.152L117.909 42.3199L117.708 42.5446C117.684 42.6367 117.705 42.8169 118.173 43.3203C118.631 43.8205 118.808 43.8795 118.905 43.8795L119.225 43.7516L119.293 43.5418L119.48 42.8334H121.359L120.751 45.129C120.513 45.1731 120.281 45.247 120.055 45.3537C119.938 45.4127 119.79 45.5013 119.626 45.6111L119.561 45.6567L120.057 46.1258L120.101 46.0865L120.35 45.883C120.548 45.7535 120.747 45.6847 120.936 45.6847C121.137 45.6847 121.29 45.7405 121.385 45.844C121.488 45.9554 121.515 46.0833 121.47 46.2439C121.406 46.4934 121.241 46.6882 120.979 46.8342C120.71 46.9802 120.408 47.0558 120.084 47.0558C119.558 47.0558 119.085 46.8787 118.683 46.5276C118.543 46.4143 118.397 46.2407 118.216 46.0176L118.175 45.9684L117.549 46.48L117.595 46.5308C117.829 46.785 118.033 46.9652 118.222 47.0869C118.779 47.4442 119.381 47.6146 120.055 47.6146C120.611 47.6146 121.095 47.4969 121.488 47.2573C121.896 47.0148 122.156 46.6917 122.262 46.2982C122.35 45.9653 122.281 45.6748 122.057 45.4387C121.908 45.288 121.732 45.188 121.525 45.1388L122.789 40.3655H125.593L125.178 41.9263H124.479L124.418 41.9377L124.344 41.9496C124.235 41.9724 124.085 42.0216 124.043 42.1739C123.992 42.3758 124.111 42.6382 124.418 42.9728C124.732 43.3053 124.994 43.4627 125.213 43.4627C125.382 43.4627 125.519 43.3742 125.593 43.2187L125.652 42.9972L126.351 40.3655H128.211L126.916 45.2569H127.696L128.991 40.3655H134.276L133.997 41.4198H131.421C131.05 41.4198 130.732 41.51 130.457 41.6937C130.177 41.8708 129.991 42.1365 129.902 42.4793C129.745 43.066 129.912 43.7008 130.401 44.3616C130.576 44.5847 130.839 44.8649 131.168 45.1601L131.202 45.1947L131.815 44.7748L131.754 44.7189C131.465 44.4584 131.233 44.2124 131.08 44.0105C130.675 43.4611 130.531 42.9413 130.655 42.4612C130.705 42.2856 130.797 42.1593 130.943 42.0692C131.107 41.9724 131.336 41.9263 131.622 41.9263H133.864L132.982 45.2569H133.755L135.05 40.3655H136.91L135.613 45.2569H136.389L137.684 40.3655H142.861L142.531 41.6182H139.364L139.02 41.6772C138.883 41.7233 138.791 41.8346 138.748 41.9972C138.724 42.0838 138.742 42.2494 139.126 42.7268C139.438 43.107 139.626 43.2644 139.77 43.2644C139.947 43.2644 140.066 43.2053 140.132 43.0774L140.373 42.1625H142.388L141.569 45.2569H142.34L143.635 40.3655H144.666L144.81 39.8193H120.701L120.557 40.3655Z" fill="#4D4C4E"/>
<path d="M102.205 40.3655L101.936 41.3753H100.279C99.894 41.3753 99.5398 41.4654 99.2216 41.6362L99.0154 41.774C98.8447 41.892 98.7145 42.0132 98.6164 42.1494L97.0894 40.3655H102.205ZM98.3044 42.7019L98.2993 42.7149L98.2897 42.7527L98.2542 42.9101L98.0595 42.9971C97.7811 43.1152 97.5061 43.171 97.2195 43.171H97.2068C96.8881 43.1659 96.6514 43.0908 96.4985 42.9511C96.344 42.8054 96.3007 42.615 96.3652 42.369L96.7576 40.885L98.3044 42.7019ZM103.249 38.3533C103.422 38.2124 103.642 38.1451 103.92 38.1451C104.117 38.1451 104.297 38.1762 104.453 38.2352C104.77 38.3616 105.008 38.6142 105.18 39.0078C105.258 39.1911 105.325 39.4651 105.38 39.8192H102.997L102.919 39.6421L102.908 39.6142C102.844 39.3915 102.844 39.1601 102.905 38.9306C102.969 38.6831 103.085 38.4895 103.249 38.3533ZM109.618 40.6425L109.506 40.3655H111.49L110.825 42.8676C110.632 43.0416 110.487 43.1596 110.37 43.2364C109.958 43.4859 109.551 43.6122 109.127 43.6252H109.089C108.569 43.6252 108.223 43.4611 108.035 43.125C107.99 43.0349 107.955 42.8987 107.921 42.6775C108.225 42.6217 108.473 42.5496 108.658 42.4792C109.211 42.2427 109.557 41.8755 109.684 41.3851C109.747 41.1589 109.723 40.8999 109.618 40.6425ZM105.833 38.7681C105.584 38.1845 105.171 37.822 104.603 37.691C104.435 37.6449 104.248 37.6252 104.014 37.6252C103.55 37.6252 103.153 37.7303 102.832 37.9369C102.496 38.1518 102.277 38.4651 102.164 38.896C102.105 39.1042 102.121 39.3537 102.207 39.6209L102.271 39.8192H87.764L87.6207 40.3655H90.7749L90.4512 41.5902C90.4045 41.7673 90.2983 41.9164 90.1342 42.0313C89.9638 42.1427 89.748 42.2017 89.4938 42.2017C89.3363 42.2017 89.2107 42.1805 89.0852 42.1313C88.9369 42.0691 88.9114 42.0132 88.9033 41.9873L88.5669 41.2096L87.8671 41.5772L87.8942 41.6492C87.9668 41.8232 88.0328 41.979 88.0826 42.1002C88.2321 42.4576 88.4383 42.8578 88.7102 43.3233C88.884 43.622 89.1092 43.9648 89.3764 44.3367C89.5838 44.6287 89.8124 44.9207 90.0716 45.234L90.1067 45.2781L90.7826 44.8302L90.7363 44.7747L90.5381 44.5516L90.3821 44.3761L90.0909 44.0006C89.9716 43.8546 89.8719 43.7251 89.7947 43.6185L89.2687 42.6905C89.5726 42.748 89.9217 42.6988 90.2983 42.5626C90.5752 42.4591 90.7892 42.3296 90.9324 42.1738C91.0773 42.0132 91.1707 41.8511 91.2175 41.6705L91.5631 40.3655H93.5845L92.2873 45.2568H93.0631L94.3585 40.3655H96.1045L95.5909 42.3119C95.4831 42.7185 95.5847 43.0561 95.8906 43.3233C96.1914 43.5827 96.5919 43.7153 97.094 43.7153C97.3079 43.7153 97.5316 43.6811 97.7749 43.6106C97.9212 43.5693 98.0804 43.517 98.248 43.4481C98.2897 43.7007 98.3943 43.927 98.5666 44.1352L98.7033 44.2958L98.7191 44.3088C99.0107 44.5909 99.3645 44.7814 99.7685 44.8778L97.1519 46.7078H98.2943L100.25 45.1502L101.287 46.7078H102.215L100.876 44.942C101.225 44.9042 101.521 44.8271 101.783 44.7157C102.171 44.5551 102.533 44.3155 102.892 43.9861L102.956 43.927L102.375 43.5906L102.342 43.6252C101.833 44.1321 101.239 44.3776 100.531 44.3776C100.002 44.3776 99.585 44.2187 99.2892 43.9105C99.0331 43.6417 98.93 43.3466 98.9671 43.0101L99.0057 42.8232L99.0524 42.6807C99.1362 42.4969 99.2842 42.3363 99.4869 42.2116C99.7333 42.0396 100.008 41.9542 100.303 41.9542H102.536L102.956 40.3655H105.258L103.965 45.2568H104.741L106.038 40.3655H108.598L108.801 40.6587C108.928 40.9227 108.964 41.136 108.913 41.3297C108.838 41.6213 108.674 41.8444 108.425 41.9873C108.217 42.1069 107.951 42.1659 107.641 42.1659L107.47 42.1396L107.362 42.1148L107.254 42.0935L107.201 42.0872L107.187 42.1427C107.057 42.6461 107.143 43.1069 107.451 43.5138C107.752 43.9235 108.27 44.1321 108.989 44.1321H109.023C109.451 44.1254 109.868 44.0416 110.267 43.8857L110.597 43.7283L110.195 45.2568H110.972L112.267 40.3655H113.297L113.44 39.8192H106.084C106.032 39.3501 105.946 38.996 105.833 38.7681Z" fill="#4D4C4E"/>
<path d="M73.6156 38.3533C73.7863 38.214 74.0022 38.1467 74.2771 38.1467C74.4753 38.1467 74.6487 38.1762 74.8082 38.2352C75.1268 38.3647 75.3747 38.6241 75.542 39.0093C75.6177 39.1734 75.6771 39.4257 75.7366 39.8208H73.3533L73.2699 39.6158C73.2039 39.3816 73.2008 39.1502 73.2583 38.9306C73.3259 38.6811 73.4468 38.4895 73.6156 38.3533ZM79.9833 40.641L79.8721 40.3671H81.8468L81.1856 42.8708C80.9971 43.0447 80.8284 43.1644 80.7218 43.2348C80.3197 43.4808 79.9011 43.6138 79.4813 43.6236H79.4442C78.9294 43.6236 78.5737 43.4564 78.3933 43.1317C78.347 43.025 78.308 42.8692 78.2794 42.6775C78.5849 42.6185 78.841 42.5496 79.0244 42.4772C79.5732 42.2427 79.9173 41.8739 80.0463 41.3836C80.1042 41.1687 80.0814 40.9097 79.9833 40.641ZM76.197 38.7665C75.9347 38.1829 75.5176 37.8204 74.9596 37.691C74.8016 37.6449 74.6085 37.6252 74.3722 37.6252C73.9102 37.6252 73.5144 37.7303 73.1907 37.9369C72.8528 38.155 72.6277 38.4765 72.5133 38.896C72.462 39.101 72.4747 39.347 72.5601 39.6225L72.6307 39.8208H58.1225L57.9777 40.3671H59.4306L58.9351 42.2462H57.0554L57.4706 40.6835C57.5463 40.3966 57.4772 40.1538 57.2698 39.9652C57.0782 39.783 56.7998 39.6898 56.439 39.6898C56.0899 39.6898 55.7667 39.7716 55.4801 39.9342C55.1985 40.103 55.0136 40.3474 54.9251 40.6803L54.9348 41.062L54.9892 41.2458L55.007 41.2789H55.7361L55.6604 41.177L55.6284 41.1097L55.6249 40.7098C55.6686 40.5571 55.7439 40.4375 55.8582 40.3474C55.971 40.2588 56.1108 40.2144 56.2753 40.2144C56.4858 40.2144 56.626 40.2506 56.6839 40.3226L56.7175 40.6146L56.2896 42.2462H55.5751L55.3175 42.3182L55.1259 42.5461C55.1132 42.6004 55.0684 42.7661 55.5863 43.3186C56.0467 43.8204 56.2266 43.8794 56.3232 43.8794L56.6422 43.7547L56.7113 43.5433L56.9009 42.835H58.776L58.1353 45.2584H58.9092L60.2065 40.3671H62.0553L60.7615 45.2584H61.5404L62.8373 40.3671H66.7396L66.4128 41.5918C66.368 41.7755 66.2649 41.918 66.0992 42.0298C65.9254 42.1463 65.7146 42.2017 65.4589 42.2017C65.309 42.2017 65.1754 42.1789 65.0534 42.1329L64.8664 41.9873L64.5285 41.2096L63.843 41.5772L63.8608 41.6295C63.9187 41.7803 63.9797 41.9396 64.0523 42.1002C64.2037 42.4611 64.4096 42.8495 64.6718 43.3218C64.8278 43.5906 65.0356 43.9022 65.343 44.3367C65.5941 44.6763 65.8192 44.9715 66.0382 45.2356L66.0718 45.2781L66.7573 44.8322L66.6928 44.7582C66.548 44.5992 66.4341 44.4729 66.3518 44.3761L66.239 44.232C66.0382 43.981 65.8818 43.781 65.7659 43.6185L65.2334 42.6905C65.5377 42.748 65.8853 42.6988 66.2618 42.5626C66.5418 42.4611 66.7573 42.3296 66.9006 42.1758C67.0439 42.0164 67.1354 41.8511 67.1852 41.6724L67.5313 40.3671H72.9899L72.7099 41.4198H70.1351C69.7651 41.4198 69.4415 41.5115 69.1665 41.6937C68.8911 41.8739 68.703 42.1411 68.6142 42.4823C68.4582 43.0675 68.6242 43.7007 69.1147 44.3615C69.292 44.5941 69.5589 44.87 69.881 45.1616L69.9161 45.1927L70.5294 44.7747L70.4684 44.7204C70.1687 44.4469 69.9354 44.2025 69.7956 44.012C69.3916 43.4646 69.2484 42.9432 69.3739 42.4611C69.4256 42.284 69.5141 42.1561 69.6539 42.0707C69.8246 41.9755 70.0497 41.9263 70.3313 41.9263H72.5763L71.6977 45.2584H72.4716L73.767 40.3671H75.6192L74.3254 45.2584H75.0994L76.3966 40.3671H78.9533L79.1576 40.6622C79.2866 40.8999 79.3237 41.1195 79.2689 41.3297C79.1916 41.6213 79.029 41.8413 78.7861 41.9873C78.5721 42.1069 78.3064 42.1675 77.999 42.1675L77.8256 42.1396L77.7256 42.1167L77.6194 42.0935L77.563 42.0872L77.5502 42.1411C77.4166 42.6366 77.502 43.099 77.8044 43.5138C78.1052 43.9235 78.622 44.1321 79.3461 44.1321H79.3797C79.8177 44.1238 80.2247 44.0431 80.6302 43.8857L80.9601 43.7318L80.5545 45.2584H81.3285L82.6238 40.3671H83.6523L83.7987 39.8208H76.448C76.3932 39.3537 76.3078 38.9995 76.197 38.7665Z" fill="#4D4C4E"/>
<path d="M0 54.8594L1.56723 49.1184L4.08915 52.4946L4.28998 52.8L4.49119 53.1656L5.53704 49.3368H6.35155L4.78742 55.0743L2.21103 51.639L2.01947 51.3439L1.85688 51.0192L0.811033 54.8594H0Z" fill="#4D4C4E"/>
<path d="M7.97829 52.6898H9.48797L9.27556 51.4289L9.25123 51.1534L9.24157 50.8059L9.05812 51.1404L8.87815 51.4289L7.97829 52.6898ZM9.82088 54.8594L9.59263 53.436H7.4488L6.43037 54.8594H5.50348L9.69382 49.1184L10.7509 54.8594H9.82088Z" fill="#4D4C4E"/>
<path d="M13.4415 50.0974L12.1431 54.8592H11.263L12.5598 50.0974H11.1212L11.3286 49.3367H15.0814L14.874 50.0974H13.4415Z" fill="#4D4C4E"/>
<path d="M14.4167 54.8592L15.9229 49.3367H16.8031L15.2969 54.8592H14.4167Z" fill="#4D4C4E"/>
<path d="M21.6484 52.1092C21.7241 51.8305 21.7481 51.5649 21.716 51.3142C21.684 51.0616 21.6017 50.8384 21.4681 50.6401C21.3379 50.448 21.1672 50.2989 20.9548 50.1958C20.7439 50.0907 20.503 50.0368 20.2357 50.0368C19.97 50.0368 19.7031 50.0907 19.4328 50.1922C19.1655 50.2973 18.9114 50.4465 18.6681 50.6401C18.4286 50.8353 18.2239 51.0564 18.0583 51.3107C17.8895 51.5598 17.7686 51.829 17.6898 52.1092C17.6141 52.3866 17.5917 52.6538 17.6222 52.9029C17.6562 53.1505 17.7366 53.3736 17.8702 53.5704C18.0038 53.7656 18.1776 53.9147 18.3885 54.0194C18.599 54.1198 18.8403 54.1721 19.1091 54.1721C19.3733 54.1721 19.6386 54.1198 19.9039 54.0194C20.1712 53.9147 20.4257 53.7656 20.6702 53.5704C20.9116 53.3736 21.1143 53.1505 21.2815 52.8998C21.4507 52.6503 21.5747 52.3831 21.6484 52.1092ZM22.5657 52.1092C22.4595 52.5011 22.2857 52.8734 22.0478 53.2229C21.8079 53.5735 21.5117 53.8837 21.1591 54.1576C20.8084 54.4326 20.4334 54.6412 20.0457 54.7868C19.6548 54.9328 19.2686 55.0052 18.8824 55.0052C18.4912 55.0052 18.139 54.9328 17.825 54.7868C17.5129 54.6393 17.2569 54.4295 17.0576 54.1576C16.8564 53.8837 16.7309 53.5735 16.6841 53.226C16.6359 52.8801 16.6648 52.5078 16.7726 52.1092C16.8803 51.7156 17.0541 51.3418 17.2924 50.9911C17.5307 50.6432 17.825 50.33 18.1776 50.0529C18.5298 49.779 18.8983 49.5708 19.2895 49.4248C19.6772 49.2824 20.0716 49.2119 20.4624 49.2119C20.8505 49.2119 21.2028 49.2824 21.5117 49.4248C21.8222 49.5708 22.0798 49.779 22.2795 50.0529C22.4803 50.3335 22.6043 50.6468 22.6526 50.9974C22.7024 51.3485 22.6734 51.7192 22.5657 52.1092Z" fill="#4D4C4E"/>
<path d="M22.675 54.8594L24.2427 49.1184L26.7627 52.4946L26.9654 52.8L27.1682 53.1656L28.2125 49.3368H29.0251L27.4625 55.0743L24.8865 51.639L24.6949 51.3439L24.5323 51.0192L23.4865 54.8594H22.675Z" fill="#4D4C4E"/>
<path d="M30.6521 52.6898H32.1614L31.9506 51.4289L31.9251 51.1534L31.9185 50.8059L31.7316 51.1404L31.5516 51.4289L30.6521 52.6898ZM32.4963 54.8594L32.2692 53.436H30.1227L29.1054 54.8594H28.1804L32.3692 49.1184L33.4263 54.8594H32.4963Z" fill="#4D4C4E"/>
<path d="M34.0893 54.8592L35.5936 49.3367H36.4741L35.19 54.0556H37.1577L36.9391 54.8592H34.0893Z" fill="#4D4C4E"/>
<path d="M41.8486 51.6436H42.0757C42.5631 51.6436 42.906 51.5893 43.0956 51.4815C43.2907 51.3732 43.4243 51.1828 43.4981 50.9089C43.5788 50.6137 43.5494 50.4071 43.4081 50.2859C43.2663 50.1663 42.9624 50.1056 42.4955 50.1056H42.2703L41.8486 51.6436ZM41.5944 52.3799L40.9186 54.8577H40.0933L41.5975 49.3367H42.9319C43.3258 49.3367 43.6124 49.3579 43.7846 49.402C43.96 49.4465 44.1017 49.5185 44.2125 49.62C44.3477 49.7463 44.4346 49.9203 44.4717 50.1367C44.5072 50.3548 44.491 50.594 44.4203 50.8565C44.3477 51.1174 44.2334 51.3583 44.0789 51.5795C43.9213 51.801 43.741 51.975 43.5367 52.1009C43.3694 52.2013 43.1875 52.2733 42.9914 52.3178C42.7932 52.3587 42.4955 52.3799 42.1011 52.3799H41.5944Z" fill="#4D4C4E"/>
<path d="M44.9946 52.6898H46.5039L46.2934 51.4289L46.2691 51.1534L46.2594 50.8059L46.0744 51.1404L45.894 51.4289L44.9946 52.6898ZM46.8387 54.8594L46.6135 53.436H44.4666L43.4467 54.8594H42.5213L46.7116 49.1184L47.7691 54.8594H46.8387Z" fill="#4D4C4E"/>
<path d="M48.2727 54.8592L48.9629 52.3307L47.9541 49.3367H48.8791L49.5036 51.2107L49.5549 51.4008L49.6098 51.6519L49.7867 51.4043L49.967 51.1895L51.6374 49.3367H52.5195L49.8369 52.3307L49.1448 54.8592H48.2727Z" fill="#4D4C4E"/>
<path d="M56.3105 52.1325C56.312 52.0896 56.3283 51.9715 56.3588 51.7783C56.3831 51.6173 56.4024 51.4831 56.4151 51.378L56.2174 51.7551L55.9598 52.1388L53.7391 55.0821L53.1405 52.0782L53.0841 51.7208L53.0648 51.378L52.9377 51.7421L52.7574 52.1388L51.4346 54.8593H50.6236L53.4734 49.1038L54.1238 52.5882L54.1609 52.8637C54.1767 52.9931 54.1945 53.1506 54.2138 53.3391C54.3088 53.1816 54.4455 52.9801 54.6239 52.7358L54.7321 52.5831L57.2439 49.1038L56.9833 54.8593H56.1657L56.3105 52.1325Z" fill="#4D4C4E"/>
<path d="M57.8375 54.8592L59.3457 49.3367H62.3693L62.1615 50.099H60.0165L59.64 51.483H61.7849L61.5679 52.2717H59.4245L58.9398 54.0556H61.0817L60.8631 54.8592H57.8375Z" fill="#4D4C4E"/>
<path d="M62.0264 54.8594L63.5905 49.1184L66.112 52.4946L66.3133 52.8L66.5176 53.1656L67.5638 49.3368H68.3748L66.8138 55.0743L64.2374 51.639L64.0443 51.3439L63.8836 51.0192L62.8374 54.8594H62.0264Z" fill="#4D4C4E"/>
<path d="M71.3161 50.0974L70.0176 54.8592H69.1375L70.4343 50.0974H68.9957L69.2035 49.3367H72.9559L72.7485 50.0974H71.3161Z" fill="#4D4C4E"/>
<path d="M72.2659 53.7538L73.0607 53.4212C73.0607 53.6672 73.1314 53.8541 73.2731 53.9868C73.4164 54.1147 73.6257 54.1788 73.9023 54.1788C74.1645 54.1788 74.3916 54.1048 74.5862 53.9557C74.7809 53.8097 74.913 53.6113 74.9805 53.3622C75.0674 53.0356 74.884 52.7471 74.4252 52.4929L74.2757 52.411C73.759 52.1127 73.4357 51.8435 73.3036 51.6043C73.17 51.365 73.1492 51.073 73.2442 50.7219C73.3681 50.2745 73.6157 49.9105 73.9922 49.6318C74.3707 49.3512 74.8002 49.2119 75.286 49.2119C75.6869 49.2119 75.9974 49.289 76.2245 49.448C76.4512 49.6039 76.5767 49.8302 76.5976 50.1253L75.8124 50.4858C75.7499 50.3123 75.6676 50.1859 75.5599 50.1056C75.4502 50.0254 75.3135 49.986 75.1447 49.986C74.9095 49.986 74.7036 50.0498 74.5298 50.1745C74.3561 50.2989 74.2402 50.4697 74.1823 50.6779C74.0923 51.0108 74.3128 51.3205 74.8469 51.6058L74.9435 51.6601C75.4119 51.9108 75.7128 52.1568 75.848 52.3961C75.9812 52.6357 75.9974 52.9376 75.9009 53.2965C75.7576 53.8195 75.4842 54.2343 75.0756 54.5428C74.6681 54.851 74.1888 55.0052 73.64 55.0052C73.1781 55.0052 72.8305 54.897 72.5922 54.6806C72.3574 54.4657 72.2481 54.1576 72.2659 53.7538Z" fill="#4D4C4E"/>
<path d="M84.0629 50.678C83.8744 50.4631 83.6539 50.299 83.4059 50.1923C83.1584 50.0845 82.8799 50.0286 82.5725 50.0286C81.982 50.0286 81.4479 50.2238 80.9697 50.6122C80.492 50.9975 80.1699 51.5009 80.0027 52.116C79.8385 52.713 79.8868 53.2049 80.1425 53.5917C80.4001 53.9802 80.8025 54.1738 81.3528 54.1738C81.673 54.1738 81.9947 54.1148 82.3149 54.0002C82.637 53.8818 82.9618 53.7098 83.2935 53.4737L83.0182 54.4902C82.7335 54.6642 82.4389 54.792 82.138 54.879C81.8341 54.9625 81.5216 55.0053 81.1949 55.0053C80.7816 55.0053 80.4163 54.9381 80.1023 54.7987C79.7887 54.661 79.5361 54.456 79.3411 54.1887C79.1484 53.9247 79.0306 53.6114 78.9873 53.2541C78.9421 52.8964 78.9761 52.5146 79.0854 52.1077C79.1982 51.7027 79.372 51.3238 79.6099 50.9664C79.8497 50.6122 80.1394 50.299 80.4804 50.0286C80.8249 49.7579 81.1903 49.5528 81.5765 49.4135C81.9627 49.2742 82.357 49.2053 82.7625 49.2053C83.0811 49.2053 83.3708 49.2498 83.6346 49.3482C83.8968 49.4415 84.1397 49.5843 84.3587 49.7728L84.0629 50.678Z" fill="#4D4C4E"/>
<path d="M89.4037 52.1092C89.4809 51.8305 89.5033 51.5649 89.4713 51.3142C89.4373 51.0616 89.357 50.8384 89.2233 50.6401C89.0932 50.448 88.9209 50.2989 88.7101 50.1958C88.4977 50.0907 88.2578 50.0368 87.9906 50.0368C87.7237 50.0368 87.458 50.0907 87.1892 50.1922C86.9189 50.2973 86.6647 50.4465 86.4233 50.6401C86.182 50.8353 85.9792 51.0564 85.8135 51.3107C85.6444 51.5598 85.5223 51.829 85.4451 52.1092C85.3694 52.3866 85.3466 52.6538 85.3775 52.9029C85.4096 53.1505 85.4918 53.3736 85.6251 53.5704C85.7587 53.7656 85.9325 53.9147 86.1434 54.0194C86.3542 54.1198 86.5941 54.1721 86.8629 54.1721C87.1297 54.1721 87.392 54.1198 87.6592 54.0194C87.9265 53.9147 88.1806 53.7656 88.4251 53.5704C88.6649 53.3736 88.8692 53.1505 89.0368 52.8998C89.2056 52.6503 89.328 52.3831 89.4037 52.1092ZM90.3209 52.1092C90.2147 52.5011 90.0409 52.8734 89.8027 53.2229C89.5613 53.5735 89.267 53.8837 88.9144 54.1576C88.5637 54.4326 88.1902 54.6412 87.7994 54.7868C87.4097 54.9328 87.022 55.0052 86.6358 55.0052C86.2465 55.0052 85.8939 54.9328 85.5803 54.7868C85.2663 54.6393 85.0122 54.4295 84.814 54.1576C84.6097 53.8837 84.4858 53.5735 84.4375 53.226C84.3907 52.8801 84.4201 52.5078 84.5279 52.1092C84.6356 51.7156 84.8094 51.3418 85.0477 50.9911C85.2856 50.6432 85.5803 50.33 85.9325 50.0529C86.2851 49.779 86.6551 49.5708 87.0428 49.4248C87.4321 49.2824 87.8249 49.2119 88.2161 49.2119C88.607 49.2119 88.9561 49.2824 89.267 49.4248C89.5756 49.5708 89.8332 49.779 90.0359 50.0529C90.2356 50.3335 90.3596 50.6468 90.4078 50.9974C90.4577 51.3485 90.4287 51.7192 90.3209 52.1092Z" fill="#4D4C4E"/>
<path d="M92.3272 51.6912H92.4852C92.9552 51.6912 93.2785 51.6353 93.4619 51.524C93.6438 51.4158 93.7724 51.2174 93.8512 50.9368C93.9335 50.6318 93.9091 50.4169 93.779 50.2926C93.6504 50.1694 93.3638 50.1072 92.9181 50.1072H92.7602L92.3272 51.6912ZM92.0828 52.3882L91.4069 54.8592H90.5831L92.0893 49.3367H93.3155C93.6774 49.3367 93.9528 49.3611 94.1362 49.4071C94.3212 49.4563 94.4676 49.5366 94.5804 49.6448C94.7105 49.779 94.7943 49.9514 94.8279 50.1627C94.8604 50.3729 94.8426 50.6058 94.775 50.8565C94.6545 51.2993 94.4548 51.6468 94.1779 51.8963C93.8995 52.1454 93.5504 52.2977 93.1255 52.3473L94.305 54.8592H93.309L92.1809 52.3882H92.0828Z" fill="#4D4C4E"/>
<path d="M96.7382 51.6436H96.9653C97.4511 51.6436 97.7941 51.5893 97.9856 51.4815C98.1784 51.3732 98.312 51.1828 98.3846 50.9089C98.4665 50.6137 98.436 50.4071 98.2962 50.2859C98.1544 50.1663 97.8485 50.1056 97.3836 50.1056H97.1584L96.7382 51.6436ZM96.4841 52.3799L95.8067 54.8577H94.981L96.4872 49.3367H97.818C98.2139 49.3367 98.4989 49.3579 98.6727 49.402C98.848 49.4465 98.9913 49.5185 99.1022 49.62C99.2373 49.7463 99.3211 49.9203 99.3598 50.1367C99.3953 50.3548 99.3806 50.594 99.3084 50.8565C99.2373 51.1174 99.1215 51.3583 98.967 51.5795C98.8094 51.801 98.6291 51.975 98.4232 52.1009C98.2575 52.2013 98.0772 52.2733 97.8794 52.3178C97.6813 52.3587 97.3835 52.3799 96.9892 52.3799H96.4841Z" fill="#4D4C4E"/>
<path d="M104.404 52.1092C104.48 51.8305 104.503 51.5649 104.47 51.3142C104.442 51.0616 104.358 50.8384 104.224 50.6401C104.094 50.448 103.922 50.2989 103.709 50.1958C103.498 50.0907 103.257 50.0368 102.993 50.0368C102.724 50.0368 102.459 50.0907 102.189 50.1922C101.92 50.2973 101.666 50.4465 101.423 50.6401C101.185 50.8353 100.98 51.0564 100.813 51.3107C100.645 51.5598 100.523 51.829 100.446 52.1092C100.37 52.3866 100.346 52.6538 100.38 52.9029C100.411 53.1505 100.493 53.3736 100.625 53.5704C100.761 53.7656 100.932 53.9147 101.144 54.0194C101.355 54.1198 101.596 54.1721 101.865 54.1721C102.128 54.1721 102.395 54.1198 102.66 54.0194C102.926 53.9147 103.182 53.7656 103.426 53.5704C103.664 53.3736 103.87 53.1505 104.038 52.8998C104.207 52.6503 104.327 52.3831 104.404 52.1092ZM105.322 52.1092C105.215 52.5011 105.042 52.8734 104.804 53.2229C104.562 53.5735 104.268 53.8837 103.917 54.1576C103.563 54.4326 103.191 54.6412 102.8 54.7868C102.411 54.9328 102.023 55.0052 101.635 55.0052C101.249 55.0052 100.895 54.9328 100.581 54.7868C100.27 54.6393 100.011 54.4295 99.812 54.1576C99.6139 53.8837 99.4869 53.5735 99.4401 53.226C99.3919 52.8801 99.4193 52.5078 99.5286 52.1092C99.6348 51.7156 99.8086 51.3418 100.047 50.9911C100.285 50.6432 100.581 50.33 100.935 50.0529C101.286 49.779 101.655 49.5708 102.044 49.4248C102.432 49.2824 102.824 49.2119 103.219 49.2119C103.607 49.2119 103.959 49.2824 104.268 49.4248C104.578 49.5708 104.834 49.779 105.035 50.0529C105.236 50.3335 105.359 50.6468 105.407 50.9974C105.455 51.3485 105.428 51.7192 105.322 52.1092Z" fill="#4D4C4E"/>
<path d="M107.024 51.6912H107.185C107.652 51.6912 107.975 51.6353 108.157 51.524C108.341 51.4158 108.471 51.2174 108.548 50.9368C108.63 50.6318 108.606 50.4169 108.476 50.2926C108.347 50.1694 108.061 50.1072 107.615 50.1072H107.457L107.024 51.6912ZM106.78 52.3882L106.106 54.8592H105.278L106.786 49.3367H108.014C108.374 49.3367 108.648 49.3611 108.833 49.4071C109.018 49.4563 109.168 49.5366 109.277 49.6448C109.409 49.779 109.491 49.9514 109.527 50.1627C109.559 50.3729 109.541 50.6058 109.472 50.8565C109.353 51.2993 109.153 51.6468 108.873 51.8963C108.598 52.1454 108.246 52.2977 107.822 52.3473L109.004 54.8592H108.007L106.88 52.3882H106.78Z" fill="#4D4C4E"/>
<path d="M111.565 52.6898H113.075L112.864 51.4289L112.84 51.1534L112.83 50.8059L112.645 51.1404L112.465 51.4289L111.565 52.6898ZM113.41 54.8594L113.183 53.436H111.036L110.019 54.8594H109.094L113.283 49.1184L114.34 54.8594H113.41Z" fill="#4D4C4E"/>
<path d="M117.029 50.0974L115.73 54.8592H114.85L116.147 50.0974H114.708L114.916 49.3367H118.67L118.461 50.0974H117.029Z" fill="#4D4C4E"/>
<path d="M118.005 54.8592L119.512 49.3367H120.392L118.886 54.8592H118.005Z" fill="#4D4C4E"/>
<path d="M125.237 52.1092C125.313 51.8305 125.335 51.5649 125.303 51.3142C125.271 51.0616 125.189 50.8384 125.057 50.6401C124.927 50.448 124.754 50.2989 124.54 50.1958C124.331 50.0907 124.091 50.0368 123.824 50.0368C123.557 50.0368 123.29 50.0907 123.021 50.1922C122.753 50.2973 122.498 50.4465 122.257 50.6401C122.015 50.8353 121.813 51.0564 121.645 51.3107C121.48 51.5598 121.356 51.829 121.279 52.1092C121.203 52.3866 121.18 52.6538 121.211 52.9029C121.243 53.1505 121.324 53.3736 121.459 53.5704C121.591 53.7656 121.766 53.9147 121.977 54.0194C122.186 54.1198 122.428 54.1721 122.696 54.1721C122.962 54.1721 123.226 54.1198 123.493 54.0194C123.758 53.9147 124.013 53.7656 124.259 53.5704C124.499 53.3736 124.703 53.1505 124.87 52.8998C125.039 52.6503 125.161 52.3831 125.237 52.1092ZM126.154 52.1092C126.048 52.5011 125.874 52.8734 125.635 53.2229C125.396 53.5735 125.099 53.8837 124.746 54.1576C124.396 54.4326 124.022 54.6412 123.633 54.7868C123.242 54.9328 122.855 55.0052 122.469 55.0052C122.078 55.0052 121.728 54.9328 121.414 54.7868C121.1 54.6393 120.844 54.4295 120.646 54.1576C120.443 53.8837 120.318 53.5735 120.271 53.226C120.223 52.8801 120.252 52.5078 120.361 52.1092C120.468 51.7156 120.643 51.3418 120.88 50.9911C121.117 50.6432 121.414 50.33 121.766 50.0529C122.117 49.779 122.489 49.5708 122.876 49.4248C123.266 49.2824 123.658 49.2119 124.05 49.2119C124.439 49.2119 124.79 49.2824 125.099 49.4248C125.409 49.5708 125.667 49.779 125.868 50.0529C126.069 50.3335 126.193 50.6468 126.241 50.9974C126.29 51.3485 126.262 51.7192 126.154 52.1092Z" fill="#4D4C4E"/>
<path d="M126.113 54.8594L127.678 49.1184L130.2 52.4946L130.401 52.8L130.607 53.1656L131.65 49.3368H132.464L130.902 55.0743L128.324 51.639L128.132 51.3439L127.969 51.0192L126.924 54.8594H126.113Z" fill="#4D4C4E"/>
<path d="M139.271 52.1092C139.346 51.8305 139.371 51.5649 139.339 51.3142C139.306 51.0616 139.224 50.8384 139.091 50.6401C138.96 50.448 138.79 50.2989 138.576 50.1958C138.367 50.0907 138.124 50.0368 137.858 50.0368C137.593 50.0368 137.324 50.0907 137.055 50.1922C136.786 50.2973 136.532 50.4465 136.291 50.6401C136.051 50.8353 135.847 51.0564 135.679 51.3107C135.512 51.5598 135.391 51.829 135.312 52.1092C135.237 52.3866 135.214 52.6538 135.245 52.9029C135.277 53.1505 135.359 53.3736 135.492 53.5704C135.626 53.7656 135.8 53.9147 136.011 54.0194C136.22 54.1198 136.463 54.1721 136.731 54.1721C136.996 54.1721 137.261 54.1198 137.527 54.0194C137.792 53.9147 138.048 53.7656 138.292 53.5704C138.534 53.3736 138.737 53.1505 138.904 52.8998C139.073 52.6503 139.195 52.3831 139.271 52.1092ZM140.186 52.1092C140.082 52.5011 139.908 52.8734 139.668 53.2229C139.43 53.5735 139.132 53.8837 138.782 54.1576C138.429 54.4326 138.056 54.6412 137.668 54.7868C137.276 54.9328 136.889 55.0052 136.503 55.0052C136.114 55.0052 135.761 54.9328 135.448 54.7868C135.135 54.6393 134.88 54.4295 134.678 54.1576C134.479 53.8837 134.353 53.5735 134.305 53.226C134.257 52.8801 134.286 52.5078 134.397 52.1092C134.503 51.7156 134.677 51.3418 134.915 50.9911C135.153 50.6432 135.448 50.33 135.8 50.0529C136.152 49.779 136.521 49.5708 136.912 49.4248C137.299 49.2824 137.692 49.2119 138.085 49.2119C138.474 49.2119 138.825 49.2824 139.132 49.4248C139.443 49.5708 139.701 49.779 139.902 50.0529C140.103 50.3335 140.227 50.6468 140.275 50.9974C140.323 51.3485 140.296 51.7192 140.186 52.1092Z" fill="#4D4C4E"/>
<path d="M140.146 54.8592L141.652 49.3367H144.676L144.47 50.099H142.325L141.95 51.4764H144.094L143.878 52.2634H141.735L141.028 54.8592H140.146Z" fill="#4D4C4E"/>
<path d="M146.43 54.8592L147.936 49.3367H148.817L147.31 54.8592H146.43Z" fill="#4D4C4E"/>
<path d="M148.12 54.8594L149.687 49.1184L152.209 52.4946L152.41 52.8L152.615 53.1656L153.657 49.3368H154.473L152.909 55.0743L150.332 51.639L150.139 51.3439L149.977 51.0192L148.931 54.8594H148.12Z" fill="#4D4C4E"/>
<path d="M155.011 54.0474H155.751C156.159 54.0474 156.47 54.0194 156.689 53.964C156.909 53.9096 157.112 53.8164 157.297 53.6849C157.55 53.5063 157.765 53.2851 157.939 53.0195C158.116 52.7538 158.251 52.4437 158.346 52.0931C158.441 51.742 158.473 51.4339 158.446 51.1663C158.414 50.9026 158.322 50.6795 158.166 50.5024C158.048 50.3713 157.891 50.2776 157.693 50.2218C157.493 50.1663 157.168 50.1383 156.714 50.1383H156.077L155.011 54.0474ZM153.906 54.8593L155.414 49.3347H156.602C157.376 49.3347 157.909 49.3741 158.2 49.4544C158.495 49.5335 158.732 49.6677 158.921 49.853C159.167 50.0958 159.32 50.4107 159.378 50.7928C159.434 51.1745 159.396 51.611 159.263 52.1009C159.128 52.5913 158.929 53.0261 158.665 53.4032C158.398 53.7817 158.076 54.0966 157.696 54.341C157.408 54.5263 157.102 54.6609 156.779 54.7396C156.454 54.8183 155.974 54.8593 155.334 54.8593H153.906Z" fill="#4D4C4E"/>
<path d="M159.082 54.8592L160.586 49.3367H161.466L159.962 54.8592H159.082Z" fill="#4D4C4E"/>
<path d="M162.961 52.6898H164.473L164.262 51.4289L164.237 51.1534L164.228 50.8059L164.041 51.1404L163.861 51.4289L162.961 52.6898ZM164.807 54.8594L164.58 53.436H162.432L161.415 54.8594H160.491L164.682 49.1184L165.737 54.8594H164.807Z" fill="#4D4C4E"/>
</g>
<defs>
<clipPath id="clip0_3803_1298">
<rect width="176.11" height="55.0959" fill="white" transform="translate(0 0.217529)"/>
</clipPath>
</defs>
</svg>
