<svg width="71" height="71" viewBox="0 0 71 71" fill="none" xmlns="http://www.w3.org/2000/svg">
<g clip-path="url(#clip0_37_532)">
<path d="M61.8558 31.4156C61.9141 31.0073 61.9141 30.5406 61.9141 30.1323" stroke="#1D1D1D" stroke-width="1.77264" stroke-miterlimit="10" stroke-linecap="round" stroke-linejoin="round"/>
<path d="M57.3052 38.8245C59.0552 37.6578 60.3969 35.9662 61.2136 33.9828" stroke="#1D1D1D" stroke-width="1.77264" stroke-miterlimit="10" stroke-linecap="round" stroke-linejoin="round"/>
<path d="M53.8098 43.1989C60.8098 43.1989 66.4681 37.5406 66.4681 30.5406C66.4681 24.0656 61.6264 18.7573 55.3848 17.999C54.6848 12.9823 50.4264 9.07395 45.1764 9.07395C44.1848 9.07395 43.1931 9.24895 42.3181 9.48228C39.6348 4.75728 34.5598 1.54895 28.7264 1.54895C20.0931 1.54895 13.1514 8.54895 13.1514 17.124C13.1514 17.474 13.1514 17.824 13.2098 18.1156C7.55142 19.399 3.29309 24.4156 3.29309 30.4823C3.29309 37.4823 8.95142 43.1406 15.9514 43.1406H19.4514" stroke="#1D1D1D" stroke-width="1.77264" stroke-miterlimit="10" stroke-linecap="round" stroke-linejoin="round"/>
<g opacity="0.5">
<path d="M11.0438 59.7076H7.01878C4.45211 59.7076 2.35211 57.6076 2.35211 55.0409C2.35211 52.4743 4.45211 50.3743 7.01878 50.3743H17.8688" stroke="#979797" stroke-width="1.77264" stroke-miterlimit="10" stroke-linecap="round" stroke-linejoin="round"/>
<path d="M8.47601 57.1422L11.0427 59.7088L8.47601 62.2755" stroke="#979797" stroke-width="1.77264" stroke-miterlimit="10" stroke-linecap="round" stroke-linejoin="round"/>
<path d="M60.0425 56.4982H64.0675C66.6341 56.4982 68.7341 58.5982 68.7341 61.1648C68.7341 63.7315 66.6341 65.8315 64.0675 65.8315H53.2175" stroke="#979797" stroke-width="1.77264" stroke-miterlimit="10" stroke-linecap="round" stroke-linejoin="round"/>
<path d="M62.6099 59.0671L60.0433 56.5004L62.6099 53.9337" stroke="#979797" stroke-width="1.77264" stroke-miterlimit="10" stroke-linecap="round" stroke-linejoin="round"/>
</g>
<path d="M43.5979 67.6992H26.1562C24.6979 67.6992 23.5312 66.5325 23.5312 65.0742V30.1909C23.5312 28.7325 24.6979 27.5659 26.1562 27.5659H43.5396C44.9979 27.5659 46.1646 28.7325 46.1646 30.1909V65.0742C46.2229 66.5325 45.0563 67.6992 43.5979 67.6992Z" fill="#1D1D1D"/>
<path d="M35.3625 37.4246H40.5542" stroke="white" stroke-width="1.77264" stroke-miterlimit="10" stroke-linecap="round" stroke-linejoin="round"/>
<path d="M35.3625 39.8754H40.5542" stroke="white" stroke-width="1.77264" stroke-miterlimit="10" stroke-linecap="round" stroke-linejoin="round"/>
<path d="M31.8079 36.5493H27.5496V40.8076H31.8079V36.5493Z" stroke="white" stroke-width="1.77264" stroke-miterlimit="10" stroke-linecap="round" stroke-linejoin="round"/>
<path d="M34.3837 65.4828C35.1891 65.4828 35.842 64.8299 35.842 64.0245C35.842 63.2191 35.1891 62.5662 34.3837 62.5662C33.5783 62.5662 32.9254 63.2191 32.9254 64.0245C32.9254 64.8299 33.5783 65.4828 34.3837 65.4828Z" stroke="white" stroke-width="1.77264" stroke-miterlimit="10" stroke-linecap="round" stroke-linejoin="round"/>
<path d="M25.6908 31.0655H43.0158" stroke="white" stroke-width="1.77264" stroke-miterlimit="10" stroke-linecap="round" stroke-linejoin="round"/>
<path d="M43.0158 60.1733H25.6908" stroke="white" stroke-width="1.77264" stroke-miterlimit="10" stroke-linecap="round" stroke-linejoin="round"/>
</g>
<defs>
<clipPath id="clip0_37_532">
<rect width="70" height="70" fill="white" transform="translate(0.547363 0.5)"/>
</clipPath>
</defs>
</svg>
