<svg width="70" height="71" viewBox="0 0 70 71" fill="none" xmlns="http://www.w3.org/2000/svg">
<path d="M39.5662 31.802V53.0155L7.49219 47.9912V12.5677" stroke="#1D1D1D" stroke-width="1.5" stroke-miterlimit="10" stroke-linecap="round" stroke-linejoin="round"/>
<path d="M7.49219 12.5677L39.5662 17.592V24.2402" stroke="#1D1D1D" stroke-width="1.5" stroke-miterlimit="10" stroke-linecap="round" stroke-linejoin="round"/>
<path d="M60.327 11.9076V46.9758L39.5703 53.015" stroke="#1D1D1D" stroke-width="1.5" stroke-miterlimit="10" stroke-linecap="round" stroke-linejoin="round"/>
<path d="M39.5703 17.5916L60.327 11.9076" stroke="#1D1D1D" stroke-width="1.5" stroke-miterlimit="10" stroke-linecap="round" stroke-linejoin="round"/>
<path d="M7.49219 12.5685L28.1982 7.54428L60.3229 11.9088" stroke="#1D1D1D" stroke-width="1.5" stroke-miterlimit="10" stroke-linecap="round" stroke-linejoin="round"/>
<path d="M48.7024 63.2675C56.3262 63.2675 62.5064 57.0872 62.5064 49.4635C62.5064 41.8398 56.3262 35.6595 48.7024 35.6595C41.0787 35.6595 34.8984 41.8398 34.8984 49.4635C34.8984 57.0872 41.0787 63.2675 48.7024 63.2675Z" fill="#1D1D1D"/>
<path d="M47.891 45.5052H51.2912C53.4735 45.5052 55.2497 47.2815 55.2497 49.4637C55.2497 51.646 53.4735 53.4222 51.2912 53.4222H42.1562" stroke="white" stroke-width="1.5" stroke-miterlimit="10" stroke-linecap="round" stroke-linejoin="round"/>
<path d="M50.0729 47.6354L47.8906 45.5039L50.0729 43.3216" stroke="white" stroke-width="1.5" stroke-miterlimit="10" stroke-linecap="round" stroke-linejoin="round"/>
<path d="M47.2266 15.4603V24.24" stroke="#1D1D1D" stroke-width="1.5" stroke-miterlimit="10" stroke-linecap="round" stroke-linejoin="round"/>
<path d="M49.8148 23.429L47.2266 24.241" stroke="#1D1D1D" stroke-width="1.5" stroke-miterlimit="10" stroke-linecap="round" stroke-linejoin="round"/>
<path d="M54.8894 21.8548L52.9609 22.4638" stroke="#1D1D1D" stroke-width="1.5" stroke-miterlimit="10" stroke-linecap="round" stroke-linejoin="round"/>
<path d="M54.8906 13.431V21.754" stroke="#1D1D1D" stroke-width="1.5" stroke-miterlimit="10" stroke-linecap="round" stroke-linejoin="round"/>
<path d="M13.4795 22.0072C14.3484 22.0072 15.0527 21.3028 15.0527 20.4339C15.0527 19.5651 14.3484 18.8607 13.4795 18.8607C12.6106 18.8607 11.9062 19.5651 11.9062 20.4339C11.9062 21.3028 12.6106 22.0072 13.4795 22.0072Z" stroke="#1D1D1D" stroke-width="1.5" stroke-miterlimit="10" stroke-linecap="round" stroke-linejoin="round"/>
</svg>
