<svg width="71" height="71" viewBox="0 0 71 71" fill="none" xmlns="http://www.w3.org/2000/svg">
<path d="M30.3121 28.1526V25.4807C30.3121 22.6109 32.6377 20.2359 35.5569 20.2359C38.4267 20.2359 40.8017 22.5614 40.8017 25.4807V28.1526" stroke="#1D1D1D" stroke-width="2.22567" stroke-miterlimit="10" stroke-linecap="round" stroke-linejoin="round"/>
<path d="M43.8111 45.8168H27.2851C26.1471 45.8168 25.207 44.8767 25.207 43.7387V30.2309C25.207 29.0929 26.1471 28.1528 27.2851 28.1528H43.8111C44.9491 28.1528 45.8892 29.0929 45.8892 30.2309V43.7387C45.8397 44.8767 44.9491 45.8168 43.8111 45.8168Z" fill="#1D1D1D"/>
<path d="M35.5582 40.5719C37.5257 40.5719 39.1207 38.9769 39.1207 37.0094C39.1207 35.0419 37.5257 33.4469 35.5582 33.4469C33.5907 33.4469 31.9957 35.0419 31.9957 37.0094C31.9957 38.9769 33.5907 40.5719 35.5582 40.5719Z" fill="white"/>
<path d="M50.3984 54.7721C46.2917 59.0768 41.2448 62.4414 35.5547 64.47C20.9089 59.2747 10.3204 45.2721 10.3204 28.8945V14.892L35.5547 6.53L60.789 14.892V28.8451C60.789 33.8919 59.75 38.7409 57.9192 43.194C57.9687 43.194 54.7526 50.8633 50.3984 54.7721Z" stroke="#1D1D1D" stroke-width="1.6048" stroke-miterlimit="10" stroke-linecap="round" stroke-linejoin="round"/>
<path d="M48.3944 51.7572C44.9203 55.4049 40.6509 58.256 35.8374 59.9751C23.4478 55.5726 14.4905 43.7069 14.4905 29.8287V17.963L35.8374 10.8772L57.1843 17.963V29.7868C57.1843 34.0635 56.3053 38.1724 54.7566 41.946C54.7985 41.946 52.0778 48.4448 48.3944 51.7572Z" stroke="#979797" stroke-miterlimit="10" stroke-linecap="round" stroke-linejoin="round"/>
</svg>
